<svg width="728" height="777" fill="none" xmlns="http://www.w3.org/2000/svg"><g clip-path="url(#clip0)" opacity=".05"><path d="M471.872 646.569h56.998v133.299h-56.998V646.569z" fill="#333"/><path d="M502.962 639.844h25.908v7.587h-25.908v-7.587zm10.881-4.312h15.027v4.312h-15.027v-4.312z" fill="#333"/><path opacity=".06" d="M495.707 655.881h9.327v6.898h-9.327v-6.898z" fill="#fff"/><path opacity=".12" d="M495.707 672.953h9.327v6.897h-9.327v-6.897z" fill="#fff"/><path opacity=".19" d="M495.707 707.097h9.327v6.898h-9.327v-6.898z" fill="#fff"/><path opacity=".14" d="M495.707 741.241h9.327v6.898h-9.327v-6.898z" fill="#fff"/><path opacity=".1" d="M495.707 758.313h9.327v6.898h-9.327v-6.898z" fill="#fff"/><path d="M614.884 661.054h78.07v71.392h-78.07v-71.392z" fill="#333"/><path d="M627.147 654.673h53.371v30.695h-53.371v-30.695zm-17.962 51.389h78.069v71.392h-78.069v-71.392z" fill="#333"/><path d="M621.62 699.681h53.371v30.695H621.62v-30.695zm-116.413-3.104h78.069v82.256h-78.069v-82.256z" fill="#333"/><path d="M517.47 689.334h53.371v35.524H517.47v-35.524zm-273.589 32.248h78.07v79.497h-78.07v-79.497z" fill="#333"/><path d="M256.144 714.512h53.371v34.316h-53.371v-34.316zm157.003-157.097h87.224v221.246h-87.224V557.415z" fill="#333"/><path opacity=".46" d="M474.981 567.417h21.072v3.966h-21.072v-3.966z" fill="#E6E6E6"/><path opacity=".34" d="M446.136 567.417h21.072v3.966h-21.072v-3.966z" fill="#E6E6E6"/><path opacity=".52" d="M417.465 567.417h21.072v3.966h-21.072v-3.966z" fill="#E6E6E6"/><path opacity=".54" d="M474.981 576.557h21.072v3.966h-21.072v-3.966z" fill="#E6E6E6"/><path opacity=".3" d="M446.136 576.557h21.072v3.966h-21.072v-3.966z" fill="#E6E6E6"/><path opacity=".06" d="M417.465 576.557h21.072v3.966h-21.072v-3.966z" fill="#E6E6E6"/><path opacity=".15" d="M474.981 585.696h21.072v3.966h-21.072v-3.966z" fill="#E6E6E6"/><path opacity=".42" d="M446.136 585.696h21.072v3.966h-21.072v-3.966z" fill="#E6E6E6"/><path opacity=".48" d="M417.465 585.696h21.072v3.966h-21.072v-3.966z" fill="#E6E6E6"/><path opacity=".18" d="M474.981 594.835h21.072v3.967h-21.072v-3.967z" fill="#E6E6E6"/><path opacity=".28" d="M417.465 594.835h21.072v3.967h-21.072v-3.967z" fill="#E6E6E6"/><path opacity=".29" d="M474.981 603.975h21.072v3.966h-21.072v-3.966z" fill="#E6E6E6"/><path opacity=".28" d="M446.136 603.975h21.072v3.966h-21.072v-3.966z" fill="#E6E6E6"/><path opacity=".56" d="M417.465 603.975h21.072v3.966h-21.072v-3.966z" fill="#E6E6E6"/><path opacity=".41" d="M474.981 613.115h21.072v3.966h-21.072v-3.966z" fill="#E6E6E6"/><path opacity=".16" d="M446.136 613.115h21.072v3.966h-21.072v-3.966z" fill="#E6E6E6"/><path opacity=".4" d="M417.465 613.115h21.072v3.966h-21.072v-3.966z" fill="#E6E6E6"/><path opacity=".1" d="M474.981 622.254h21.072v3.967h-21.072v-3.967z" fill="#E6E6E6"/><path opacity=".17" d="M446.136 622.254h21.072v3.967h-21.072v-3.967z" fill="#E6E6E6"/><path opacity=".08" d="M417.465 622.254h21.072v3.967h-21.072v-3.967z" fill="#E6E6E6"/><path opacity=".49" d="M474.981 631.394h21.072v3.966h-21.072v-3.966z" fill="#E6E6E6"/><path opacity=".58" d="M446.136 631.394h21.072v3.966h-21.072v-3.966zm-28.671 0h21.072v3.966h-21.072v-3.966z" fill="#E6E6E6"/><path opacity=".26" d="M474.981 640.533h21.072v3.967h-21.072v-3.967z" fill="#E6E6E6"/><path opacity=".37" d="M446.136 640.533h21.072v3.967h-21.072v-3.967z" fill="#E6E6E6"/><path opacity=".34" d="M417.465 640.533h21.072v3.967h-21.072v-3.967z" fill="#E6E6E6"/><path opacity=".55" d="M474.981 649.673h21.072v3.966h-21.072v-3.966z" fill="#E6E6E6"/><path opacity=".12" d="M446.136 649.673h21.072v3.966h-21.072v-3.966z" fill="#E6E6E6"/><path opacity=".6" d="M417.465 649.673h21.072v3.966h-21.072v-3.966z" fill="#E6E6E6"/><path opacity=".02" d="M474.981 658.812h21.072v3.967h-21.072v-3.967z" fill="#E6E6E6"/><path opacity=".28" d="M446.136 658.812h21.072v3.967h-21.072v-3.967z" fill="#E6E6E6"/><path opacity=".21" d="M417.465 658.812h21.072v3.967h-21.072v-3.967z" fill="#E6E6E6"/><path opacity=".57" d="M474.981 667.952h21.072v3.966h-21.072v-3.966z" fill="#E6E6E6"/><path opacity=".38" d="M446.136 667.952h21.072v3.966h-21.072v-3.966z" fill="#E6E6E6"/><path opacity=".25" d="M417.465 667.952h21.072v3.966h-21.072v-3.966z" fill="#E6E6E6"/><path opacity=".15" d="M474.981 677.092h21.072v3.966h-21.072v-3.966z" fill="#E6E6E6"/><path opacity=".47" d="M446.136 677.092h21.072v3.966h-21.072v-3.966z" fill="#E6E6E6"/><path opacity=".3" d="M417.465 677.092h21.072v3.966h-21.072v-3.966z" fill="#E6E6E6"/><path opacity=".4" d="M474.981 686.231h21.072v3.966h-21.072v-3.966z" fill="#E6E6E6"/><path opacity=".39" d="M446.136 686.231h21.072v3.966h-21.072v-3.966z" fill="#E6E6E6"/><path opacity=".24" d="M417.465 686.231h21.072v3.966h-21.072v-3.966z" fill="#E6E6E6"/><path opacity=".46" d="M474.981 695.371h21.072v3.966h-21.072v-3.966z" fill="#E6E6E6"/><path opacity=".22" d="M446.136 695.371h21.072v3.966h-21.072v-3.966z" fill="#E6E6E6"/><path opacity=".11" d="M417.465 695.371h21.072v3.966h-21.072v-3.966zm28.671 9.139h21.072v3.967h-21.072v-3.967z" fill="#E6E6E6"/><path opacity=".02" d="M417.465 704.51h21.072v3.967h-21.072v-3.967z" fill="#E6E6E6"/><path opacity=".27" d="M474.981 713.65h21.072v3.966h-21.072v-3.966z" fill="#E6E6E6"/><path opacity=".21" d="M446.136 713.65h21.072v3.966h-21.072v-3.966z" fill="#E6E6E6"/><path opacity=".49" d="M417.465 713.65h21.072v3.966h-21.072v-3.966z" fill="#E6E6E6"/><path opacity=".6" d="M474.981 722.79h21.072v3.966h-21.072v-3.966z" fill="#E6E6E6"/><path opacity=".31" d="M446.136 722.79h21.072v3.966h-21.072v-3.966z" fill="#E6E6E6"/><path opacity=".22" d="M417.465 722.79h21.072v3.966h-21.072v-3.966z" fill="#E6E6E6"/><path opacity=".54" d="M474.981 731.929h21.072v3.966h-21.072v-3.966z" fill="#E6E6E6"/><path opacity=".6" d="M446.136 731.929h21.072v3.966h-21.072v-3.966z" fill="#E6E6E6"/><path opacity=".08" d="M417.465 731.929h21.072v3.966h-21.072v-3.966z" fill="#E6E6E6"/><path opacity=".55" d="M446.136 741.069h21.072v3.966h-21.072v-3.966z" fill="#E6E6E6"/><path d="M417.465 741.069h21.072v3.966h-21.072v-3.966z" fill="#E6E6E6"/><path opacity=".6" d="M473.599 567.417h1.382v177.618h-1.382V567.417zm-35.062 0h1.382v177.618h-1.382V567.417z" fill="#E6E6E6"/><path d="M369.621 557.415h43.526v221.246h-43.526V557.415z" fill="#4D4D4D"/><path opacity=".69" d="M376.012 567.417h32.817v3.966h-32.817v-3.966z" fill="#E6E6E6"/><path opacity=".79" d="M376.012 576.557h32.817v3.966h-32.817v-3.966z" fill="#E6E6E6"/><path opacity=".19" d="M376.012 585.696h32.817v3.966h-32.817v-3.966z" fill="#E6E6E6"/><path opacity=".88" d="M376.012 594.835h32.817v3.967h-32.817v-3.967z" fill="#E6E6E6"/><path opacity=".5" d="M376.012 603.975h32.817v3.966h-32.817v-3.966z" fill="#E6E6E6"/><path opacity=".25" d="M376.012 613.115h32.817v3.966h-32.817v-3.966z" fill="#E6E6E6"/><path opacity=".91" d="M376.012 622.254h32.817v3.967h-32.817v-3.967z" fill="#E6E6E6"/><path opacity=".02" d="M376.012 631.394h32.817v3.966h-32.817v-3.966z" fill="#E6E6E6"/><path opacity=".53" d="M376.012 640.533h32.817v3.967h-32.817v-3.967z" fill="#E6E6E6"/><path opacity=".65" d="M376.012 649.673h32.817v3.966h-32.817v-3.966z" fill="#E6E6E6"/><path d="M376.012 658.812h32.817v3.967h-32.817v-3.967z" fill="#E6E6E6"/><path opacity=".8" d="M376.012 667.952h32.817v3.966h-32.817v-3.966z" fill="#E6E6E6"/><path opacity=".82" d="M376.012 677.092h32.817v3.966h-32.817v-3.966z" fill="#E6E6E6"/><path opacity=".75" d="M376.012 686.231h32.817v3.966h-32.817v-3.966z" fill="#E6E6E6"/><path opacity=".31" d="M376.012 695.371h32.817v3.966h-32.817v-3.966z" fill="#E6E6E6"/><path opacity=".22" d="M376.012 704.51h32.817v3.967h-32.817v-3.967z" fill="#E6E6E6"/><path opacity=".43" d="M376.012 713.65h32.817v3.966h-32.817v-3.966z" fill="#E6E6E6"/><path opacity=".68" d="M376.012 722.79h32.817v3.966h-32.817v-3.966z" fill="#E6E6E6"/><path opacity=".38" d="M376.012 731.929h32.817v3.966h-32.817v-3.966z" fill="#E6E6E6"/><path opacity=".84" d="M376.012 741.069h32.817v3.966h-32.817v-3.966z" fill="#E6E6E6"/><path d="M484.999 545.689v11.726h-56.48v-11.726h56.48zm-12.609 7.932h5.872v-3.966h-5.872v3.966zm-9.154 0h5.7v-3.966h-5.7v3.966zm-9.327 0h5.7v-3.966h-5.7v3.966zm-9.327 0h5.872v-3.966h-5.872v3.966zm-9.327 0h5.873v-3.966h-5.873v3.966zm-17.099-3.966h1.554v3.966h-1.554v-3.966z" fill="#333"/><path d="M428.519 545.689v11.726H401.92v-11.726h26.599zm-10.363 7.932h5.7v-3.966h-5.7v3.966zm-12.263 0h5.699v-3.966h-5.699v3.966z" fill="#4D4D4D"/><path d="M406.065 549.655h1.555v3.966h-1.555v-3.966zm-4.49 244.008h117.449l-117.449-86.567v86.567z" fill="#333"/><path d="M576.713 510.51h9.5v36.041h-9.5V510.51z" fill="#4D4D4D"/><path d="M586.04 510.51h9.672v36.041h-9.672V510.51z" fill="#333"/><path d="M566.868 510.51h9.672v36.041h-9.672V510.51zm-27.981 60.7h26.945v205.554h-26.945V571.21z" fill="#666"/><path d="M597.439 571.21h23.49v205.554h-23.49V571.21z" fill="#333"/><path d="M565.832 571.21h31.78v205.554h-31.78V571.21z" fill="#4D4D4D"/><path opacity=".6" d="M614.193 577.246h3.455v196.759h-3.455V577.246zm-6.736 0h3.455v196.759h-3.455V577.246zm-6.736 0h3.454v196.759h-3.454V577.246z" fill="#E6E6E6"/><path d="M560.477 577.246h3.455v196.759h-3.455V577.246zm-6.736 0h3.455v196.759h-3.455V577.246zm-13.126 0h3.454v196.759h-3.454V577.246zm6.39 0h3.455v196.759h-3.455V577.246z" fill="#E6E6E6"/><path opacity=".8" d="M593.64 774.005h-23.836V577.246h23.836v196.759zm-3.8-193.31h-16.236v189.861h16.236V580.695z" fill="#E6E6E6"/><path opacity=".8" d="M586.731 767.28H576.54V583.799h10.191V767.28zm-3.455-179.17h-3.281v174.858h3.281V588.11z" fill="#E6E6E6"/><path opacity=".8" d="M581.376 588.11h.691v174.859h-.691V588.11z" fill="#E6E6E6"/><path d="M569.459 535.169h23.835v36.041h-23.835v-36.041z" fill="#4D4D4D"/><path d="M569.459 535.169h23.835v36.041h-23.835v-36.041z" fill="#4D4D4D"/><path d="M545.623 535.169h23.836v36.041h-23.836v-36.041z" fill="#666"/><path d="M593.294 535.169h23.836v36.041h-23.836v-36.041z" fill="#333"/><path d="M567.041 510.51h28.671l-9.499 6.553h-9.673l-9.499-6.553z" fill="gray"/><path d="M54.58 497.232h13.817v40.524H54.58v-40.524z" fill="#4D4D4D"/><path d="M68.57 497.232h13.818v40.524H68.57v-40.524z" fill="#333"/><path d="M40.762 497.232H54.58v40.524H40.762v-40.524zM0 565.692h39.035v231.593H0V565.692z" fill="#666"/><path d="M84.978 565.692h33.854v231.593H84.979V565.692z" fill="#333"/><path d="M39.035 565.692h45.943v231.593H39.035V565.692z" fill="#4D4D4D"/><path opacity=".4" d="M109.159 572.59h5.009v221.591h-5.009V572.59zm-9.845 0h5.009v221.591h-5.009V572.59zm-9.845 0h5.009v221.591h-5.009V572.59z" fill="#E6E6E6"/><path d="M31.262 572.59h5.01v221.591h-5.01V572.59zm-9.845 0h5.01v221.591h-5.01V572.59zm-18.827 0H7.6v221.591H2.59V572.59zm9.155 0h5.009v221.591h-5.01V572.59zm67.361 221.591H44.562V572.59h34.544v221.591zm-5.354-217.797h-23.49v214.003h23.49V576.384z" fill="#E6E6E6"/><path d="M69.434 786.766H54.58V580.005h14.854v206.761zm-5.182-201.932h-4.664v197.104h4.664V584.834z" fill="#E6E6E6"/><path d="M61.488 584.833h.864v197.104h-.864V584.833z" fill="#E6E6E6"/><path d="M44.216 525.168H78.76v40.524H44.216v-40.524z" fill="#4D4D4D"/><path d="M44.216 525.168H78.76v40.524H44.216v-40.524z" fill="#4D4D4D"/><path d="M9.672 525.168h34.544v40.524H9.672v-40.524z" fill="#666"/><path d="M78.588 525.168h34.544v40.524H78.588v-40.524z" fill="#333"/><path d="M40.59 497.232h41.798l-13.99 7.415H54.58l-13.99-7.415z" fill="gray"/><path d="M154.239 597.766h94.478v31.385h-94.478v-31.385z" fill="#E6E6E6"/><path d="M211.582 597.766h37.135v31.385h-37.135v-31.385z" fill="#B3B3B3"/><path d="M211.582 629.324h73.407v152.441h-73.407V629.324z" fill="#333"/><path d="M96.896 629.324h114.686v152.441H96.896V629.324z" fill="#4D4D4D"/><path d="M220.564 613.803h56.479v15.52h-56.479v-15.52z" fill="#333"/><path d="M113.995 613.803h80.661v15.52h-80.661v-15.52z" fill="#4D4D4D"/><path d="M179.284 585.867h32.298v11.899h-32.298v-11.899z" fill="#E6E6E6"/><path d="M195.519 573.796h16.063v11.899h-16.063v-11.899z" fill="#4D4D4D"/><path d="M211.755 573.796h16.063v11.899h-16.063v-11.899z" fill="#333"/><path d="M211.582 585.867h24.699v11.899h-24.699v-11.899z" fill="#B3B3B3"/><path d="M212.619 573.796l-1.037-27.591-.863 27.591h1.9z" fill="#333"/><path opacity=".12" d="M261.844 635.531h6.045v6.036h-6.045v-6.036z" fill="#fff"/><path opacity=".25" d="M253.553 635.531h6.046v6.036h-6.046v-6.036z" fill="#fff"/><path opacity=".36" d="M245.263 635.531h6.045v6.036h-6.045v-6.036z" fill="#fff"/><path opacity=".12" d="M236.972 635.531h6.046v6.036h-6.046v-6.036z" fill="#fff"/><path opacity=".14" d="M228.682 635.531h6.045v6.036h-6.045v-6.036z" fill="#fff"/><path opacity=".28" d="M261.844 643.464h6.045v6.035h-6.045v-6.035z" fill="#fff"/><path opacity=".4" d="M253.553 643.464h6.046v6.035h-6.046v-6.035z" fill="#fff"/><path opacity=".16" d="M245.263 643.464h6.045v6.035h-6.045v-6.035z" fill="#fff"/><path opacity=".17" d="M228.682 643.464h6.045v6.035h-6.045v-6.035z" fill="#fff"/><path opacity=".27" d="M261.844 651.396h6.045v6.036h-6.045v-6.036z" fill="#fff"/><path opacity=".45" d="M253.553 651.396h6.046v6.036h-6.046v-6.036zm-8.29 0h6.045v6.036h-6.045v-6.036z" fill="#fff"/><path opacity=".48" d="M236.972 651.396h6.046v6.036h-6.046v-6.036z" fill="#fff"/><path opacity=".25" d="M228.682 651.396h6.045v6.036h-6.045v-6.036z" fill="#fff"/><path opacity=".28" d="M261.844 659.329h6.045v6.035h-6.045v-6.035z" fill="#fff"/><path opacity=".13" d="M253.553 659.329h6.046v6.035h-6.046v-6.035z" fill="#fff"/><path opacity=".07" d="M245.263 659.329h6.045v6.035h-6.045v-6.035z" fill="#fff"/><path opacity=".39" d="M236.972 659.329h6.046v6.035h-6.046v-6.035z" fill="#fff"/><path opacity=".47" d="M228.682 659.329h6.045v6.035h-6.045v-6.035z" fill="#fff"/><path opacity=".28" d="M261.844 667.261h6.045v6.035h-6.045v-6.035z" fill="#fff"/><path opacity=".2" d="M253.553 667.261h6.046v6.035h-6.046v-6.035z" fill="#fff"/><path opacity=".04" d="M245.263 667.261h6.045v6.035h-6.045v-6.035z" fill="#fff"/><path opacity=".43" d="M236.972 667.261h6.046v6.035h-6.046v-6.035z" fill="#fff"/><path opacity=".48" d="M228.682 667.261h6.045v6.035h-6.045v-6.035z" fill="#fff"/><path opacity=".28" d="M261.844 675.193h6.045v6.036h-6.045v-6.036z" fill="#fff"/><path opacity=".19" d="M253.553 675.193h6.046v6.036h-6.046v-6.036z" fill="#fff"/><path opacity=".01" d="M245.263 675.193h6.045v6.036h-6.045v-6.036z" fill="#fff"/><path opacity=".27" d="M236.972 675.193h6.046v6.036h-6.046v-6.036z" fill="#fff"/><path opacity=".24" d="M228.682 675.193h6.045v6.036h-6.045v-6.036z" fill="#fff"/><path opacity=".07" d="M261.844 683.298h6.045v6.036h-6.045v-6.036z" fill="#fff"/><path opacity=".25" d="M253.553 683.298h6.046v6.036h-6.046v-6.036z" fill="#fff"/><path opacity=".26" d="M245.263 683.298h6.045v6.036h-6.045v-6.036z" fill="#fff"/><path opacity=".39" d="M236.972 683.298h6.046v6.036h-6.046v-6.036z" fill="#fff"/><path opacity=".22" d="M228.682 683.298h6.045v6.036h-6.045v-6.036z" fill="#fff"/><path opacity=".15" d="M261.844 691.231h6.045v6.035h-6.045v-6.035z" fill="#fff"/><path opacity=".23" d="M253.553 691.231h6.046v6.035h-6.046v-6.035z" fill="#fff"/><path opacity=".05" d="M245.263 691.231h6.045v6.035h-6.045v-6.035z" fill="#fff"/><path opacity=".2" d="M236.972 691.231h6.046v6.035h-6.046v-6.035z" fill="#fff"/><path opacity=".31" d="M228.682 691.231h6.045v6.035h-6.045v-6.035z" fill="#fff"/><path opacity=".15" d="M261.844 699.163h6.045v6.036h-6.045v-6.036z" fill="#fff"/><path opacity=".33" d="M253.553 699.163h6.046v6.036h-6.046v-6.036z" fill="#fff"/><path opacity=".46" d="M245.263 699.163h6.045v6.036h-6.045v-6.036z" fill="#fff"/><path opacity=".25" d="M236.972 699.163h6.046v6.036h-6.046v-6.036z" fill="#fff"/><path opacity=".43" d="M228.682 699.163h6.045v6.036h-6.045v-6.036z" fill="#fff"/><path opacity=".4" d="M261.844 707.096h6.045v6.035h-6.045v-6.035z" fill="#fff"/><path opacity=".39" d="M253.553 707.096h6.046v6.035h-6.046v-6.035z" fill="#fff"/><path opacity=".01" d="M245.263 707.096h6.045v6.035h-6.045v-6.035z" fill="#fff"/><path opacity=".12" d="M236.972 707.096h6.046v6.035h-6.046v-6.035z" fill="#fff"/><path opacity=".07" d="M228.682 707.096h6.045v6.035h-6.045v-6.035zm33.162 7.932h6.045v6.036h-6.045v-6.036z" fill="#fff"/><path opacity=".02" d="M253.553 715.028h6.046v6.036h-6.046v-6.036z" fill="#fff"/><path opacity=".12" d="M245.263 715.028h6.045v6.036h-6.045v-6.036z" fill="#fff"/><path opacity=".23" d="M236.972 715.028h6.046v6.036h-6.046v-6.036z" fill="#fff"/><path opacity=".26" d="M228.682 715.028h6.045v6.036h-6.045v-6.036z" fill="#fff"/><path opacity=".27" d="M261.844 722.961h6.045v6.035h-6.045v-6.035z" fill="#fff"/><path opacity=".38" d="M253.553 722.961h6.046v6.035h-6.046v-6.035z" fill="#fff"/><path opacity=".05" d="M245.263 722.961h6.045v6.035h-6.045v-6.035z" fill="#fff"/><path opacity=".45" d="M236.972 722.961h6.046v6.035h-6.046v-6.035z" fill="#fff"/><path opacity=".15" d="M228.682 722.961h6.045v6.035h-6.045v-6.035z" fill="#fff"/><path opacity=".06" d="M261.844 730.893h6.045v6.036h-6.045v-6.036z" fill="#fff"/><path opacity=".47" d="M253.553 730.893h6.046v6.036h-6.046v-6.036z" fill="#fff"/><path opacity=".15" d="M245.263 730.893h6.045v6.036h-6.045v-6.036z" fill="#fff"/><path opacity=".44" d="M236.972 730.893h6.046v6.036h-6.046v-6.036z" fill="#fff"/><path opacity=".14" d="M228.682 730.893h6.045v6.036h-6.045v-6.036z" fill="#fff"/><path opacity=".15" d="M261.844 738.826h6.045v6.035h-6.045v-6.035z" fill="#fff"/><path opacity=".43" d="M253.553 738.826h6.046v6.035h-6.046v-6.035z" fill="#fff"/><path opacity=".07" d="M245.263 738.826h6.045v6.035h-6.045v-6.035z" fill="#fff"/><path opacity=".47" d="M236.972 738.826h6.046v6.035h-6.046v-6.035z" fill="#fff"/><path opacity=".11" d="M228.682 738.826h6.045v6.035h-6.045v-6.035z" fill="#fff"/><path opacity=".07" d="M261.844 746.758h6.045v6.036h-6.045v-6.036z" fill="#fff"/><path opacity=".34" d="M253.553 746.758h6.046v6.036h-6.046v-6.036z" fill="#fff"/><path opacity=".5" d="M245.263 746.758h6.045v6.036h-6.045v-6.036z" fill="#fff"/><path opacity=".36" d="M236.972 746.758h6.046v6.036h-6.046v-6.036z" fill="#fff"/><path opacity=".34" d="M228.682 746.758h6.045v6.036h-6.045v-6.036z" fill="#fff"/><path opacity=".47" d="M261.844 754.69h6.045v6.036h-6.045v-6.036z" fill="#fff"/><path opacity=".41" d="M253.553 754.69h6.046v6.036h-6.046v-6.036z" fill="#fff"/><path opacity=".3" d="M245.263 754.69h6.045v6.036h-6.045v-6.036z" fill="#fff"/><path opacity=".33" d="M236.972 754.69h6.046v6.036h-6.046v-6.036z" fill="#fff"/><path opacity=".12" d="M228.682 754.69h6.045v6.036h-6.045v-6.036z" fill="#fff"/><path opacity=".24" d="M261.844 762.623h6.045v6.035h-6.045v-6.035z" fill="#fff"/><path opacity=".29" d="M253.553 762.623h6.046v6.035h-6.046v-6.035z" fill="#fff"/><path opacity=".27" d="M236.972 762.623h6.046v6.035h-6.046v-6.035z" fill="#fff"/><path opacity=".04" d="M228.682 762.623h6.045v6.035h-6.045v-6.035z" fill="#fff"/><path opacity=".11" d="M261.844 770.555h6.045v6.036h-6.045v-6.036z" fill="#fff"/><path opacity=".05" d="M253.553 770.555h6.046v6.036h-6.046v-6.036z" fill="#fff"/><path opacity=".04" d="M245.263 770.555h6.045v6.036h-6.045v-6.036z" fill="#fff"/><path opacity=".02" d="M236.972 770.555h6.046v6.036h-6.046v-6.036z" fill="#fff"/><path opacity=".3" d="M191.547 635.531h6.045v6.036h-6.045v-6.036z" fill="#fff"/><path opacity=".72" d="M183.602 635.531h6.045v6.036h-6.045v-6.036z" fill="#fff"/><path opacity=".7" d="M175.484 635.531h6.045v6.036h-6.045v-6.036z" fill="#fff"/><path opacity=".52" d="M167.366 635.531h6.045v6.036h-6.045v-6.036z" fill="#fff"/><path opacity=".2" d="M159.248 635.531h6.046v6.036h-6.046v-6.036z" fill="#fff"/><path opacity=".32" d="M151.303 635.531h6.045v6.036h-6.045v-6.036z" fill="#fff"/><path opacity=".13" d="M143.185 635.531h6.045v6.036h-6.045v-6.036z" fill="#fff"/><path opacity=".38" d="M135.067 635.531h6.046v6.036h-6.046v-6.036z" fill="#fff"/><path opacity=".61" d="M127.122 635.531h6.045v6.036h-6.045v-6.036z" fill="#fff"/><path d="M119.004 635.531h6.046v6.036h-6.046v-6.036z" fill="#fff"/><path opacity=".91" d="M110.887 635.531h6.045v6.036h-6.045v-6.036z" fill="#fff"/><path opacity=".66" d="M191.547 643.464h6.045v6.035h-6.045v-6.035z" fill="#fff"/><path opacity=".31" d="M183.602 643.464h6.045v6.035h-6.045v-6.035z" fill="#fff"/><path opacity=".95" d="M175.484 643.464h6.045v6.035h-6.045v-6.035z" fill="#fff"/><path opacity=".7" d="M167.366 643.464h6.045v6.035h-6.045v-6.035z" fill="#fff"/><path opacity=".12" d="M159.248 643.464h6.046v6.035h-6.046v-6.035z" fill="#fff"/><path opacity=".24" d="M151.303 643.464h6.045v6.035h-6.045v-6.035z" fill="#fff"/><path opacity=".66" d="M143.185 643.464h6.045v6.035h-6.045v-6.035z" fill="#fff"/><path opacity=".71" d="M135.067 643.464h6.046v6.035h-6.046v-6.035z" fill="#fff"/><path opacity=".42" d="M127.122 643.464h6.045v6.035h-6.045v-6.035z" fill="#fff"/><path opacity=".09" d="M119.004 643.464h6.046v6.035h-6.046v-6.035z" fill="#fff"/><path opacity=".32" d="M110.887 643.464h6.045v6.035h-6.045v-6.035z" fill="#fff"/><path opacity=".65" d="M191.547 651.396h6.045v6.036h-6.045v-6.036z" fill="#fff"/><path d="M183.602 651.396h6.045v6.036h-6.045v-6.036zm-8.118 0h6.045v6.036h-6.045v-6.036z" fill="#fff"/><path opacity=".71" d="M167.366 651.396h6.045v6.036h-6.045v-6.036z" fill="#fff"/><path opacity=".2" d="M159.248 651.396h6.046v6.036h-6.046v-6.036z" fill="#fff"/><path opacity=".19" d="M151.303 651.396h6.045v6.036h-6.045v-6.036z" fill="#fff"/><path opacity=".62" d="M143.185 651.396h6.045v6.036h-6.045v-6.036z" fill="#fff"/><path opacity=".93" d="M135.067 651.396h6.046v6.036h-6.046v-6.036z" fill="#fff"/><path opacity=".56" d="M127.122 651.396h6.045v6.036h-6.045v-6.036z" fill="#fff"/><path opacity=".57" d="M119.004 651.396h6.046v6.036h-6.046v-6.036z" fill="#fff"/><path opacity=".52" d="M110.887 651.396h6.045v6.036h-6.045v-6.036z" fill="#fff"/><path opacity=".74" d="M191.547 659.329h6.045v6.035h-6.045v-6.035z" fill="#fff"/><path opacity=".56" d="M183.602 659.329h6.045v6.035h-6.045v-6.035z" fill="#fff"/><path opacity=".78" d="M175.484 659.329h6.045v6.035h-6.045v-6.035z" fill="#fff"/><path opacity=".41" d="M167.366 659.329h6.045v6.035h-6.045v-6.035z" fill="#fff"/><path opacity=".14" d="M159.248 659.329h6.046v6.035h-6.046v-6.035z" fill="#fff"/><path opacity=".28" d="M151.303 659.329h6.045v6.035h-6.045v-6.035z" fill="#fff"/><path opacity=".36" d="M143.185 659.329h6.045v6.035h-6.045v-6.035z" fill="#fff"/><path opacity=".14" d="M135.067 659.329h6.046v6.035h-6.046v-6.035z" fill="#fff"/><path opacity=".5" d="M127.122 659.329h6.045v6.035h-6.045v-6.035z" fill="#fff"/><path opacity=".98" d="M119.004 659.329h6.046v6.035h-6.046v-6.035z" fill="#fff"/><path opacity=".59" d="M110.887 659.329h6.045v6.035h-6.045v-6.035z" fill="#fff"/><path opacity=".07" d="M191.547 667.261h6.045v6.035h-6.045v-6.035z" fill="#fff"/><path opacity=".1" d="M183.602 667.261h6.045v6.035h-6.045v-6.035z" fill="#fff"/><path opacity=".88" d="M175.484 667.261h6.045v6.035h-6.045v-6.035z" fill="#fff"/><path opacity=".68" d="M167.366 667.261h6.045v6.035h-6.045v-6.035z" fill="#fff"/><path opacity=".81" d="M159.248 667.261h6.046v6.035h-6.046v-6.035z" fill="#fff"/><path opacity=".62" d="M151.303 667.261h6.045v6.035h-6.045v-6.035z" fill="#fff"/><path opacity=".97" d="M143.185 667.261h6.045v6.035h-6.045v-6.035z" fill="#fff"/><path opacity=".81" d="M135.067 667.261h6.046v6.035h-6.046v-6.035z" fill="#fff"/><path opacity=".79" d="M127.122 667.261h6.045v6.035h-6.045v-6.035z" fill="#fff"/><path opacity=".03" d="M119.004 667.261h6.046v6.035h-6.046v-6.035z" fill="#fff"/><path opacity=".95" d="M110.887 667.261h6.045v6.035h-6.045v-6.035z" fill="#fff"/><path opacity=".62" d="M191.547 675.193h6.045v6.036h-6.045v-6.036z" fill="#fff"/><path opacity=".22" d="M183.602 675.193h6.045v6.036h-6.045v-6.036z" fill="#fff"/><path opacity=".42" d="M175.484 675.193h6.045v6.036h-6.045v-6.036z" fill="#fff"/><path opacity=".56" d="M167.366 675.193h6.045v6.036h-6.045v-6.036z" fill="#fff"/><path opacity=".03" d="M159.248 675.193h6.046v6.036h-6.046v-6.036z" fill="#fff"/><path opacity=".64" d="M151.303 675.193h6.045v6.036h-6.045v-6.036z" fill="#fff"/><path opacity=".82" d="M143.185 675.193h6.045v6.036h-6.045v-6.036z" fill="#fff"/><path opacity=".52" d="M135.067 675.193h6.046v6.036h-6.046v-6.036z" fill="#fff"/><path opacity=".46" d="M127.122 675.193h6.045v6.036h-6.045v-6.036z" fill="#fff"/><path opacity=".27" d="M119.004 675.193h6.046v6.036h-6.046v-6.036z" fill="#fff"/><path opacity=".46" d="M110.887 675.193h6.045v6.036h-6.045v-6.036z" fill="#fff"/><path opacity=".66" d="M191.547 683.298h6.045v6.036h-6.045v-6.036z" fill="#fff"/><path opacity=".7" d="M183.602 683.298h6.045v6.036h-6.045v-6.036z" fill="#fff"/><path opacity=".94" d="M175.484 683.298h6.045v6.036h-6.045v-6.036z" fill="#fff"/><path opacity=".5" d="M167.366 683.298h6.045v6.036h-6.045v-6.036z" fill="#fff"/><path opacity=".12" d="M159.248 683.298h6.046v6.036h-6.046v-6.036z" fill="#fff"/><path opacity=".36" d="M151.303 683.298h6.045v6.036h-6.045v-6.036z" fill="#fff"/><path opacity=".51" d="M143.185 683.298h6.045v6.036h-6.045v-6.036z" fill="#fff"/><path opacity=".37" d="M135.067 683.298h6.046v6.036h-6.046v-6.036z" fill="#fff"/><path opacity=".66" d="M127.122 683.298h6.045v6.036h-6.045v-6.036z" fill="#fff"/><path opacity=".42" d="M119.004 683.298h6.046v6.036h-6.046v-6.036z" fill="#fff"/><path opacity=".5" d="M110.887 683.298h6.045v6.036h-6.045v-6.036z" fill="#fff"/><path opacity=".52" d="M191.547 691.231h6.045v6.035h-6.045v-6.035z" fill="#fff"/><path opacity=".61" d="M183.602 691.231h6.045v6.035h-6.045v-6.035z" fill="#fff"/><path opacity=".84" d="M175.484 691.231h6.045v6.035h-6.045v-6.035z" fill="#fff"/><path opacity=".89" d="M167.366 691.231h6.045v6.035h-6.045v-6.035z" fill="#fff"/><path opacity=".33" d="M159.248 691.231h6.046v6.035h-6.046v-6.035z" fill="#fff"/><path opacity=".25" d="M151.303 691.231h6.045v6.035h-6.045v-6.035z" fill="#fff"/><path opacity=".95" d="M143.185 691.231h6.045v6.035h-6.045v-6.035z" fill="#fff"/><path opacity=".09" d="M135.067 691.231h6.046v6.035h-6.046v-6.035z" fill="#fff"/><path opacity=".44" d="M127.122 691.231h6.045v6.035h-6.045v-6.035z" fill="#fff"/><path opacity=".51" d="M119.004 691.231h6.046v6.035h-6.046v-6.035z" fill="#fff"/><path opacity=".97" d="M110.887 691.231h6.045v6.035h-6.045v-6.035z" fill="#fff"/><path opacity=".26" d="M191.547 699.163h6.045v6.036h-6.045v-6.036z" fill="#fff"/><path opacity=".92" d="M183.602 699.163h6.045v6.036h-6.045v-6.036z" fill="#fff"/><path opacity=".33" d="M175.484 699.163h6.045v6.036h-6.045v-6.036z" fill="#fff"/><path opacity=".23" d="M167.366 699.163h6.045v6.036h-6.045v-6.036z" fill="#fff"/><path opacity=".42" d="M159.248 699.163h6.046v6.036h-6.046v-6.036z" fill="#fff"/><path opacity=".57" d="M151.303 699.163h6.045v6.036h-6.045v-6.036z" fill="#fff"/><path opacity=".73" d="M143.185 699.163h6.045v6.036h-6.045v-6.036z" fill="#fff"/><path opacity=".87" d="M135.067 699.163h6.046v6.036h-6.046v-6.036z" fill="#fff"/><path opacity=".22" d="M127.122 699.163h6.045v6.036h-6.045v-6.036z" fill="#fff"/><path opacity=".89" d="M119.004 699.163h6.046v6.036h-6.046v-6.036z" fill="#fff"/><path opacity=".73" d="M110.887 699.163h6.045v6.036h-6.045v-6.036z" fill="#fff"/><path opacity=".35" d="M191.547 707.096h6.045v6.035h-6.045v-6.035z" fill="#fff"/><path opacity=".81" d="M183.602 707.096h6.045v6.035h-6.045v-6.035z" fill="#fff"/><path opacity=".56" d="M175.484 707.096h6.045v6.035h-6.045v-6.035z" fill="#fff"/><path opacity=".81" d="M167.366 707.096h6.045v6.035h-6.045v-6.035z" fill="#fff"/><path opacity=".87" d="M159.248 707.096h6.046v6.035h-6.046v-6.035z" fill="#fff"/><path opacity=".39" d="M151.303 707.096h6.045v6.035h-6.045v-6.035z" fill="#fff"/><path opacity=".31" d="M143.185 707.096h6.045v6.035h-6.045v-6.035z" fill="#fff"/><path opacity=".98" d="M135.067 707.096h6.046v6.035h-6.046v-6.035z" fill="#fff"/><path opacity=".17" d="M127.122 707.096h6.045v6.035h-6.045v-6.035z" fill="#fff"/><path opacity=".06" d="M119.004 707.096h6.046v6.035h-6.046v-6.035z" fill="#fff"/><path opacity=".57" d="M110.887 707.096h6.045v6.035h-6.045v-6.035z" fill="#fff"/><path opacity=".67" d="M191.547 715.028h6.045v6.036h-6.045v-6.036z" fill="#fff"/><path opacity=".83" d="M183.602 715.028h6.045v6.036h-6.045v-6.036z" fill="#fff"/><path opacity=".99" d="M175.484 715.028h6.045v6.036h-6.045v-6.036z" fill="#fff"/><path opacity=".62" d="M167.366 715.028h6.045v6.036h-6.045v-6.036z" fill="#fff"/><path opacity=".87" d="M159.248 715.028h6.046v6.036h-6.046v-6.036z" fill="#fff"/><path opacity=".14" d="M151.303 715.028h6.045v6.036h-6.045v-6.036z" fill="#fff"/><path opacity=".12" d="M143.185 715.028h6.045v6.036h-6.045v-6.036z" fill="#fff"/><path opacity=".11" d="M135.067 715.028h6.046v6.036h-6.046v-6.036z" fill="#fff"/><path opacity=".39" d="M127.122 715.028h6.045v6.036h-6.045v-6.036z" fill="#fff"/><path opacity=".58" d="M119.004 715.028h6.046v6.036h-6.046v-6.036z" fill="#fff"/><path opacity=".54" d="M110.887 715.028h6.045v6.036h-6.045v-6.036z" fill="#fff"/><path opacity=".99" d="M191.547 722.961h6.045v6.035h-6.045v-6.035z" fill="#fff"/><path opacity=".28" d="M183.602 722.961h6.045v6.035h-6.045v-6.035z" fill="#fff"/><path opacity=".78" d="M175.484 722.961h6.045v6.035h-6.045v-6.035z" fill="#fff"/><path opacity=".65" d="M167.366 722.961h6.045v6.035h-6.045v-6.035z" fill="#fff"/><path opacity=".32" d="M159.248 722.961h6.046v6.035h-6.046v-6.035z" fill="#fff"/><path opacity=".55" d="M151.303 722.961h6.045v6.035h-6.045v-6.035z" fill="#fff"/><path opacity=".4" d="M143.185 722.961h6.045v6.035h-6.045v-6.035z" fill="#fff"/><path opacity=".22" d="M135.067 722.961h6.046v6.035h-6.046v-6.035z" fill="#fff"/><path opacity=".87" d="M127.122 722.961h6.045v6.035h-6.045v-6.035z" fill="#fff"/><path opacity=".02" d="M119.004 722.961h6.046v6.035h-6.046v-6.035z" fill="#fff"/><path opacity=".39" d="M110.887 722.961h6.045v6.035h-6.045v-6.035z" fill="#fff"/><path opacity=".89" d="M191.547 730.893h6.045v6.036h-6.045v-6.036z" fill="#fff"/><path opacity=".97" d="M183.602 730.893h6.045v6.036h-6.045v-6.036z" fill="#fff"/><path opacity=".79" d="M175.484 730.893h6.045v6.036h-6.045v-6.036z" fill="#fff"/><path opacity=".41" d="M167.366 730.893h6.045v6.036h-6.045v-6.036z" fill="#fff"/><path opacity=".13" d="M159.248 730.893h6.046v6.036h-6.046v-6.036z" fill="#fff"/><path opacity=".9" d="M151.303 730.893h6.045v6.036h-6.045v-6.036z" fill="#fff"/><path opacity=".98" d="M143.185 730.893h6.045v6.036h-6.045v-6.036z" fill="#fff"/><path opacity=".67" d="M135.067 730.893h6.046v6.036h-6.046v-6.036z" fill="#fff"/><path opacity=".65" d="M127.122 730.893h6.045v6.036h-6.045v-6.036z" fill="#fff"/><path opacity=".89" d="M119.004 730.893h6.046v6.036h-6.046v-6.036z" fill="#fff"/><path opacity=".98" d="M110.887 730.893h6.045v6.036h-6.045v-6.036z" fill="#fff"/><path opacity=".29" d="M191.547 738.826h6.045v6.035h-6.045v-6.035z" fill="#fff"/><path opacity=".74" d="M183.602 738.826h6.045v6.035h-6.045v-6.035z" fill="#fff"/><path opacity=".64" d="M175.484 738.826h6.045v6.035h-6.045v-6.035z" fill="#fff"/><path opacity=".65" d="M167.366 738.826h6.045v6.035h-6.045v-6.035z" fill="#fff"/><path opacity=".07" d="M159.248 738.826h6.046v6.035h-6.046v-6.035z" fill="#fff"/><path opacity=".16" d="M151.303 738.826h6.045v6.035h-6.045v-6.035z" fill="#fff"/><path opacity=".84" d="M143.185 738.826h6.045v6.035h-6.045v-6.035z" fill="#fff"/><path opacity=".88" d="M135.067 738.826h6.046v6.035h-6.046v-6.035z" fill="#fff"/><path opacity=".57" d="M127.122 738.826h6.045v6.035h-6.045v-6.035z" fill="#fff"/><path opacity=".31" d="M119.004 738.826h6.046v6.035h-6.046v-6.035z" fill="#fff"/><path opacity=".03" d="M110.887 738.826h6.045v6.035h-6.045v-6.035z" fill="#fff"/><path opacity=".3" d="M191.547 746.758h6.045v6.036h-6.045v-6.036z" fill="#fff"/><path opacity=".59" d="M183.602 746.758h6.045v6.036h-6.045v-6.036z" fill="#fff"/><path opacity=".93" d="M175.484 746.758h6.045v6.036h-6.045v-6.036z" fill="#fff"/><path opacity=".06" d="M167.366 746.758h6.045v6.036h-6.045v-6.036z" fill="#fff"/><path opacity=".74" d="M159.248 746.758h6.046v6.036h-6.046v-6.036z" fill="#fff"/><path opacity=".22" d="M151.303 746.758h6.045v6.036h-6.045v-6.036z" fill="#fff"/><path opacity=".51" d="M143.185 746.758h6.045v6.036h-6.045v-6.036z" fill="#fff"/><path opacity=".7" d="M135.067 746.758h6.046v6.036h-6.046v-6.036z" fill="#fff"/><path opacity=".47" d="M127.122 746.758h6.045v6.036h-6.045v-6.036z" fill="#fff"/><path opacity=".08" d="M119.004 746.758h6.046v6.036h-6.046v-6.036z" fill="#fff"/><path opacity=".93" d="M110.887 746.758h6.045v6.036h-6.045v-6.036z" fill="#fff"/><path opacity=".81" d="M191.547 754.69h6.045v6.036h-6.045v-6.036z" fill="#fff"/><path opacity=".9" d="M183.602 754.69h6.045v6.036h-6.045v-6.036z" fill="#fff"/><path opacity=".55" d="M175.484 754.69h6.045v6.036h-6.045v-6.036z" fill="#fff"/><path opacity=".14" d="M167.366 754.69h6.045v6.036h-6.045v-6.036z" fill="#fff"/><path opacity=".66" d="M159.248 754.69h6.046v6.036h-6.046v-6.036z" fill="#fff"/><path opacity=".92" d="M151.303 754.69h6.045v6.036h-6.045v-6.036z" fill="#fff"/><path opacity=".4" d="M143.185 754.69h6.045v6.036h-6.045v-6.036z" fill="#fff"/><path opacity=".6" d="M135.067 754.69h6.046v6.036h-6.046v-6.036z" fill="#fff"/><path opacity=".99" d="M127.122 754.69h6.045v6.036h-6.045v-6.036z" fill="#fff"/><path opacity=".68" d="M119.004 754.69h6.046v6.036h-6.046v-6.036z" fill="#fff"/><path opacity=".01" d="M110.887 754.69h6.045v6.036h-6.045v-6.036z" fill="#fff"/><path opacity=".82" d="M191.547 762.623h6.045v6.035h-6.045v-6.035z" fill="#fff"/><path opacity=".92" d="M183.602 762.623h6.045v6.035h-6.045v-6.035z" fill="#fff"/><path opacity=".29" d="M175.484 762.623h6.045v6.035h-6.045v-6.035z" fill="#fff"/><path opacity=".73" d="M167.366 762.623h6.045v6.035h-6.045v-6.035z" fill="#fff"/><path opacity=".42" d="M159.248 762.623h6.046v6.035h-6.046v-6.035z" fill="#fff"/><path opacity=".06" d="M151.303 762.623h6.045v6.035h-6.045v-6.035z" fill="#fff"/><path opacity=".7" d="M143.185 762.623h6.045v6.035h-6.045v-6.035z" fill="#fff"/><path opacity=".97" d="M135.067 762.623h6.046v6.035h-6.046v-6.035z" fill="#fff"/><path opacity=".51" d="M127.122 762.623h6.045v6.035h-6.045v-6.035z" fill="#fff"/><path opacity=".69" d="M119.004 762.623h6.046v6.035h-6.046v-6.035z" fill="#fff"/><path opacity=".49" d="M110.887 762.623h6.045v6.035h-6.045v-6.035z" fill="#fff"/><path opacity=".45" d="M191.547 770.555h6.045v6.036h-6.045v-6.036z" fill="#fff"/><path opacity=".46" d="M183.602 770.555h6.045v6.036h-6.045v-6.036z" fill="#fff"/><path opacity=".04" d="M175.484 770.555h6.045v6.036h-6.045v-6.036z" fill="#fff"/><path opacity=".56" d="M167.366 770.555h6.045v6.036h-6.045v-6.036z" fill="#fff"/><path opacity=".4" d="M159.248 770.555h6.046v6.036h-6.046v-6.036z" fill="#fff"/><path opacity=".59" d="M151.303 770.555h6.045v6.036h-6.045v-6.036z" fill="#fff"/><path opacity=".82" d="M143.185 770.555h6.045v6.036h-6.045v-6.036z" fill="#fff"/><path opacity=".99" d="M135.067 770.555h6.046v6.036h-6.046v-6.036z" fill="#fff"/><path opacity=".1" d="M127.122 770.555h6.045v6.036h-6.045v-6.036z" fill="#fff"/><path opacity=".87" d="M119.004 770.555h6.046v6.036h-6.046v-6.036z" fill="#fff"/><path d="M110.887 770.555h6.045v6.036h-6.045v-6.036z" fill="#fff"/><path d="M293.625 596.732h56.997v178.307h-56.997V596.732z" fill="#333"/><path d="M324.714 587.765h25.908v10.001h-25.908v-10.001z" fill="#333"/><path d="M335.596 581.902h15.026v5.863h-15.026v-5.863z" fill="#333"/><path opacity=".25" d="M317.633 609.32h9.327v9.312h-9.327v-9.312z" fill="#fff"/><path opacity=".15" d="M317.633 632.255h9.327v9.312h-9.327v-9.312z" fill="#fff"/><path opacity=".19" d="M317.633 677.953h9.327v9.312h-9.327v-9.312z" fill="#fff"/><path opacity=".17" d="M317.633 700.716h9.327v9.312h-9.327v-9.312z" fill="#fff"/><path opacity=".22" d="M317.633 723.478h9.327v9.312h-9.327v-9.312z" fill="#fff"/><path d="M317.633 746.414h9.327v9.312h-9.327v-9.312z" fill="#fff"/><path d="M335.941 696.06h53.371v15.692h-53.371V696.06z" fill="#333"/><path d="M309.342 696.06h26.599v15.692h-26.599V696.06z" fill="#4D4D4D"/><path d="M389.312 696.06l-16.582-7.933-36.789 7.933h53.371z" fill="#333"/><path d="M372.73 688.127l-36.789 7.933h-26.599l63.388-7.933z" fill="#4D4D4D"/><path d="M323.505 707.096h78.07v71.392h-78.07v-71.392z" fill="#333"/><path d="M297.597 707.096h25.908v71.392h-25.908v-71.392z" fill="#4D4D4D"/><path opacity=".81" d="M303.642 712.097h13.991v5.173h-13.991v-5.173z" fill="#fff"/><path opacity=".76" d="M303.642 721.581h13.991v5.174h-13.991v-5.174z" fill="#fff"/><path opacity=".32" d="M303.642 731.066h13.991v5.173h-13.991v-5.173z" fill="#fff"/><path opacity=".49" d="M303.642 740.723h13.991v5.173h-13.991v-5.173z" fill="#fff"/><path opacity=".99" d="M303.642 759.691h13.991v5.174h-13.991v-5.174z" fill="#fff"/><path opacity=".1" d="M375.148 712.097h13.991v5.173h-13.991v-5.173z" fill="#fff"/><path opacity=".04" d="M355.631 712.097h13.991v5.173h-13.991v-5.173z" fill="#fff"/><path opacity=".07" d="M335.941 712.097h13.99v5.173h-13.99v-5.173z" fill="#fff"/><path opacity=".06" d="M375.148 721.582h13.991v5.173h-13.991v-5.173z" fill="#fff"/><path opacity=".44" d="M355.631 721.582h13.991v5.173h-13.991v-5.173z" fill="#fff"/><path opacity=".24" d="M335.941 721.582h13.99v5.173h-13.99v-5.173z" fill="#fff"/><path opacity=".55" d="M375.148 731.066h13.991v5.173h-13.991v-5.173z" fill="#fff"/><path opacity=".02" d="M355.631 731.066h13.991v5.173h-13.991v-5.173z" fill="#fff"/><path opacity=".14" d="M335.941 731.066h13.99v5.173h-13.99v-5.173z" fill="#fff"/><path opacity=".43" d="M375.148 740.723h13.991v5.173h-13.991v-5.173z" fill="#fff"/><path opacity=".41" d="M355.631 740.723h13.991v5.173h-13.991v-5.173z" fill="#fff"/><path opacity=".46" d="M335.941 740.723h13.99v5.173h-13.99v-5.173z" fill="#fff"/><path opacity=".45" d="M375.148 750.207h13.991v5.173h-13.991v-5.173z" fill="#fff"/><path opacity=".33" d="M355.631 750.207h13.991v5.173h-13.991v-5.173z" fill="#fff"/><path opacity=".05" d="M335.941 750.207h13.99v5.173h-13.99v-5.173z" fill="#fff"/><path opacity=".27" d="M375.148 759.692h13.991v5.173h-13.991v-5.173z" fill="#fff"/><path opacity=".15" d="M355.631 759.692h13.991v5.173h-13.991v-5.173z" fill="#fff"/><path opacity=".7" d="M335.941 759.692h13.99v5.173h-13.99v-5.173z" fill="#fff"/><path d="M703.317 635.704h48.362v148.82h-48.362v-148.82z" fill="#333"/><path d="M648.219 635.704h54.925v148.82h-54.925v-148.82zm55.098 12.589h48.362v2.587h-48.362v-2.587z" fill="#4D4D4D"/><path d="M648.219 648.293h54.925v2.587h-54.925v-2.587z" fill="#333"/><path opacity=".25" d="M721.28 653.811h5.182v5.173h-5.182v-5.173z" fill="#fff"/><path opacity=".12" d="M707.117 653.811h5.181v5.173h-5.181v-5.173z" fill="#fff"/><path opacity=".47" d="M721.28 660.881h5.182v5.173h-5.182v-5.173z" fill="#fff"/><path opacity=".22" d="M714.198 660.881h5.182v5.173h-5.182v-5.173z" fill="#fff"/><path opacity=".32" d="M707.117 660.881h5.181v5.173h-5.181v-5.173z" fill="#fff"/><path opacity=".28" d="M721.28 667.951h5.182v5.174h-5.182v-5.174z" fill="#fff"/><path opacity=".2" d="M707.117 667.951h5.181v5.174h-5.181v-5.174z" fill="#fff"/><path opacity=".05" d="M721.28 675.021h5.182v5.174h-5.182v-5.174z" fill="#fff"/><path opacity=".08" d="M714.198 675.021h5.182v5.174h-5.182v-5.174zm7.082 7.071h5.182v5.173h-5.182v-5.173z" fill="#fff"/><path opacity=".02" d="M714.198 682.092h5.182v5.173h-5.182v-5.173z" fill="#fff"/><path opacity=".2" d="M721.28 689.162h5.182v5.173h-5.182v-5.173z" fill="#fff"/><path opacity=".23" d="M714.198 689.162h5.182v5.173h-5.182v-5.173z" fill="#fff"/><path opacity=".24" d="M714.198 696.232h5.182v5.174h-5.182v-5.174z" fill="#fff"/><path opacity=".02" d="M721.28 703.302h5.182v5.174h-5.182v-5.174z" fill="#fff"/><path opacity=".04" d="M714.198 703.302h5.182v5.174h-5.182v-5.174z" fill="#fff"/><path opacity=".3" d="M707.117 703.302h5.181v5.174h-5.181v-5.174z" fill="#fff"/><path opacity=".4" d="M707.117 710.2h5.181v5.174h-5.181V710.2z" fill="#fff"/><path opacity=".19" d="M714.198 717.271h5.182v5.173h-5.182v-5.173z" fill="#fff"/><path opacity=".43" d="M707.117 717.271h5.181v5.173h-5.181v-5.173z" fill="#fff"/><path opacity=".42" d="M721.28 724.341h5.182v5.173h-5.182v-5.173z" fill="#fff"/><path opacity=".31" d="M707.117 724.341h5.181v5.173h-5.181v-5.173zm14.163 7.07h5.182v5.173h-5.182v-5.173z" fill="#fff"/><path opacity=".33" d="M707.117 731.411h5.181v5.173h-5.181v-5.173z" fill="#fff"/><path opacity=".17" d="M721.28 738.481h5.182v5.174h-5.182v-5.174z" fill="#fff"/><path opacity=".01" d="M714.198 738.481h5.182v5.174h-5.182v-5.174z" fill="#fff"/><path opacity=".48" d="M707.117 738.481h5.181v5.174h-5.181v-5.174z" fill="#fff"/><path opacity=".02" d="M721.28 745.551h5.182v5.174h-5.182v-5.174z" fill="#fff"/><path opacity=".17" d="M714.198 745.551h5.182v5.174h-5.182v-5.174z" fill="#fff"/><path opacity=".42" d="M707.117 745.551h5.181v5.174h-5.181v-5.174z" fill="#fff"/><path opacity=".02" d="M721.28 752.622h5.182v5.173h-5.182v-5.173z" fill="#fff"/><path opacity=".3" d="M707.117 752.622h5.181v5.173h-5.181v-5.173z" fill="#fff"/><path opacity=".05" d="M721.28 759.692h5.182v5.173h-5.182v-5.173z" fill="#fff"/><path opacity=".2" d="M707.117 759.692h5.181v5.173h-5.181v-5.173z" fill="#fff"/><path opacity=".27" d="M721.28 766.762h5.182v5.174h-5.182v-5.174z" fill="#fff"/><path opacity=".13" d="M714.198 766.762h5.182v5.174h-5.182v-5.174z" fill="#fff"/><path opacity=".12" d="M721.28 773.832h5.182v5.174h-5.182v-5.174z" fill="#fff"/><path opacity=".04" d="M714.198 773.832h5.182v5.174h-5.182v-5.174z" fill="#fff"/><path opacity=".3" d="M707.117 773.832h5.181v5.174h-5.181v-5.174z" fill="#fff"/><path opacity=".08" d="M714.198 653.811h5.182v5.173h-5.182v-5.173zm0 14.14h5.182v5.174h-5.182v-5.174z" fill="#fff"/><path opacity=".01" d="M707.117 675.021h5.181v5.174h-5.181v-5.174z" fill="#fff"/><path opacity=".12" d="M707.117 682.092h5.181v5.173h-5.181v-5.173z" fill="#fff"/><path opacity=".13" d="M721.28 696.232h5.182v5.174h-5.182v-5.174z" fill="#fff"/><path opacity=".07" d="M707.117 696.232h5.181v5.174h-5.181v-5.174z" fill="#fff"/><path opacity=".02" d="M721.28 710.2h5.182v5.174h-5.182V710.2z" fill="#fff"/><path opacity=".14" d="M714.198 710.2h5.182v5.174h-5.182V710.2z" fill="#fff"/><path opacity=".02" d="M714.198 724.341h5.182v5.173h-5.182v-5.173z" fill="#fff"/><path opacity=".06" d="M714.198 731.411h5.182v5.173h-5.182v-5.173z" fill="#fff"/><path opacity=".04" d="M714.198 752.622h5.182v5.173h-5.182v-5.173zm0 7.07h5.182v5.173h-5.182v-5.173z" fill="#fff"/><path opacity=".18" d="M707.117 766.762h5.181v5.174h-5.181v-5.174z" fill="#fff"/><path opacity=".7" d="M692.781 650.879h5.354v127.092h-5.354V650.879zm-9.154 0h5.354v127.092h-5.354V650.879zm-9.327 0h5.354v127.092H674.3V650.879zm-9.327 0h5.354v127.092h-5.354V650.879zm-9.327 0H661v127.092h-5.354V650.879z" fill="#E6E6E6"/><path d="M620.584 777.971h107.432l-107.432-93.465v93.465z" fill="#333"/><path d="M629.738 761.417H666.7v20.693h-36.962v-20.693z" fill="#4D4D4D"/><path d="M632.502 756.588h31.435v9.657h-31.435v-9.657z" fill="#4D4D4D"/><path d="M636.129 759.52h24.354l-8.464-14.141h-7.427l-8.463 14.141z" fill="#4D4D4D"/><path d="M639.583 765.555h17.272v12.589h-17.272v-12.589z" fill="#fff"/><path d="M637.511 770.556h21.417v2.587h-21.417v-2.587z" fill="#4D4D4D"/><path d="M464.79 795.388c-.518 13.451 9.845 25.004 23.49 25.522 13.472.517 25.045-10.002 25.563-23.453.518-13.45-9.845-25.004-23.49-25.521-13.472-.518-24.872 10.001-25.563 23.452z" fill="#333"/><path d="M468.935 788.662c-.345 7.76 5.7 14.313 13.473 14.658 7.772.345 14.335-5.69 14.681-13.45.345-7.76-5.7-14.313-13.472-14.658-7.773-.345-14.336 5.69-14.682 13.45z" fill="#4D4D4D"/><path d="M711.435 770.039c0 3.276 2.763 6.035 6.045 6.035s6.045-2.759 6.045-6.035c0-3.277-2.763-6.036-6.045-6.036s-6.045 2.587-6.045 6.036z" fill="#333"/><path d="M709.362 776.074a8.102 8.102 0 008.118 8.105 8.102 8.102 0 008.118-8.105 8.102 8.102 0 00-8.118-8.105 8.102 8.102 0 00-8.118 8.105z" fill="#333"/><path d="M713.507 764.865c0 2.242 1.728 4.139 3.973 4.139s3.973-1.897 3.973-4.139c0-2.241-1.728-4.138-3.973-4.138s-3.973 1.897-3.973 4.138z" fill="#333"/><path d="M712.298 770.039a3.462 3.462 0 003.455 3.449c1.9 0 3.454-1.552 3.454-3.449a3.461 3.461 0 00-3.454-3.449 3.462 3.462 0 00-3.455 3.449z" fill="#4D4D4D"/><path d="M714.026 765.383c0 1.379 1.209 2.586 2.59 2.586 1.382 0 2.591-1.207 2.591-2.586 0-1.38-1.209-2.587-2.591-2.587-1.381-.172-2.59 1.035-2.59 2.587z" fill="#4D4D4D"/><path d="M596.23 782.627c0 4.311 3.627 7.932 7.945 7.932 4.318 0 7.946-3.621 7.946-7.932a7.919 7.919 0 00-7.946-7.933c-4.318 0-7.945 3.622-7.945 7.933z" fill="#333"/><path d="M598.994 775.902c0 2.931 2.245 5.346 5.181 5.346 2.937 0 5.182-2.415 5.182-5.346 0-2.932-2.245-5.346-5.182-5.346-2.763 0-5.181 2.414-5.181 5.346z" fill="#333"/><path d="M599.685 776.419a3.461 3.461 0 003.454 3.449c1.9 0 3.455-1.552 3.455-3.449a3.462 3.462 0 00-3.455-3.449 3.461 3.461 0 00-3.454 3.449z" fill="#4D4D4D"/><path d="M606.939 788.49c.864 8.278 8.291 14.141 16.408 13.278 8.291-.862 14.164-8.277 13.3-16.382-.864-8.277-8.291-14.14-16.408-13.278-8.118.862-14.164 8.105-13.3 16.382z" fill="#333"/><path d="M610.739 775.212c.518 5.518 5.354 9.657 10.881 9.14 5.355-.518 9.327-5.518 8.809-11.037-.518-5.518-5.354-9.657-10.881-9.139-5.527.517-9.327 5.518-8.809 11.036z" fill="#333"/><path d="M612.121 776.247c.345 3.621 3.627 6.208 7.081 5.863 3.627-.345 6.218-3.621 5.873-7.07-.346-3.622-3.627-6.208-7.082-5.863-3.627.344-6.218 3.621-5.872 7.07z" fill="#4D4D4D"/><path d="M528.697 781.248c0 7.587 6.045 13.623 13.645 13.623s13.645-6.036 13.645-13.623c0-7.588-6.045-13.623-13.645-13.623-7.427 0-13.645 6.035-13.645 13.623z" fill="#333"/><path d="M533.533 769.521c0 5.174 3.973 9.312 8.981 9.312 5.009 0 8.982-4.138 8.982-9.312 0-5.173-3.973-9.312-8.982-9.312-5.008.173-8.981 4.311-8.981 9.312z" fill="#333"/><path d="M530.769 781.248a7.918 7.918 0 007.946 7.932c4.318 0 7.945-3.449 7.945-7.932a7.918 7.918 0 00-7.945-7.933c-4.318.173-7.946 3.622-7.946 7.933z" fill="#4D4D4D"/><path d="M534.742 770.728c0 3.277 2.591 6.036 6.045 6.036 3.282 0 6.045-2.587 6.045-6.036 0-3.276-2.59-5.863-6.045-5.863-3.454-.172-6.045 2.587-6.045 5.863z" fill="#4D4D4D"/><path d="M558.923 792.628c0 9.657 7.945 17.59 17.617 17.59 9.673 0 17.618-7.933 17.618-17.59 0-9.656-7.945-17.589-17.618-17.589-9.672 0-17.617 7.76-17.617 17.589z" fill="#333"/><path d="M564.968 777.454c0 6.552 5.182 11.898 11.572 11.898 6.391 0 11.573-5.346 11.573-11.898 0-6.553-5.182-11.899-11.573-11.899-6.39 0-11.572 5.346-11.572 11.899z" fill="#333"/><path d="M566.523 779.006c0 4.311 3.454 7.587 7.772 7.587s7.773-3.449 7.773-7.587a7.734 7.734 0 00-7.773-7.76 7.734 7.734 0 00-7.772 7.76z" fill="#4D4D4D"/><path d="M516.261 779.523c0 2.069 1.554 3.621 3.454 3.621 1.9 0 3.455-1.552 3.455-3.621s-1.555-3.621-3.455-3.621c-1.9 0-3.454 1.552-3.454 3.621zm-74.27-4.311c0 6.726 5.355 12.071 12.091 12.071 6.736 0 12.09-5.345 12.09-12.071 0-6.725-5.354-12.071-12.09-12.071s-12.091 5.346-12.091 12.071z" fill="#333"/><path d="M437.846 787.283c0 8.968 7.254 16.21 16.236 16.21 8.981 0 16.235-7.242 16.235-16.21 0-8.967-7.254-16.209-16.235-16.209-8.982 0-16.236 7.242-16.236 16.209z" fill="#333"/><path d="M446.136 764.866c0 4.483 3.628 8.277 7.946 8.277s7.945-3.621 7.945-8.277c0-4.484-3.627-8.278-7.945-8.278-4.318 0-7.946 3.794-7.946 8.278z" fill="#333"/><path d="M443.891 775.212c0 3.794 3.109 6.898 6.909 6.898s6.909-3.104 6.909-6.898c0-3.794-3.109-6.898-6.909-6.898s-6.909 3.104-6.909 6.898z" fill="#4D4D4D"/><path d="M447.173 765.9c0 2.932 2.418 5.346 5.354 5.346s5.354-2.414 5.354-5.346c0-2.931-2.418-5.345-5.354-5.345s-5.354 2.414-5.354 5.345z" fill="#4D4D4D"/><path d="M396.911 790.387c0 8.967 7.254 16.21 16.236 16.21 8.981 0 16.236-7.243 16.236-16.21s-7.255-16.21-16.236-16.21c-8.982.173-16.236 7.416-16.236 16.21z" fill="#333"/><path d="M402.611 776.592c0 6.035 4.836 11.036 10.536 11.036 5.873 0 10.709-4.828 10.709-11.036 0-6.036-4.836-10.864-10.709-10.864-5.872 0-10.536 4.828-10.536 10.864z" fill="#333"/><path d="M403.993 777.972c0 3.966 3.109 7.07 7.081 7.07 3.973 0 7.082-3.104 7.082-7.07 0-3.967-3.109-7.071-7.082-7.071-3.972 0-7.081 3.104-7.081 7.071z" fill="#4D4D4D"/><path d="M132.649 796.94c0 14.83 11.918 26.729 26.772 26.729s26.772-11.899 26.772-26.729-11.918-26.729-26.772-26.729-26.772 12.071-26.772 26.729z" fill="#333"/><path d="M136.622 789.525c0 8.45 6.909 15.348 15.372 15.348 8.463 0 15.372-6.898 15.372-15.348 0-8.45-6.909-15.347-15.372-15.347-8.463 0-15.372 6.897-15.372 15.347z" fill="#4D4D4D"/><path d="M98.278 785.386c0 12.416 10.19 22.591 22.626 22.591 12.436 0 22.627-10.175 22.627-22.591s-10.191-22.59-22.627-22.59c-12.608 0-22.626 10.002-22.626 22.59z" fill="#333"/><path d="M101.732 779.006c0 7.243 5.873 12.933 12.954 12.933 7.255 0 12.954-5.863 12.954-12.933 0-7.07-5.872-12.933-12.954-12.933-7.081 0-12.954 5.863-12.954 12.933z" fill="#4D4D4D"/><path d="M155.966 789.008c0 12.416 10.191 22.59 22.627 22.59 12.436 0 22.626-10.174 22.626-22.59s-10.19-22.591-22.626-22.591c-12.609 0-22.627 10.002-22.627 22.591z" fill="#333"/><path d="M159.421 782.627c0 7.243 5.872 12.933 12.954 12.933 7.081 0 12.954-5.863 12.954-12.933 0-7.242-5.873-12.933-12.954-12.933-7.082 0-12.954 5.691-12.954 12.933z" fill="#4D4D4D"/><path d="M225.745 794.181c0 12.416 10.191 22.59 22.627 22.59 12.436 0 22.626-10.174 22.626-22.59s-10.19-22.59-22.626-22.59c-12.609 0-22.627 10.174-22.627 22.59z" fill="#333"/><path d="M229.2 787.801c0 7.243 5.872 12.933 12.954 12.933 7.254 0 12.954-5.863 12.954-12.933 0-7.243-5.873-12.933-12.954-12.933-7.082 0-12.954 5.863-12.954 12.933z" fill="#4D4D4D"/><path d="M253.035 790.387c0 12.416 10.191 22.591 22.627 22.591 12.436 0 22.626-10.175 22.626-22.591s-10.19-22.59-22.626-22.59c-12.436 0-22.627 10.002-22.627 22.59z" fill="#333"/><path d="M256.49 784.007c0 7.243 5.872 12.933 12.954 12.933 7.254 0 12.954-5.863 12.954-12.933 0-7.243-5.873-12.933-12.954-12.933-7.082 0-12.954 5.69-12.954 12.933z" fill="#4D4D4D"/><path d="M235.418 786.766c0 7.242 5.872 12.933 12.954 12.933 7.254 0 12.954-5.863 12.954-12.933 0-7.243-5.873-12.934-12.954-12.934-7.254 0-12.954 5.863-12.954 12.934z" fill="#4D4D4D"/><path d="M331.968 787.8c0 8.105 6.564 14.83 14.854 14.83 8.118 0 14.854-6.552 14.854-14.83 0-8.105-6.563-14.83-14.854-14.83-8.29.172-14.854 6.725-14.854 14.83z" fill="#333"/><path d="M334.214 783.661c0 4.657 3.8 8.45 8.463 8.45 4.663 0 8.463-3.793 8.463-8.45 0-4.656-3.8-8.449-8.463-8.449-4.663 0-8.463 3.793-8.463 8.449z" fill="#4D4D4D"/><path d="M720.071 776.074c0 6.898 5.527 12.416 12.436 12.416s12.436-5.518 12.436-12.416c0-6.898-5.527-12.416-12.436-12.416-6.736-.172-12.436 5.518-12.436 12.416z" fill="#333"/><path d="M715.926 788.49c0 9.312 7.427 16.727 16.754 16.727 9.326 0 16.753-7.415 16.753-16.727 0-9.312-7.427-16.727-16.753-16.727-9.327 0-16.754 7.415-16.754 16.727z" fill="#333"/><path d="M724.389 765.383c0 4.656 3.627 8.449 8.291 8.449 4.49 0 8.29-3.793 8.29-8.449s-3.627-8.45-8.29-8.45c-4.664 0-8.291 3.794-8.291 8.45z" fill="#333"/><path d="M721.971 776.074c0 3.966 3.282 7.243 7.254 7.243 3.973 0 7.254-3.277 7.254-7.243s-3.281-7.243-7.254-7.243c-3.972 0-7.254 3.277-7.254 7.243z" fill="#4D4D4D"/><path d="M725.425 766.417c0 2.932 2.418 5.519 5.527 5.519 2.937 0 5.527-2.415 5.527-5.519 0-2.931-2.418-5.518-5.527-5.518-2.936 0-5.527 2.414-5.527 5.518z" fill="#4D4D4D"/><path d="M661.173 780.903c0 5.518 4.491 10.002 10.018 10.002 5.527 0 10.018-4.484 10.018-10.002 0-5.518-4.491-10.002-10.018-10.002-5.527 0-10.018 4.484-10.018 10.002z" fill="#333"/><path d="M664.628 772.281c0 3.794 2.936 6.898 6.563 6.898s6.564-3.104 6.564-6.898c0-3.794-2.937-6.898-6.564-6.898-3.627.173-6.563 3.104-6.563 6.898z" fill="#333"/><path d="M662.728 780.903c0 3.276 2.591 5.863 5.872 5.863 3.282 0 5.873-2.587 5.873-5.863 0-3.104-2.591-5.691-5.873-5.691-3.281-.172-5.872 2.414-5.872 5.691z" fill="#4D4D4D"/><path d="M665.491 773.143c0 2.414 1.9 4.311 4.318 4.311 2.418 0 4.318-1.897 4.318-4.311 0-2.414-1.9-4.311-4.318-4.311-2.418-.173-4.318 1.897-4.318 4.311z" fill="#4D4D4D"/></g><defs><clipPath id="clip0"><path transform="matrix(-1 0 0 1 1127 .194)" fill="#fff" d="M0 0h1127v776H0z"/></clipPath></defs></svg>