<svg width="637" height="559" fill="none" xmlns="http://www.w3.org/2000/svg"><g clip-path="url(#clip0)" opacity=".05"><path d="M111.093 355.647H70.077V551.67h41.016V355.647z" fill="#333"/><path d="M99.783 345.709H81.139v11.056h18.644v-11.056zm-3.853-6.459H85.116v6.335H95.93v-6.335z" fill="#333"/><path d="M89.84 355.274l.745-106.831.622 106.831h-1.368z" fill="#333"/><path opacity=".09" d="M92.698 370.43h-4.35v4.347h4.35v-4.347z" fill="#fff"/><path opacity=".33" d="M92.698 384.218h-4.35v4.348h4.35v-4.348z" fill="#fff"/><path opacity=".37" d="M92.698 398.131h-4.35v4.348h4.35v-4.348z" fill="#fff"/><path opacity=".14" d="M92.698 411.92h-4.35v4.348h4.35v-4.348z" fill="#fff"/><path opacity=".3" d="M92.698 425.833h-4.35v4.348h4.35v-4.348z" fill="#fff"/><path opacity=".16" d="M92.698 439.621h-4.35v4.348h4.35v-4.348z" fill="#fff"/><path opacity=".34" d="M92.698 453.534h-4.35v4.348h4.35v-4.348z" fill="#fff"/><path opacity=".29" d="M92.698 467.323h-4.35v4.348h4.35v-4.348z" fill="#fff"/><path opacity=".12" d="M92.698 481.236h-4.35v4.348h4.35v-4.348z" fill="#fff"/><path d="M36.146 399.995H-92.371v171.054H36.145V399.995z" fill="#4D4D4D"/><path d="M2.463 407.075h-6.836v6.832h6.836v-6.832zm9.073 0H4.7v6.832h6.836v-6.832zm-9.073 8.944h-6.836v6.833h6.836v-6.833zm9.073 0H4.7v6.833h6.836v-6.833zm-9.073 8.944h-6.836v6.833h6.836v-6.833zm9.073 0H4.7v6.833h6.836v-6.833zm-9.073 8.82h-6.836v6.832h6.836v-6.832zm9.073 0H4.7v6.832h6.836v-6.832zm-9.073 8.944h-6.836v6.832h6.836v-6.832zm9.073 0H4.7v6.832h6.836v-6.832zm-9.073 8.944h-6.836v6.832h6.836v-6.832zm9.073 0H4.7v6.832h6.836v-6.832zm-9.073 8.944h-6.836v6.832h6.836v-6.832zm9.073 0H4.7v6.832h6.836v-6.832zm-9.073 8.944h-6.836v6.832h6.836v-6.832zm9.073 0H4.7v6.832h6.836v-6.832zm-9.073 8.82h-6.836v6.832h6.836v-6.832zm9.073 0H4.7v6.832h6.836v-6.832zm-9.073 8.944h-6.836v6.832h6.836v-6.832zm9.073 0H4.7v6.832h6.836v-6.832zm-9.073 8.944h-6.836v6.832h6.836v-6.832zm9.073 0H4.7v6.832h6.836v-6.832zm-9.073 8.944h-6.836v6.832h6.836v-6.832zm9.073 0H4.7v6.832h6.836v-6.832zm-9.073 8.944h-6.836v6.832h6.836v-6.832zm9.073 0H4.7v6.832h6.836v-6.832zm-9.073 8.82h-6.836v6.832h6.836v-6.832zm9.073 0H4.7v6.832h6.836v-6.832zm9.074 0h-6.837v6.832h6.836v-6.832zm-18.147 8.944h-6.836v6.832h6.836v-6.832zm9.073 0H4.7v6.832h6.836v-6.832zm9.074 0h-6.837v6.832h6.836v-6.832zm-18.147 8.944h-6.836v6.832h6.836v-6.832zm9.073 0H4.7v6.832h6.836v-6.832zm9.074 0h-6.837v6.832h6.836v-6.832zm-18.147 8.944h-6.836v6.832h6.836v-6.832zm9.073 0H4.7v6.832h6.836v-6.832zm9.074 0h-6.837v6.832h6.836v-6.832zM2.463 558.75h-6.836v6.833h6.836v-6.833zm9.073 0H4.7v6.833h6.836v-6.833zm9.074 0h-6.837v6.833h6.836v-6.833z" fill="#fff"/><path d="M17.13 382.604h-90.485v17.391H17.13v-17.391z" fill="#4D4D4D"/><path opacity=".19" d="M20.61 407.075h-6.837v6.832h6.836v-6.832z" fill="#fff"/><path opacity=".24" d="M20.61 416.019h-6.837v6.832h6.836v-6.832z" fill="#fff"/><path opacity=".29" d="M20.61 424.963h-6.837v6.832h6.836v-6.832z" fill="#fff"/><path opacity=".39" d="M20.61 433.783h-6.837v6.832h6.836v-6.832z" fill="#fff"/><path opacity=".21" d="M20.61 442.727h-6.837v6.832h6.836v-6.832z" fill="#fff"/><path opacity=".48" d="M20.61 451.671h-6.837v6.832h6.836v-6.832z" fill="#fff"/><path opacity=".32" d="M20.61 460.615h-6.837v6.832h6.836v-6.832z" fill="#fff"/><path opacity=".13" d="M20.61 469.559h-6.837v6.832h6.836v-6.832z" fill="#fff"/><path opacity=".19" d="M20.61 478.379h-6.837v6.832h6.836v-6.832z" fill="#fff"/><path opacity=".03" d="M20.61 487.323h-6.837v6.832h6.836v-6.832z" fill="#fff"/><path opacity=".36" d="M20.61 496.267h-6.837v6.832h6.836v-6.832z" fill="#fff"/><path opacity=".25" d="M20.61 505.211h-6.837v6.832h6.836v-6.832z" fill="#fff"/><path d="M20.61 514.155h-6.837v6.832h6.836v-6.832z" fill="#fff"/><path d="M296.66 477.633h-41.016v96.024h41.016v-96.024z" fill="#333"/><path d="M274.288 472.789h-18.644v5.465h18.644v-5.465zm-7.831-3.106h-10.813v3.106h10.813v-3.106z" fill="#333"/><path opacity=".06" d="M279.508 484.341h-6.712v4.969h6.712v-4.969z" fill="#fff"/><path opacity=".12" d="M279.508 496.639h-6.712v4.969h6.712v-4.969z" fill="#fff"/><path opacity=".19" d="M279.508 521.235h-6.712v4.969h6.712v-4.969z" fill="#fff"/><path opacity=".14" d="M279.508 545.831h-6.712v4.969h6.712v-4.969z" fill="#fff"/><path opacity=".1" d="M279.508 558.129h-6.712v4.969h6.712v-4.969z" fill="#fff"/><path d="M193.747 488.068h-56.18v51.428h56.18v-51.428z" fill="#333"/><path d="M184.922 483.472h-38.406v22.111h38.406v-22.111zm12.926 37.018h-56.179v51.428h56.179V520.49z" fill="#333"/><path d="M188.9 515.894h-38.406v22.111H188.9v-22.111zm83.772-2.236h-56.18v59.254h56.18v-59.254z" fill="#333"/><path d="M263.847 508.44h-38.406v25.59h38.406v-25.59zm196.877 23.23h-56.179v57.267h56.179V531.67z" fill="#333"/><path d="M451.9 526.577h-38.406v24.72H451.9v-24.72zM338.919 413.41h-62.767v159.378h62.767V413.41z" fill="#333"/><path opacity=".46" d="M294.423 420.615h-15.164v2.858h15.164v-2.858z" fill="#E6E6E6"/><path opacity=".34" d="M315.179 420.615h-15.163v2.858h15.163v-2.858z" fill="#E6E6E6"/><path opacity=".52" d="M335.812 420.615h-15.164v2.858h15.164v-2.858z" fill="#E6E6E6"/><path opacity=".54" d="M294.423 427.199h-15.164v2.857h15.164v-2.857z" fill="#E6E6E6"/><path opacity=".3" d="M315.179 427.199h-15.163v2.857h15.163v-2.857z" fill="#E6E6E6"/><path opacity=".06" d="M335.812 427.199h-15.164v2.857h15.164v-2.857z" fill="#E6E6E6"/><path opacity=".15" d="M294.423 433.783h-15.164v2.857h15.164v-2.857z" fill="#E6E6E6"/><path opacity=".42" d="M315.179 433.783h-15.163v2.857h15.163v-2.857z" fill="#E6E6E6"/><path opacity=".48" d="M335.812 433.783h-15.164v2.857h15.164v-2.857z" fill="#E6E6E6"/><path opacity=".18" d="M294.423 440.367h-15.164v2.857h15.164v-2.857z" fill="#E6E6E6"/><path opacity=".28" d="M335.812 440.367h-15.164v2.857h15.164v-2.857z" fill="#E6E6E6"/><path opacity=".29" d="M294.423 446.95h-15.164v2.858h15.164v-2.858z" fill="#E6E6E6"/><path opacity=".28" d="M315.179 446.95h-15.163v2.858h15.163v-2.858z" fill="#E6E6E6"/><path opacity=".56" d="M335.812 446.95h-15.164v2.858h15.164v-2.858z" fill="#E6E6E6"/><path opacity=".41" d="M294.423 453.534h-15.164v2.858h15.164v-2.858z" fill="#E6E6E6"/><path opacity=".16" d="M315.179 453.534h-15.163v2.858h15.163v-2.858z" fill="#E6E6E6"/><path opacity=".4" d="M335.812 453.534h-15.164v2.858h15.164v-2.858z" fill="#E6E6E6"/><path opacity=".1" d="M294.423 460.118h-15.164v2.857h15.164v-2.857z" fill="#E6E6E6"/><path opacity=".17" d="M315.179 460.118h-15.163v2.857h15.163v-2.857z" fill="#E6E6E6"/><path opacity=".08" d="M335.812 460.118h-15.164v2.857h15.164v-2.857z" fill="#E6E6E6"/><path opacity=".49" d="M294.423 466.702h-15.164v2.857h15.164v-2.857z" fill="#E6E6E6"/><path opacity=".58" d="M315.179 466.702h-15.163v2.857h15.163v-2.857zm20.633 0h-15.164v2.857h15.164v-2.857z" fill="#E6E6E6"/><path opacity=".26" d="M294.423 473.286h-15.164v2.857h15.164v-2.857z" fill="#E6E6E6"/><path opacity=".37" d="M315.179 473.286h-15.163v2.857h15.163v-2.857z" fill="#E6E6E6"/><path opacity=".34" d="M335.812 473.286h-15.164v2.857h15.164v-2.857z" fill="#E6E6E6"/><path opacity=".55" d="M294.423 479.869h-15.164v2.858h15.164v-2.858z" fill="#E6E6E6"/><path opacity=".12" d="M315.179 479.869h-15.163v2.858h15.163v-2.858z" fill="#E6E6E6"/><path opacity=".6" d="M335.812 479.869h-15.164v2.858h15.164v-2.858z" fill="#E6E6E6"/><path opacity=".02" d="M294.423 486.453h-15.164v2.857h15.164v-2.857z" fill="#E6E6E6"/><path opacity=".28" d="M315.179 486.453h-15.163v2.857h15.163v-2.857z" fill="#E6E6E6"/><path opacity=".21" d="M335.812 486.453h-15.164v2.857h15.164v-2.857z" fill="#E6E6E6"/><path opacity=".57" d="M294.423 493.037h-15.164v2.857h15.164v-2.857z" fill="#E6E6E6"/><path opacity=".38" d="M315.179 493.037h-15.163v2.857h15.163v-2.857z" fill="#E6E6E6"/><path opacity=".25" d="M335.812 493.037h-15.164v2.857h15.164v-2.857z" fill="#E6E6E6"/><path opacity=".15" d="M294.423 499.621h-15.164v2.857h15.164v-2.857z" fill="#E6E6E6"/><path opacity=".47" d="M315.179 499.621h-15.163v2.857h15.163v-2.857z" fill="#E6E6E6"/><path opacity=".3" d="M335.812 499.621h-15.164v2.857h15.164v-2.857z" fill="#E6E6E6"/><path opacity=".4" d="M294.423 506.205h-15.164v2.857h15.164v-2.857z" fill="#E6E6E6"/><path opacity=".39" d="M315.179 506.205h-15.163v2.857h15.163v-2.857z" fill="#E6E6E6"/><path opacity=".24" d="M335.812 506.205h-15.164v2.857h15.164v-2.857z" fill="#E6E6E6"/><path opacity=".46" d="M294.423 512.788h-15.164v2.858h15.164v-2.858z" fill="#E6E6E6"/><path opacity=".22" d="M315.179 512.788h-15.163v2.858h15.163v-2.858z" fill="#E6E6E6"/><path opacity=".11" d="M335.812 512.788h-15.164v2.858h15.164v-2.858zm-20.633 6.584h-15.163v2.857h15.163v-2.857z" fill="#E6E6E6"/><path opacity=".02" d="M335.812 519.372h-15.164v2.857h15.164v-2.857z" fill="#E6E6E6"/><path opacity=".27" d="M294.423 525.956h-15.164v2.857h15.164v-2.857z" fill="#E6E6E6"/><path opacity=".21" d="M315.179 525.956h-15.163v2.857h15.163v-2.857z" fill="#E6E6E6"/><path opacity=".49" d="M335.812 525.956h-15.164v2.857h15.164v-2.857z" fill="#E6E6E6"/><path opacity=".6" d="M294.423 532.54h-15.164v2.857h15.164v-2.857z" fill="#E6E6E6"/><path opacity=".31" d="M315.179 532.54h-15.163v2.857h15.163v-2.857z" fill="#E6E6E6"/><path opacity=".22" d="M335.812 532.54h-15.164v2.857h15.164v-2.857z" fill="#E6E6E6"/><path opacity=".54" d="M294.423 539.124h-15.164v2.857h15.164v-2.857z" fill="#E6E6E6"/><path opacity=".6" d="M315.179 539.124h-15.163v2.857h15.163v-2.857z" fill="#E6E6E6"/><path opacity=".08" d="M335.812 539.124h-15.164v2.857h15.164v-2.857z" fill="#E6E6E6"/><path opacity=".55" d="M315.179 545.707h-15.163v2.857h15.163v-2.857z" fill="#E6E6E6"/><path d="M335.812 545.707h-15.164v2.857h15.164v-2.857z" fill="#E6E6E6"/><path opacity=".6" d="M295.417 420.615h-.994v127.949h.994V420.615zm25.231 0h-.994v127.949h.994V420.615z" fill="#E6E6E6"/><path d="M370.24 413.41h-31.321v159.378h31.321V413.41z" fill="#4D4D4D"/><path opacity=".69" d="M365.642 420.615h-23.616v2.858h23.616v-2.858z" fill="#E6E6E6"/><path opacity=".79" d="M365.642 427.199h-23.616v2.857h23.616v-2.857z" fill="#E6E6E6"/><path opacity=".19" d="M365.642 433.783h-23.616v2.857h23.616v-2.857z" fill="#E6E6E6"/><path opacity=".88" d="M365.642 440.367h-23.616v2.857h23.616v-2.857z" fill="#E6E6E6"/><path opacity=".5" d="M365.642 446.95h-23.616v2.858h23.616v-2.858z" fill="#E6E6E6"/><path opacity=".25" d="M365.642 453.534h-23.616v2.858h23.616v-2.858z" fill="#E6E6E6"/><path opacity=".91" d="M365.642 460.118h-23.616v2.857h23.616v-2.857z" fill="#E6E6E6"/><path opacity=".02" d="M365.642 466.702h-23.616v2.857h23.616v-2.857z" fill="#E6E6E6"/><path opacity=".53" d="M365.642 473.286h-23.616v2.857h23.616v-2.857z" fill="#E6E6E6"/><path opacity=".65" d="M365.642 479.869h-23.616v2.858h23.616v-2.858z" fill="#E6E6E6"/><path d="M365.642 486.453h-23.616v2.857h23.616v-2.857z" fill="#E6E6E6"/><path opacity=".8" d="M365.642 493.037h-23.616v2.857h23.616v-2.857z" fill="#E6E6E6"/><path opacity=".82" d="M365.642 499.621h-23.616v2.857h23.616v-2.857z" fill="#E6E6E6"/><path opacity=".75" d="M365.642 506.205h-23.616v2.857h23.616v-2.857z" fill="#E6E6E6"/><path opacity=".31" d="M365.642 512.788h-23.616v2.858h23.616v-2.858z" fill="#E6E6E6"/><path opacity=".22" d="M365.642 519.372h-23.616v2.857h23.616v-2.857z" fill="#E6E6E6"/><path opacity=".43" d="M365.642 525.956h-23.616v2.857h23.616v-2.857z" fill="#E6E6E6"/><path opacity=".68" d="M365.642 532.54h-23.616v2.857h23.616v-2.857z" fill="#E6E6E6"/><path opacity=".38" d="M365.642 539.124h-23.616v2.857h23.616v-2.857z" fill="#E6E6E6"/><path opacity=".84" d="M365.642 545.707h-23.616v2.857h23.616v-2.857z" fill="#E6E6E6"/><path d="M287.214 404.963v8.447h40.643v-8.447h-40.643zm9.073 5.715h-4.226v-2.858h4.226v2.858zm6.588 0h-4.102v-2.858h4.102v2.858zm6.711 0h-4.101v-2.858h4.101v2.858zm6.712 0h-4.226v-2.858h4.226v2.858zm6.712 0h-4.226v-2.858h4.226v2.858zm12.305-2.857h-1.119v2.857h1.119v-2.857z" fill="#333"/><path d="M327.857 404.963v8.447h19.141v-8.447h-19.141zm7.458 5.715h-4.102v-2.858h4.102v2.858zm8.824 0h-4.101v-2.858h4.101v2.858z" fill="#4D4D4D"/><path d="M344.015 407.821h-1.119v2.857h1.119v-2.857zm3.231 175.774h-84.518l84.518-62.36v62.36z" fill="#333"/><path d="M221.215 379.622h-6.836v25.963h6.836v-25.963z" fill="#4D4D4D"/><path d="M214.504 379.622h-6.961v25.963h6.961v-25.963z" fill="#333"/><path d="M228.3 379.622h-6.96v25.963h6.96v-25.963zm20.135 43.726h-19.389v148.073h19.389V423.348z" fill="#666"/><path d="M206.3 423.348h-16.903v148.073H206.3V423.348z" fill="#333"/><path d="M229.046 423.348h-22.87v148.073h22.87V423.348z" fill="#4D4D4D"/><path opacity=".6" d="M194.244 427.696h-2.486v141.738h2.486V427.696zm4.847 0h-2.485v141.738h2.485V427.696zm4.848 0h-2.486v141.738h2.486V427.696z" fill="#E6E6E6"/><path d="M232.899 427.696h-2.486v141.738h2.486V427.696zm4.847 0h-2.486v141.738h2.486V427.696zm9.446 0h-2.486v141.738h2.486V427.696zm-4.599 0h-2.485v141.738h2.485V427.696z" fill="#E6E6E6"/><path opacity=".8" d="M209.035 569.434h17.152V427.696h-17.152v141.738zm2.734-139.254h11.683v136.769h-11.683V430.18z" fill="#E6E6E6"/><path opacity=".8" d="M214.006 564.589h7.334V432.417h-7.334v132.172zm2.486-129.067h2.362v125.961h-2.362V435.522z" fill="#E6E6E6"/><path opacity=".8" d="M217.859 435.522h-.497v125.961h.497V435.522z" fill="#E6E6E6"/><path d="M226.435 397.386h-17.152v25.962h17.152v-25.962z" fill="#4D4D4D"/><path d="M226.435 397.386h-17.152v25.962h17.152v-25.962z" fill="#4D4D4D"/><path d="M243.588 397.386h-17.153v25.962h17.153v-25.962z" fill="#666"/><path d="M209.283 397.386h-17.152v25.962h17.152v-25.962z" fill="#333"/><path d="M228.176 379.622h-20.633l6.836 4.72h6.961l6.836-4.72z" fill="gray"/><path d="M596.948 370.057h-9.944v29.192h9.944v-29.192z" fill="#4D4D4D"/><path d="M586.88 370.057h-9.943v29.192h9.943v-29.192z" fill="#333"/><path d="M606.891 370.057h-9.943v29.192h9.943v-29.192zm29.333 49.316h-28.09v166.83h28.09v-166.83z" fill="#666"/><path d="M575.072 419.373h-24.361v166.83h24.361v-166.83z" fill="#333"/><path d="M608.134 419.373h-33.062v166.83h33.062v-166.83z" fill="#4D4D4D"/><path opacity=".4" d="M557.671 424.342h-3.604v159.626h3.604V424.342zm7.085 0h-3.604v159.626h3.604V424.342zm7.085 0h-3.605v159.626h3.605V424.342z" fill="#E6E6E6"/><path d="M613.727 424.342h-3.605v159.626h3.605V424.342zm7.084 0h-3.604v159.626h3.604V424.342zm13.548 0h-3.604v159.626h3.604V424.342zm-6.587 0h-3.605v159.626h3.605V424.342zm-48.474 159.626h24.858V424.342h-24.858v159.626zm3.853-156.893h16.904v154.16h-16.904v-154.16z" fill="#E6E6E6"/><path d="M586.258 578.626h10.69V429.684h-10.69v148.942zm3.729-145.464h3.356v141.986h-3.356V433.162z" fill="#E6E6E6"/><path d="M591.976 433.162h-.622v141.986h.622V433.162z" fill="#E6E6E6"/><path d="M604.405 390.181h-24.858v29.192h24.858v-29.192z" fill="#4D4D4D"/><path d="M604.405 390.181h-24.858v29.192h24.858v-29.192z" fill="#4D4D4D"/><path d="M629.263 390.181h-24.858v29.192h24.858v-29.192z" fill="#666"/><path d="M579.671 390.181h-24.858v29.192h24.858v-29.192z" fill="#333"/><path d="M607.015 370.057h-30.078l10.067 5.341h9.944l10.067-5.341z" fill="gray"/><path d="M525.232 442.479h-67.988v22.608h67.988v-22.608z" fill="#E6E6E6"/><path d="M483.967 442.479h-26.723v22.608h26.723v-22.608z" fill="#B3B3B3"/><path d="M483.967 465.211h-52.824v109.813h52.824V465.211z" fill="#333"/><path d="M566.496 465.211h-82.529v109.813h82.529V465.211z" fill="#4D4D4D"/><path d="M477.504 454.031H436.86v11.18h40.644v-11.18z" fill="#333"/><path d="M554.191 454.031h-58.044v11.18h58.044v-11.18z" fill="#4D4D4D"/><path d="M507.209 433.907h-23.242v8.572h23.242v-8.572z" fill="#E6E6E6"/><path d="M495.526 425.212h-11.559v8.571h11.559v-8.571z" fill="#4D4D4D"/><path d="M483.843 425.212h-11.56v8.571h11.56v-8.571z" fill="#333"/><path d="M483.967 433.907h-17.774v8.572h17.774v-8.572z" fill="#B3B3B3"/><path d="M483.221 425.212l.746-19.876.621 19.876h-1.367z" fill="#333"/><path opacity=".12" d="M447.798 469.683h-4.35v4.348h4.35v-4.348z" fill="#fff"/><path opacity=".25" d="M453.764 469.683h-4.35v4.348h4.35v-4.348z" fill="#fff"/><path opacity=".36" d="M459.73 469.683h-4.35v4.348h4.35v-4.348z" fill="#fff"/><path opacity=".12" d="M465.696 469.683h-4.35v4.348h4.35v-4.348z" fill="#fff"/><path opacity=".14" d="M471.662 469.683h-4.35v4.348h4.35v-4.348z" fill="#fff"/><path opacity=".28" d="M447.798 475.398h-4.35v4.347h4.35v-4.347z" fill="#fff"/><path opacity=".4" d="M453.764 475.398h-4.35v4.347h4.35v-4.347z" fill="#fff"/><path opacity=".16" d="M459.73 475.398h-4.35v4.347h4.35v-4.347z" fill="#fff"/><path opacity=".17" d="M471.662 475.398h-4.35v4.347h4.35v-4.347z" fill="#fff"/><path opacity=".27" d="M447.798 481.112h-4.35v4.348h4.35v-4.348z" fill="#fff"/><path opacity=".45" d="M453.764 481.112h-4.35v4.348h4.35v-4.348zm5.966 0h-4.35v4.348h4.35v-4.348z" fill="#fff"/><path opacity=".48" d="M465.696 481.112h-4.35v4.348h4.35v-4.348z" fill="#fff"/><path opacity=".25" d="M471.662 481.112h-4.35v4.348h4.35v-4.348z" fill="#fff"/><path opacity=".28" d="M447.798 486.826h-4.35v4.348h4.35v-4.348z" fill="#fff"/><path opacity=".13" d="M453.764 486.826h-4.35v4.348h4.35v-4.348z" fill="#fff"/><path opacity=".07" d="M459.73 486.826h-4.35v4.348h4.35v-4.348z" fill="#fff"/><path opacity=".39" d="M465.696 486.826h-4.35v4.348h4.35v-4.348z" fill="#fff"/><path opacity=".47" d="M471.662 486.826h-4.35v4.348h4.35v-4.348z" fill="#fff"/><path opacity=".28" d="M447.798 492.54h-4.35v4.348h4.35v-4.348z" fill="#fff"/><path opacity=".2" d="M453.764 492.54h-4.35v4.348h4.35v-4.348z" fill="#fff"/><path opacity=".04" d="M459.73 492.54h-4.35v4.348h4.35v-4.348z" fill="#fff"/><path opacity=".43" d="M465.696 492.54h-4.35v4.348h4.35v-4.348z" fill="#fff"/><path opacity=".48" d="M471.662 492.54h-4.35v4.348h4.35v-4.348z" fill="#fff"/><path opacity=".28" d="M447.798 498.254h-4.35v4.348h4.35v-4.348z" fill="#fff"/><path opacity=".19" d="M453.764 498.254h-4.35v4.348h4.35v-4.348z" fill="#fff"/><path opacity=".01" d="M459.73 498.254h-4.35v4.348h4.35v-4.348z" fill="#fff"/><path opacity=".27" d="M465.696 498.254h-4.35v4.348h4.35v-4.348z" fill="#fff"/><path opacity=".24" d="M471.662 498.254h-4.35v4.348h4.35v-4.348z" fill="#fff"/><path opacity=".07" d="M447.798 504.093h-4.35v4.348h4.35v-4.348z" fill="#fff"/><path opacity=".25" d="M453.764 504.093h-4.35v4.348h4.35v-4.348z" fill="#fff"/><path opacity=".26" d="M459.73 504.093h-4.35v4.348h4.35v-4.348z" fill="#fff"/><path opacity=".39" d="M465.696 504.093h-4.35v4.348h4.35v-4.348z" fill="#fff"/><path opacity=".22" d="M471.662 504.093h-4.35v4.348h4.35v-4.348z" fill="#fff"/><path opacity=".15" d="M447.798 509.807h-4.35v4.348h4.35v-4.348z" fill="#fff"/><path opacity=".23" d="M453.764 509.807h-4.35v4.348h4.35v-4.348z" fill="#fff"/><path opacity=".05" d="M459.73 509.807h-4.35v4.348h4.35v-4.348z" fill="#fff"/><path opacity=".2" d="M465.696 509.807h-4.35v4.348h4.35v-4.348z" fill="#fff"/><path opacity=".31" d="M471.662 509.807h-4.35v4.348h4.35v-4.348z" fill="#fff"/><path opacity=".15" d="M447.798 515.521h-4.35v4.348h4.35v-4.348z" fill="#fff"/><path opacity=".33" d="M453.764 515.521h-4.35v4.348h4.35v-4.348z" fill="#fff"/><path opacity=".46" d="M459.73 515.521h-4.35v4.348h4.35v-4.348z" fill="#fff"/><path opacity=".25" d="M465.696 515.521h-4.35v4.348h4.35v-4.348z" fill="#fff"/><path opacity=".43" d="M471.662 515.521h-4.35v4.348h4.35v-4.348z" fill="#fff"/><path opacity=".4" d="M447.798 521.236h-4.35v4.347h4.35v-4.347z" fill="#fff"/><path opacity=".39" d="M453.764 521.236h-4.35v4.347h4.35v-4.347z" fill="#fff"/><path opacity=".01" d="M459.73 521.236h-4.35v4.347h4.35v-4.347z" fill="#fff"/><path opacity=".12" d="M465.696 521.236h-4.35v4.347h4.35v-4.347z" fill="#fff"/><path opacity=".07" d="M471.662 521.236h-4.35v4.347h4.35v-4.347zm-23.864 5.714h-4.35v4.348h4.35v-4.348z" fill="#fff"/><path opacity=".02" d="M453.764 526.95h-4.35v4.348h4.35v-4.348z" fill="#fff"/><path opacity=".12" d="M459.73 526.95h-4.35v4.348h4.35v-4.348z" fill="#fff"/><path opacity=".23" d="M465.696 526.95h-4.35v4.348h4.35v-4.348z" fill="#fff"/><path opacity=".26" d="M471.662 526.95h-4.35v4.348h4.35v-4.348z" fill="#fff"/><path opacity=".27" d="M447.798 532.664h-4.35v4.348h4.35v-4.348z" fill="#fff"/><path opacity=".38" d="M453.764 532.664h-4.35v4.348h4.35v-4.348z" fill="#fff"/><path opacity=".05" d="M459.73 532.664h-4.35v4.348h4.35v-4.348z" fill="#fff"/><path opacity=".45" d="M465.696 532.664h-4.35v4.348h4.35v-4.348z" fill="#fff"/><path opacity=".15" d="M471.662 532.664h-4.35v4.348h4.35v-4.348z" fill="#fff"/><path opacity=".06" d="M447.798 538.378h-4.35v4.348h4.35v-4.348z" fill="#fff"/><path opacity=".47" d="M453.764 538.378h-4.35v4.348h4.35v-4.348z" fill="#fff"/><path opacity=".15" d="M459.73 538.378h-4.35v4.348h4.35v-4.348z" fill="#fff"/><path opacity=".44" d="M465.696 538.378h-4.35v4.348h4.35v-4.348z" fill="#fff"/><path opacity=".14" d="M471.662 538.378h-4.35v4.348h4.35v-4.348z" fill="#fff"/><path opacity=".15" d="M447.798 544.093h-4.35v4.347h4.35v-4.347z" fill="#fff"/><path opacity=".43" d="M453.764 544.093h-4.35v4.347h4.35v-4.347z" fill="#fff"/><path opacity=".07" d="M459.73 544.093h-4.35v4.347h4.35v-4.347z" fill="#fff"/><path opacity=".47" d="M465.696 544.093h-4.35v4.347h4.35v-4.347z" fill="#fff"/><path opacity=".11" d="M471.662 544.093h-4.35v4.347h4.35v-4.347z" fill="#fff"/><path opacity=".07" d="M447.798 549.807h-4.35v4.347h4.35v-4.347z" fill="#fff"/><path opacity=".34" d="M453.764 549.807h-4.35v4.347h4.35v-4.347z" fill="#fff"/><path opacity=".5" d="M459.73 549.807h-4.35v4.347h4.35v-4.347z" fill="#fff"/><path opacity=".36" d="M465.696 549.807h-4.35v4.347h4.35v-4.347z" fill="#fff"/><path opacity=".34" d="M471.662 549.807h-4.35v4.347h4.35v-4.347z" fill="#fff"/><path opacity=".47" d="M447.798 555.521h-4.35v4.348h4.35v-4.348z" fill="#fff"/><path opacity=".41" d="M453.764 555.521h-4.35v4.348h4.35v-4.348z" fill="#fff"/><path opacity=".3" d="M459.73 555.521h-4.35v4.348h4.35v-4.348z" fill="#fff"/><path opacity=".33" d="M465.696 555.521h-4.35v4.348h4.35v-4.348z" fill="#fff"/><path opacity=".12" d="M471.662 555.521h-4.35v4.348h4.35v-4.348z" fill="#fff"/><path opacity=".3" d="M498.385 469.683h-4.351v4.348h4.351v-4.348z" fill="#fff"/><path opacity=".72" d="M504.102 469.683h-4.35v4.348h4.35v-4.348z" fill="#fff"/><path opacity=".7" d="M509.944 469.683h-4.35v4.348h4.35v-4.348z" fill="#fff"/><path opacity=".52" d="M515.785 469.683h-4.35v4.348h4.35v-4.348z" fill="#fff"/><path opacity=".2" d="M521.627 469.683h-4.35v4.348h4.35v-4.348z" fill="#fff"/><path opacity=".32" d="M527.344 469.683h-4.35v4.348h4.35v-4.348z" fill="#fff"/><path opacity=".13" d="M533.186 469.683h-4.35v4.348h4.35v-4.348z" fill="#fff"/><path opacity=".38" d="M539.028 469.683h-4.35v4.348h4.35v-4.348z" fill="#fff"/><path opacity=".61" d="M544.745 469.683h-4.35v4.348h4.35v-4.348z" fill="#fff"/><path d="M550.587 469.683h-4.35v4.348h4.35v-4.348z" fill="#fff"/><path opacity=".91" d="M556.429 469.683h-4.351v4.348h4.351v-4.348z" fill="#fff"/><path opacity=".66" d="M498.385 475.398h-4.351v4.347h4.351v-4.347z" fill="#fff"/><path opacity=".31" d="M504.102 475.398h-4.35v4.347h4.35v-4.347z" fill="#fff"/><path opacity=".95" d="M509.944 475.398h-4.35v4.347h4.35v-4.347z" fill="#fff"/><path opacity=".7" d="M515.785 475.398h-4.35v4.347h4.35v-4.347z" fill="#fff"/><path opacity=".12" d="M521.627 475.398h-4.35v4.347h4.35v-4.347z" fill="#fff"/><path opacity=".24" d="M527.344 475.398h-4.35v4.347h4.35v-4.347z" fill="#fff"/><path opacity=".66" d="M533.186 475.398h-4.35v4.347h4.35v-4.347z" fill="#fff"/><path opacity=".71" d="M539.028 475.398h-4.35v4.347h4.35v-4.347z" fill="#fff"/><path opacity=".42" d="M544.745 475.398h-4.35v4.347h4.35v-4.347z" fill="#fff"/><path opacity=".09" d="M550.587 475.398h-4.35v4.347h4.35v-4.347z" fill="#fff"/><path opacity=".32" d="M556.429 475.398h-4.351v4.347h4.351v-4.347z" fill="#fff"/><path opacity=".65" d="M498.385 481.112h-4.351v4.348h4.351v-4.348z" fill="#fff"/><path d="M504.102 481.112h-4.35v4.348h4.35v-4.348zm5.842 0h-4.35v4.348h4.35v-4.348z" fill="#fff"/><path opacity=".71" d="M515.785 481.112h-4.35v4.348h4.35v-4.348z" fill="#fff"/><path opacity=".2" d="M521.627 481.112h-4.35v4.348h4.35v-4.348z" fill="#fff"/><path opacity=".19" d="M527.344 481.112h-4.35v4.348h4.35v-4.348z" fill="#fff"/><path opacity=".62" d="M533.186 481.112h-4.35v4.348h4.35v-4.348z" fill="#fff"/><path opacity=".93" d="M539.028 481.112h-4.35v4.348h4.35v-4.348z" fill="#fff"/><path opacity=".56" d="M544.745 481.112h-4.35v4.348h4.35v-4.348z" fill="#fff"/><path opacity=".57" d="M550.587 481.112h-4.35v4.348h4.35v-4.348z" fill="#fff"/><path opacity=".52" d="M556.429 481.112h-4.351v4.348h4.351v-4.348z" fill="#fff"/><path opacity=".74" d="M498.385 486.826h-4.351v4.348h4.351v-4.348z" fill="#fff"/><path opacity=".56" d="M504.102 486.826h-4.35v4.348h4.35v-4.348z" fill="#fff"/><path opacity=".78" d="M509.944 486.826h-4.35v4.348h4.35v-4.348z" fill="#fff"/><path opacity=".41" d="M515.785 486.826h-4.35v4.348h4.35v-4.348z" fill="#fff"/><path opacity=".14" d="M521.627 486.826h-4.35v4.348h4.35v-4.348z" fill="#fff"/><path opacity=".28" d="M527.344 486.826h-4.35v4.348h4.35v-4.348z" fill="#fff"/><path opacity=".36" d="M533.186 486.826h-4.35v4.348h4.35v-4.348z" fill="#fff"/><path opacity=".14" d="M539.028 486.826h-4.35v4.348h4.35v-4.348z" fill="#fff"/><path opacity=".5" d="M544.745 486.826h-4.35v4.348h4.35v-4.348z" fill="#fff"/><path opacity=".98" d="M550.587 486.826h-4.35v4.348h4.35v-4.348z" fill="#fff"/><path opacity=".59" d="M556.429 486.826h-4.351v4.348h4.351v-4.348z" fill="#fff"/><path opacity=".07" d="M498.385 492.54h-4.351v4.348h4.351v-4.348z" fill="#fff"/><path opacity=".1" d="M504.102 492.54h-4.35v4.348h4.35v-4.348z" fill="#fff"/><path opacity=".88" d="M509.944 492.54h-4.35v4.348h4.35v-4.348z" fill="#fff"/><path opacity=".68" d="M515.785 492.54h-4.35v4.348h4.35v-4.348z" fill="#fff"/><path opacity=".81" d="M521.627 492.54h-4.35v4.348h4.35v-4.348z" fill="#fff"/><path opacity=".62" d="M527.344 492.54h-4.35v4.348h4.35v-4.348z" fill="#fff"/><path opacity=".97" d="M533.186 492.54h-4.35v4.348h4.35v-4.348z" fill="#fff"/><path opacity=".81" d="M539.028 492.54h-4.35v4.348h4.35v-4.348z" fill="#fff"/><path opacity=".79" d="M544.745 492.54h-4.35v4.348h4.35v-4.348z" fill="#fff"/><path opacity=".03" d="M550.587 492.54h-4.35v4.348h4.35v-4.348z" fill="#fff"/><path opacity=".95" d="M556.429 492.54h-4.351v4.348h4.351v-4.348z" fill="#fff"/><path opacity=".62" d="M498.385 498.254h-4.351v4.348h4.351v-4.348z" fill="#fff"/><path opacity=".22" d="M504.102 498.254h-4.35v4.348h4.35v-4.348z" fill="#fff"/><path opacity=".42" d="M509.944 498.254h-4.35v4.348h4.35v-4.348z" fill="#fff"/><path opacity=".56" d="M515.785 498.254h-4.35v4.348h4.35v-4.348z" fill="#fff"/><path opacity=".03" d="M521.627 498.254h-4.35v4.348h4.35v-4.348z" fill="#fff"/><path opacity=".64" d="M527.344 498.254h-4.35v4.348h4.35v-4.348z" fill="#fff"/><path opacity=".82" d="M533.186 498.254h-4.35v4.348h4.35v-4.348z" fill="#fff"/><path opacity=".52" d="M539.028 498.254h-4.35v4.348h4.35v-4.348z" fill="#fff"/><path opacity=".46" d="M544.745 498.254h-4.35v4.348h4.35v-4.348z" fill="#fff"/><path opacity=".27" d="M550.587 498.254h-4.35v4.348h4.35v-4.348z" fill="#fff"/><path opacity=".46" d="M556.429 498.254h-4.351v4.348h4.351v-4.348z" fill="#fff"/><path opacity=".66" d="M498.385 504.093h-4.351v4.348h4.351v-4.348z" fill="#fff"/><path opacity=".7" d="M504.102 504.093h-4.35v4.348h4.35v-4.348z" fill="#fff"/><path opacity=".94" d="M509.944 504.093h-4.35v4.348h4.35v-4.348z" fill="#fff"/><path opacity=".5" d="M515.785 504.093h-4.35v4.348h4.35v-4.348z" fill="#fff"/><path opacity=".12" d="M521.627 504.093h-4.35v4.348h4.35v-4.348z" fill="#fff"/><path opacity=".36" d="M527.344 504.093h-4.35v4.348h4.35v-4.348z" fill="#fff"/><path opacity=".51" d="M533.186 504.093h-4.35v4.348h4.35v-4.348z" fill="#fff"/><path opacity=".37" d="M539.028 504.093h-4.35v4.348h4.35v-4.348z" fill="#fff"/><path opacity=".66" d="M544.745 504.093h-4.35v4.348h4.35v-4.348z" fill="#fff"/><path opacity=".42" d="M550.587 504.093h-4.35v4.348h4.35v-4.348z" fill="#fff"/><path opacity=".5" d="M556.429 504.093h-4.351v4.348h4.351v-4.348z" fill="#fff"/><path opacity=".52" d="M498.385 509.807h-4.351v4.348h4.351v-4.348z" fill="#fff"/><path opacity=".61" d="M504.102 509.807h-4.35v4.348h4.35v-4.348z" fill="#fff"/><path opacity=".84" d="M509.944 509.807h-4.35v4.348h4.35v-4.348z" fill="#fff"/><path opacity=".89" d="M515.785 509.807h-4.35v4.348h4.35v-4.348z" fill="#fff"/><path opacity=".33" d="M521.627 509.807h-4.35v4.348h4.35v-4.348z" fill="#fff"/><path opacity=".25" d="M527.344 509.807h-4.35v4.348h4.35v-4.348z" fill="#fff"/><path opacity=".95" d="M533.186 509.807h-4.35v4.348h4.35v-4.348z" fill="#fff"/><path opacity=".09" d="M539.028 509.807h-4.35v4.348h4.35v-4.348z" fill="#fff"/><path opacity=".44" d="M544.745 509.807h-4.35v4.348h4.35v-4.348z" fill="#fff"/><path opacity=".51" d="M550.587 509.807h-4.35v4.348h4.35v-4.348z" fill="#fff"/><path opacity=".97" d="M556.429 509.807h-4.351v4.348h4.351v-4.348z" fill="#fff"/><path opacity=".26" d="M498.385 515.521h-4.351v4.348h4.351v-4.348z" fill="#fff"/><path opacity=".92" d="M504.102 515.521h-4.35v4.348h4.35v-4.348z" fill="#fff"/><path opacity=".33" d="M509.944 515.521h-4.35v4.348h4.35v-4.348z" fill="#fff"/><path opacity=".23" d="M515.785 515.521h-4.35v4.348h4.35v-4.348z" fill="#fff"/><path opacity=".42" d="M521.627 515.521h-4.35v4.348h4.35v-4.348z" fill="#fff"/><path opacity=".57" d="M527.344 515.521h-4.35v4.348h4.35v-4.348z" fill="#fff"/><path opacity=".73" d="M533.186 515.521h-4.35v4.348h4.35v-4.348z" fill="#fff"/><path opacity=".87" d="M539.028 515.521h-4.35v4.348h4.35v-4.348z" fill="#fff"/><path opacity=".22" d="M544.745 515.521h-4.35v4.348h4.35v-4.348z" fill="#fff"/><path opacity=".89" d="M550.587 515.521h-4.35v4.348h4.35v-4.348z" fill="#fff"/><path opacity=".73" d="M556.429 515.521h-4.351v4.348h4.351v-4.348z" fill="#fff"/><path opacity=".35" d="M498.385 521.236h-4.351v4.347h4.351v-4.347z" fill="#fff"/><path opacity=".81" d="M504.102 521.236h-4.35v4.347h4.35v-4.347z" fill="#fff"/><path opacity=".56" d="M509.944 521.236h-4.35v4.347h4.35v-4.347z" fill="#fff"/><path opacity=".81" d="M515.785 521.236h-4.35v4.347h4.35v-4.347z" fill="#fff"/><path opacity=".87" d="M521.627 521.236h-4.35v4.347h4.35v-4.347z" fill="#fff"/><path opacity=".39" d="M527.344 521.236h-4.35v4.347h4.35v-4.347z" fill="#fff"/><path opacity=".31" d="M533.186 521.236h-4.35v4.347h4.35v-4.347z" fill="#fff"/><path opacity=".98" d="M539.028 521.236h-4.35v4.347h4.35v-4.347z" fill="#fff"/><path opacity=".17" d="M544.745 521.236h-4.35v4.347h4.35v-4.347z" fill="#fff"/><path opacity=".06" d="M550.587 521.236h-4.35v4.347h4.35v-4.347z" fill="#fff"/><path opacity=".57" d="M556.429 521.236h-4.351v4.347h4.351v-4.347z" fill="#fff"/><path opacity=".67" d="M498.385 526.95h-4.351v4.348h4.351v-4.348z" fill="#fff"/><path opacity=".83" d="M504.102 526.95h-4.35v4.348h4.35v-4.348z" fill="#fff"/><path opacity=".99" d="M509.944 526.95h-4.35v4.348h4.35v-4.348z" fill="#fff"/><path opacity=".62" d="M515.785 526.95h-4.35v4.348h4.35v-4.348z" fill="#fff"/><path opacity=".87" d="M521.627 526.95h-4.35v4.348h4.35v-4.348z" fill="#fff"/><path opacity=".14" d="M527.344 526.95h-4.35v4.348h4.35v-4.348z" fill="#fff"/><path opacity=".12" d="M533.186 526.95h-4.35v4.348h4.35v-4.348z" fill="#fff"/><path opacity=".11" d="M539.028 526.95h-4.35v4.348h4.35v-4.348z" fill="#fff"/><path opacity=".39" d="M544.745 526.95h-4.35v4.348h4.35v-4.348z" fill="#fff"/><path opacity=".58" d="M550.587 526.95h-4.35v4.348h4.35v-4.348z" fill="#fff"/><path opacity=".54" d="M556.429 526.95h-4.351v4.348h4.351v-4.348z" fill="#fff"/><path opacity=".99" d="M498.385 532.664h-4.351v4.348h4.351v-4.348z" fill="#fff"/><path opacity=".28" d="M504.102 532.664h-4.35v4.348h4.35v-4.348z" fill="#fff"/><path opacity=".78" d="M509.944 532.664h-4.35v4.348h4.35v-4.348z" fill="#fff"/><path opacity=".65" d="M515.785 532.664h-4.35v4.348h4.35v-4.348z" fill="#fff"/><path opacity=".32" d="M521.627 532.664h-4.35v4.348h4.35v-4.348z" fill="#fff"/><path opacity=".55" d="M527.344 532.664h-4.35v4.348h4.35v-4.348z" fill="#fff"/><path opacity=".4" d="M533.186 532.664h-4.35v4.348h4.35v-4.348z" fill="#fff"/><path opacity=".22" d="M539.028 532.664h-4.35v4.348h4.35v-4.348z" fill="#fff"/><path opacity=".87" d="M544.745 532.664h-4.35v4.348h4.35v-4.348z" fill="#fff"/><path opacity=".02" d="M550.587 532.664h-4.35v4.348h4.35v-4.348z" fill="#fff"/><path opacity=".39" d="M556.429 532.664h-4.351v4.348h4.351v-4.348z" fill="#fff"/><path opacity=".89" d="M498.385 538.378h-4.351v4.348h4.351v-4.348z" fill="#fff"/><path opacity=".97" d="M504.102 538.378h-4.35v4.348h4.35v-4.348z" fill="#fff"/><path opacity=".79" d="M509.944 538.378h-4.35v4.348h4.35v-4.348z" fill="#fff"/><path opacity=".41" d="M515.785 538.378h-4.35v4.348h4.35v-4.348z" fill="#fff"/><path opacity=".13" d="M521.627 538.378h-4.35v4.348h4.35v-4.348z" fill="#fff"/><path opacity=".9" d="M527.344 538.378h-4.35v4.348h4.35v-4.348z" fill="#fff"/><path opacity=".98" d="M533.186 538.378h-4.35v4.348h4.35v-4.348z" fill="#fff"/><path opacity=".67" d="M539.028 538.378h-4.35v4.348h4.35v-4.348z" fill="#fff"/><path opacity=".65" d="M544.745 538.378h-4.35v4.348h4.35v-4.348z" fill="#fff"/><path opacity=".89" d="M550.587 538.378h-4.35v4.348h4.35v-4.348z" fill="#fff"/><path opacity=".98" d="M556.429 538.378h-4.351v4.348h4.351v-4.348z" fill="#fff"/><path opacity=".29" d="M498.385 544.093h-4.351v4.347h4.351v-4.347z" fill="#fff"/><path opacity=".74" d="M504.102 544.093h-4.35v4.347h4.35v-4.347z" fill="#fff"/><path opacity=".64" d="M509.944 544.093h-4.35v4.347h4.35v-4.347z" fill="#fff"/><path opacity=".65" d="M515.785 544.093h-4.35v4.347h4.35v-4.347z" fill="#fff"/><path opacity=".07" d="M521.627 544.093h-4.35v4.347h4.35v-4.347z" fill="#fff"/><path opacity=".16" d="M527.344 544.093h-4.35v4.347h4.35v-4.347z" fill="#fff"/><path opacity=".84" d="M533.186 544.093h-4.35v4.347h4.35v-4.347z" fill="#fff"/><path opacity=".88" d="M539.028 544.093h-4.35v4.347h4.35v-4.347z" fill="#fff"/><path opacity=".57" d="M544.745 544.093h-4.35v4.347h4.35v-4.347z" fill="#fff"/><path opacity=".31" d="M550.587 544.093h-4.35v4.347h4.35v-4.347z" fill="#fff"/><path opacity=".03" d="M556.429 544.093h-4.351v4.347h4.351v-4.347z" fill="#fff"/><path opacity=".3" d="M498.385 549.807h-4.351v4.347h4.351v-4.347z" fill="#fff"/><path opacity=".59" d="M504.102 549.807h-4.35v4.347h4.35v-4.347z" fill="#fff"/><path opacity=".93" d="M509.944 549.807h-4.35v4.347h4.35v-4.347z" fill="#fff"/><path opacity=".06" d="M515.785 549.807h-4.35v4.347h4.35v-4.347z" fill="#fff"/><path opacity=".74" d="M521.627 549.807h-4.35v4.347h4.35v-4.347z" fill="#fff"/><path opacity=".22" d="M527.344 549.807h-4.35v4.347h4.35v-4.347z" fill="#fff"/><path opacity=".51" d="M533.186 549.807h-4.35v4.347h4.35v-4.347z" fill="#fff"/><path opacity=".7" d="M539.028 549.807h-4.35v4.347h4.35v-4.347z" fill="#fff"/><path opacity=".47" d="M544.745 549.807h-4.35v4.347h4.35v-4.347z" fill="#fff"/><path opacity=".08" d="M550.587 549.807h-4.35v4.347h4.35v-4.347z" fill="#fff"/><path opacity=".93" d="M556.429 549.807h-4.351v4.347h4.351v-4.347z" fill="#fff"/><path opacity=".81" d="M498.385 555.521h-4.351v4.348h4.351v-4.348z" fill="#fff"/><path opacity=".9" d="M504.102 555.521h-4.35v4.348h4.35v-4.348z" fill="#fff"/><path opacity=".55" d="M509.944 555.521h-4.35v4.348h4.35v-4.348z" fill="#fff"/><path opacity=".14" d="M515.785 555.521h-4.35v4.348h4.35v-4.348z" fill="#fff"/><path opacity=".66" d="M521.627 555.521h-4.35v4.348h4.35v-4.348z" fill="#fff"/><path opacity=".92" d="M527.344 555.521h-4.35v4.348h4.35v-4.348z" fill="#fff"/><path opacity=".4" d="M533.186 555.521h-4.35v4.348h4.35v-4.348z" fill="#fff"/><path opacity=".6" d="M539.028 555.521h-4.35v4.348h4.35v-4.348z" fill="#fff"/><path opacity=".99" d="M544.745 555.521h-4.35v4.348h4.35v-4.348z" fill="#fff"/><path opacity=".68" d="M550.587 555.521h-4.35v4.348h4.35v-4.348z" fill="#fff"/><path opacity=".01" d="M556.429 555.521h-4.351v4.348h4.351v-4.348z" fill="#fff"/><path d="M424.928 441.733h-41.016v128.446h41.016V441.733z" fill="#333"/><path d="M402.556 435.273h-18.644v7.205h18.644v-7.205z" fill="#333"/><path d="M394.726 431.05h-10.814v4.224h10.814v-4.224z" fill="#333"/><path opacity=".25" d="M407.652 450.801h-6.712v6.708h6.712v-6.708z" fill="#fff"/><path opacity=".15" d="M407.652 467.323h-6.712v6.708h6.712v-6.708z" fill="#fff"/><path opacity=".19" d="M407.652 500.242h-6.712v6.708h6.712v-6.708z" fill="#fff"/><path opacity=".17" d="M407.652 516.639h-6.712v6.708h6.712v-6.708z" fill="#fff"/><path opacity=".22" d="M407.652 533.036h-6.712v6.708h6.712v-6.708z" fill="#fff"/><path d="M407.652 549.558h-6.712v6.708h6.712v-6.708z" fill="#fff"/><path d="M394.477 513.285h-38.406v11.305h38.406v-11.305z" fill="#333"/><path d="M413.618 513.285h-19.141v11.305h19.141v-11.305z" fill="#4D4D4D"/><path d="M356.071 513.285l11.932-5.714 26.474 5.714h-38.406z" fill="#333"/><path d="M368.003 507.571l26.474 5.714h19.141l-45.615-5.714z" fill="#4D4D4D"/><path d="M403.426 521.235h-56.18v51.428h56.18v-51.428z" fill="#333"/><path d="M422.07 521.235h-18.644v51.428h18.644v-51.428z" fill="#4D4D4D"/><path opacity=".81" d="M417.72 524.838h-10.068v3.727h10.068v-3.727z" fill="#fff"/><path opacity=".76" d="M417.72 531.67h-10.068v3.727h10.068v-3.727z" fill="#fff"/><path opacity=".32" d="M417.72 538.502h-10.068v3.727h10.068v-3.727z" fill="#fff"/><path opacity=".49" d="M417.72 545.459h-10.068v3.726h10.068v-3.726z" fill="#fff"/><path opacity=".1" d="M366.263 524.838h-10.068v3.727h10.068v-3.727z" fill="#fff"/><path opacity=".04" d="M380.308 524.838H370.24v3.727h10.068v-3.727z" fill="#fff"/><path opacity=".07" d="M394.477 524.838H384.41v3.727h10.067v-3.727z" fill="#fff"/><path opacity=".06" d="M366.263 531.67h-10.068v3.727h10.068v-3.727z" fill="#fff"/><path opacity=".44" d="M380.308 531.67H370.24v3.727h10.068v-3.727z" fill="#fff"/><path opacity=".24" d="M394.477 531.67H384.41v3.727h10.067v-3.727z" fill="#fff"/><path opacity=".55" d="M366.263 538.502h-10.068v3.727h10.068v-3.727z" fill="#fff"/><path opacity=".02" d="M380.308 538.502H370.24v3.727h10.068v-3.727z" fill="#fff"/><path opacity=".14" d="M394.477 538.502H384.41v3.727h10.067v-3.727z" fill="#fff"/><path opacity=".43" d="M366.263 545.459h-10.068v3.726h10.068v-3.726z" fill="#fff"/><path opacity=".41" d="M380.308 545.459H370.24v3.726h10.068v-3.726z" fill="#fff"/><path opacity=".46" d="M394.477 545.459H384.41v3.726h10.067v-3.726z" fill="#fff"/><path opacity=".45" d="M366.263 552.291h-10.068v3.727h10.068v-3.727z" fill="#fff"/><path opacity=".33" d="M380.308 552.291H370.24v3.727h10.068v-3.727z" fill="#fff"/><path opacity=".05" d="M394.477 552.291H384.41v3.727h10.067v-3.727z" fill="#fff"/><path d="M130.11 469.807H95.308v107.204h34.802V469.807z" fill="#333"/><path d="M169.759 469.807h-39.525v107.204h39.525V469.807zm-39.649 9.069H95.308v1.863h34.802v-1.863z" fill="#4D4D4D"/><path d="M169.759 478.876h-39.525v1.863h39.525v-1.863z" fill="#333"/><path opacity=".47" d="M101.896 482.851h-3.729v3.726h3.729v-3.726z" fill="#fff"/><path opacity=".26" d="M106.992 482.851h-3.729v3.726h3.729v-3.726z" fill="#fff"/><path opacity=".32" d="M112.088 482.851h-3.729v3.726h3.729v-3.726z" fill="#fff"/><path opacity=".25" d="M117.184 482.851h-3.729v3.726h3.729v-3.726z" fill="#fff"/><path opacity=".12" d="M127.375 482.851h-3.728v3.726h3.728v-3.726z" fill="#fff"/><path opacity=".32" d="M101.896 487.944h-3.729v3.727h3.729v-3.727z" fill="#fff"/><path opacity=".22" d="M112.088 487.944h-3.729v3.727h3.729v-3.727z" fill="#fff"/><path opacity=".47" d="M117.184 487.944h-3.729v3.727h3.729v-3.727z" fill="#fff"/><path opacity=".22" d="M122.28 487.944h-3.729v3.727h3.729v-3.727z" fill="#fff"/><path opacity=".32" d="M127.375 487.944h-3.728v3.727h3.728v-3.727z" fill="#fff"/><path opacity=".37" d="M101.896 493.037h-3.729v3.727h3.729v-3.727z" fill="#fff"/><path opacity=".34" d="M106.992 493.037h-3.729v3.727h3.729v-3.727z" fill="#fff"/><path opacity=".18" d="M112.088 493.037h-3.729v3.727h3.729v-3.727z" fill="#fff"/><path opacity=".28" d="M117.184 493.037h-3.729v3.727h3.729v-3.727z" fill="#fff"/><path opacity=".2" d="M127.375 493.037h-3.728v3.727h3.728v-3.727z" fill="#fff"/><path opacity=".18" d="M101.896 498.13h-3.729v3.727h3.729v-3.727z" fill="#fff"/><path opacity=".33" d="M112.088 498.13h-3.729v3.727h3.729v-3.727z" fill="#fff"/><path opacity=".05" d="M117.184 498.13h-3.729v3.727h3.729v-3.727z" fill="#fff"/><path opacity=".08" d="M122.28 498.13h-3.729v3.727h3.729v-3.727zm-5.096 5.093h-3.729v3.727h3.729v-3.727z" fill="#fff"/><path opacity=".02" d="M122.28 503.223h-3.729v3.727h3.729v-3.727z" fill="#fff"/><path opacity=".03" d="M101.896 508.316h-3.729v3.727h3.729v-3.727z" fill="#fff"/><path opacity=".46" d="M106.992 508.316h-3.729v3.727h3.729v-3.727z" fill="#fff"/><path opacity=".05" d="M112.088 508.316h-3.729v3.727h3.729v-3.727z" fill="#fff"/><path opacity=".2" d="M117.184 508.316h-3.729v3.727h3.729v-3.727z" fill="#fff"/><path opacity=".23" d="M122.28 508.316h-3.729v3.727h3.729v-3.727z" fill="#fff"/><path opacity=".17" d="M101.896 513.409h-3.729v3.727h3.729v-3.727z" fill="#fff"/><path opacity=".08" d="M106.992 513.409h-3.729v3.727h3.729v-3.727z" fill="#fff"/><path opacity=".14" d="M112.088 513.409h-3.729v3.727h3.729v-3.727z" fill="#fff"/><path opacity=".24" d="M122.28 513.409h-3.729v3.727h3.729v-3.727z" fill="#fff"/><path opacity=".28" d="M101.896 518.502h-3.729v3.727h3.729v-3.727z" fill="#fff"/><path opacity=".3" d="M106.992 518.502h-3.729v3.727h3.729v-3.727z" fill="#fff"/><path opacity=".23" d="M112.088 518.502h-3.729v3.727h3.729v-3.727z" fill="#fff"/><path opacity=".02" d="M117.184 518.502h-3.729v3.727h3.729v-3.727z" fill="#fff"/><path opacity=".04" d="M122.28 518.502h-3.729v3.727h3.729v-3.727z" fill="#fff"/><path opacity=".3" d="M127.375 518.502h-3.728v3.727h3.728v-3.727z" fill="#fff"/><path opacity=".08" d="M106.992 523.471h-3.729v3.727h3.729v-3.727z" fill="#fff"/><path opacity=".4" d="M127.375 523.471h-3.728v3.727h3.728v-3.727z" fill="#fff"/><path opacity=".31" d="M101.896 528.564h-3.729v3.727h3.729v-3.727zm5.096 0h-3.729v3.727h3.729v-3.727z" fill="#fff"/><path opacity=".12" d="M112.088 528.564h-3.729v3.727h3.729v-3.727z" fill="#fff"/><path opacity=".19" d="M122.28 528.564h-3.729v3.727h3.729v-3.727z" fill="#fff"/><path opacity=".43" d="M127.375 528.564h-3.728v3.727h3.728v-3.727z" fill="#fff"/><path opacity=".12" d="M101.896 533.658h-3.729v3.727h3.729v-3.727z" fill="#fff"/><path opacity=".42" d="M117.184 533.658h-3.729v3.727h3.729v-3.727z" fill="#fff"/><path opacity=".31" d="M127.375 533.658h-3.728v3.727h3.728v-3.727z" fill="#fff"/><path opacity=".23" d="M101.896 538.751h-3.729v3.726h3.729v-3.726z" fill="#fff"/><path opacity=".31" d="M117.184 538.751h-3.729v3.726h3.729v-3.726z" fill="#fff"/><path opacity=".33" d="M127.375 538.751h-3.728v3.726h3.728v-3.726z" fill="#fff"/><path opacity=".49" d="M101.896 543.844h-3.729v3.727h3.729v-3.727z" fill="#fff"/><path opacity=".06" d="M106.992 543.844h-3.729v3.727h3.729v-3.727z" fill="#fff"/><path opacity=".17" d="M117.184 543.844h-3.729v3.727h3.729v-3.727z" fill="#fff"/><path opacity=".01" d="M122.28 543.844h-3.729v3.727h3.729v-3.727z" fill="#fff"/><path opacity=".48" d="M127.375 543.844h-3.728v3.727h3.728v-3.727z" fill="#fff"/><path opacity=".05" d="M101.896 548.937h-3.729v3.727h3.729v-3.727z" fill="#fff"/><path opacity=".23" d="M106.992 548.937h-3.729v3.727h3.729v-3.727z" fill="#fff"/><path opacity=".28" d="M112.088 548.937h-3.729v3.727h3.729v-3.727z" fill="#fff"/><path opacity=".02" d="M117.184 548.937h-3.729v3.727h3.729v-3.727z" fill="#fff"/><path opacity=".17" d="M122.28 548.937h-3.729v3.727h3.729v-3.727z" fill="#fff"/><path opacity=".42" d="M127.375 548.937h-3.728v3.727h3.728v-3.727z" fill="#fff"/><path opacity=".13" d="M101.896 554.03h-3.729v3.727h3.729v-3.727z" fill="#fff"/><path opacity=".11" d="M112.088 554.03h-3.729v3.727h3.729v-3.727z" fill="#fff"/><path opacity=".02" d="M117.184 554.03h-3.729v3.727h3.729v-3.727z" fill="#fff"/><path opacity=".3" d="M127.375 554.03h-3.728v3.727h3.728v-3.727z" fill="#fff"/><path opacity=".08" d="M122.28 482.851h-3.729v3.726h3.729v-3.726z" fill="#fff"/><path opacity=".1" d="M106.992 487.944h-3.729v3.727h3.729v-3.727z" fill="#fff"/><path opacity=".08" d="M122.28 493.037h-3.729v3.727h3.729v-3.727z" fill="#fff"/><path opacity=".1" d="M106.992 498.13h-3.729v3.727h3.729v-3.727z" fill="#fff"/><path opacity=".01" d="M127.375 498.13h-3.728v3.727h3.728v-3.727z" fill="#fff"/><path opacity=".17" d="M101.896 503.223h-3.729v3.727h3.729v-3.727z" fill="#fff"/><path opacity=".01" d="M106.992 503.223h-3.729v3.727h3.729v-3.727z" fill="#fff"/><path opacity=".15" d="M112.088 503.223h-3.729v3.727h3.729v-3.727z" fill="#fff"/><path opacity=".12" d="M127.375 503.223h-3.728v3.727h3.728v-3.727z" fill="#fff"/><path opacity=".13" d="M117.184 513.409h-3.729v3.727h3.729v-3.727z" fill="#fff"/><path opacity=".07" d="M127.375 513.409h-3.728v3.727h3.728v-3.727z" fill="#fff"/><path opacity=".13" d="M101.896 523.471h-3.729v3.727h3.729v-3.727z" fill="#fff"/><path opacity=".02" d="M112.088 523.471h-3.729v3.727h3.729v-3.727zm5.096 0h-3.729v3.727h3.729v-3.727z" fill="#fff"/><path opacity=".14" d="M122.28 523.471h-3.729v3.727h3.729v-3.727z" fill="#fff"/><path opacity=".09" d="M112.088 533.658h-3.729v3.727h3.729v-3.727z" fill="#fff"/><path opacity=".02" d="M122.28 533.658h-3.729v3.727h3.729v-3.727z" fill="#fff"/><path opacity=".19" d="M112.088 538.751h-3.729v3.726h3.729v-3.726z" fill="#fff"/><path opacity=".06" d="M122.28 538.751h-3.729v3.726h3.729v-3.726z" fill="#fff"/><path opacity=".16" d="M112.088 543.844h-3.729v3.727h3.729v-3.727z" fill="#fff"/><path opacity=".19" d="M106.992 554.03h-3.729v3.727h3.729v-3.727z" fill="#fff"/><path opacity=".04" d="M122.28 554.03h-3.729v3.727h3.729v-3.727z" fill="#fff"/><path opacity=".7" d="M137.692 480.739h-3.853v91.552h3.853v-91.552zm6.587 0h-3.853v91.552h3.853v-91.552zm6.712 0h-3.853v91.552h3.853v-91.552zm6.711 0h-3.853v91.552h3.853v-91.552zm6.712 0h-3.853v91.552h3.853v-91.552z" fill="#E6E6E6"/><path d="M52.552 417.261l-7.706-20.372 20.632 20.372H52.552z" fill="#4D4D4D"/><path d="M34.53 417.261l10.316-20.372 7.706 20.372H34.53zm18.022 0H34.53V439h18.022v-21.739z" fill="#333"/><path d="M65.478 417.261H52.552V439h12.926v-21.739z" fill="#4D4D4D"/><path d="M70.823 515.024H16.259v62.484h54.564v-62.484zm-7.458-44.72H23.841v44.72h39.524v-44.72zm-5.717-44.72h-28.09v44.72h28.09v-44.72z" fill="#333"/><path d="M76.913 425.584h-19.39v44.72h19.39v-44.72zm27.468 89.44H70.823v62.484h33.558v-62.484zm-15.536-44.72h-25.48v44.72h25.48v-44.72z" fill="#4D4D4D"/><path opacity=".53" d="M70.201 428.814H64.36v5.838h5.84v-5.838z" fill="#fff"/><path opacity=".34" d="M70.201 436.143H64.36v5.838h5.84v-5.838z" fill="#fff"/><path opacity=".9" d="M70.201 443.348H64.36v5.838h5.84v-5.838z" fill="#fff"/><path opacity=".14" d="M70.201 450.553H64.36v5.838h5.84v-5.838z" fill="#fff"/><path d="M70.201 457.882H64.36v5.838h5.84v-5.838z" fill="#fff"/><path opacity=".29" d="M74.552 474.155H68.71v5.838h5.842v-5.838z" fill="#fff"/><path opacity=".81" d="M83.5 474.155h-5.84v5.838h5.84v-5.838z" fill="#fff"/><path opacity=".18" d="M74.552 481.484H68.71v5.839h5.842v-5.839z" fill="#fff"/><path opacity=".41" d="M83.5 481.484h-5.84v5.839h5.84v-5.839z" fill="#fff"/><path opacity=".03" d="M83.5 488.938h-5.84v5.838h5.84v-5.838z" fill="#fff"/><path opacity=".85" d="M74.552 496.391H68.71v5.838h5.842v-5.838z" fill="#fff"/><path opacity=".06" d="M83.5 496.391h-5.84v5.838h5.84v-5.838z" fill="#fff"/><path opacity=".94" d="M74.552 503.72H68.71v5.838h5.842v-5.838z" fill="#fff"/><path opacity=".25" d="M83.5 503.72h-5.84v5.838h5.84v-5.838z" fill="#fff"/><path opacity=".6" d="M82.755 518.875h-5.842v5.838h5.842v-5.838z" fill="#fff"/><path opacity=".83" d="M90.585 518.875h-5.841v5.838h5.841v-5.838z" fill="#fff"/><path opacity=".74" d="M98.415 518.875h-5.841v5.838h5.841v-5.838z" fill="#fff"/><path opacity=".35" d="M90.585 525.956h-5.841v5.838h5.841v-5.838z" fill="#fff"/><path opacity=".54" d="M98.415 525.956h-5.841v5.838h5.841v-5.838z" fill="#fff"/><path opacity=".2" d="M82.755 533.036h-5.842v5.839h5.842v-5.839z" fill="#fff"/><path opacity=".04" d="M90.585 533.036h-5.841v5.839h5.841v-5.839z" fill="#fff"/><path opacity=".86" d="M98.415 533.036h-5.841v5.839h5.841v-5.839z" fill="#fff"/><path opacity=".06" d="M82.755 540.117h-5.842v5.839h5.842v-5.839z" fill="#fff"/><path opacity=".01" d="M90.585 540.117h-5.841v5.839h5.841v-5.839z" fill="#fff"/><path opacity=".39" d="M98.415 540.117h-5.841v5.839h5.841v-5.839z" fill="#fff"/><path opacity=".1" d="M82.755 547.322h-5.842v5.838h5.842v-5.838z" fill="#fff"/><path d="M90.585 547.322h-5.841v5.838h5.841v-5.838z" fill="#fff"/><path opacity=".62" d="M98.415 547.322h-5.841v5.838h5.841v-5.838z" fill="#fff"/><path opacity=".48" d="M82.755 554.651h-5.842v5.839h5.842v-5.839z" fill="#fff"/><path opacity=".27" d="M90.585 554.651h-5.841v5.839h5.841v-5.839z" fill="#fff"/><path opacity=".42" d="M98.415 554.651h-5.841v5.839h5.841v-5.839z" fill="#fff"/><path opacity=".27" d="M27.942 518.875h-5.841v5.838h5.841v-5.838z" fill="#fff"/><path opacity=".11" d="M34.53 474.155h-5.842v5.838h5.842v-5.838z" fill="#fff"/><path opacity=".41" d="M39.129 428.814h-5.842v5.838h5.842v-5.838z" fill="#fff"/><path opacity=".38" d="M46.462 428.814H40.62v5.838h5.842v-5.838z" fill="#fff"/><path opacity=".02" d="M53.92 428.814h-5.842v5.838h5.841v-5.838z" fill="#fff"/><path opacity=".46" d="M39.129 436.143h-5.842v5.838h5.842v-5.838z" fill="#fff"/><path opacity=".31" d="M46.462 436.143H40.62v5.838h5.842v-5.838z" fill="#fff"/><path opacity=".61" d="M53.92 436.143h-5.842v5.838h5.841v-5.838z" fill="#fff"/><path opacity=".03" d="M39.129 443.348h-5.842v5.838h5.842v-5.838zm7.333 0H40.62v5.838h5.842v-5.838z" fill="#fff"/><path opacity=".46" d="M53.92 443.348h-5.842v5.838h5.841v-5.838z" fill="#fff"/><path opacity=".32" d="M39.129 450.553h-5.842v5.838h5.842v-5.838z" fill="#fff"/><path opacity=".14" d="M46.462 450.553H40.62v5.838h5.842v-5.838z" fill="#fff"/><path opacity=".3" d="M53.92 450.553h-5.842v5.838h5.841v-5.838z" fill="#fff"/><path opacity=".04" d="M39.129 457.882h-5.842v5.838h5.842v-5.838z" fill="#fff"/><path opacity=".64" d="M46.462 457.882H40.62v5.838h5.842v-5.838z" fill="#fff"/><path opacity=".05" d="M53.92 457.882h-5.842v5.838h5.841v-5.838z" fill="#fff"/><path opacity=".15" d="M41.987 474.155h-5.841v5.838h5.841v-5.838zm7.458 0h-5.842v5.838h5.842v-5.838z" fill="#fff"/><path opacity=".52" d="M56.778 474.155h-5.842v5.838h5.842v-5.838z" fill="#fff"/><path opacity=".58" d="M34.53 481.484h-5.842v5.839h5.842v-5.839z" fill="#fff"/><path opacity=".62" d="M41.987 481.484h-5.841v5.839h5.841v-5.839z" fill="#fff"/><path opacity=".04" d="M49.445 481.484h-5.842v5.839h5.842v-5.839z" fill="#fff"/><path opacity=".06" d="M56.778 481.484h-5.842v5.839h5.842v-5.839z" fill="#fff"/><path opacity=".3" d="M34.53 488.938h-5.842v5.838h5.842v-5.838z" fill="#fff"/><path opacity=".01" d="M41.987 488.938h-5.841v5.838h5.841v-5.838z" fill="#fff"/><path opacity=".37" d="M49.445 488.938h-5.842v5.838h5.842v-5.838z" fill="#fff"/><path opacity=".62" d="M56.778 488.938h-5.842v5.838h5.842v-5.838z" fill="#fff"/><path opacity=".54" d="M34.53 496.391h-5.842v5.838h5.842v-5.838z" fill="#fff"/><path opacity=".21" d="M41.987 496.391h-5.841v5.838h5.841v-5.838z" fill="#fff"/><path opacity=".41" d="M49.445 496.391h-5.842v5.838h5.842v-5.838z" fill="#fff"/><path opacity=".1" d="M56.778 496.391h-5.842v5.838h5.842v-5.838z" fill="#fff"/><path opacity=".17" d="M34.53 503.72h-5.842v5.838h5.842v-5.838zm7.457 0h-5.841v5.838h5.841v-5.838z" fill="#fff"/><path opacity=".13" d="M49.445 503.72h-5.842v5.838h5.842v-5.838z" fill="#fff"/><path opacity=".5" d="M56.778 503.72h-5.842v5.838h5.842v-5.838z" fill="#fff"/><path opacity=".06" d="M35.4 518.875h-5.842v5.838H35.4v-5.838z" fill="#fff"/><path opacity=".27" d="M42.733 518.875h-5.842v5.838h5.842v-5.838z" fill="#fff"/><path opacity=".51" d="M50.19 518.875h-5.84v5.838h5.842v-5.838z" fill="#fff"/><path opacity=".42" d="M57.648 518.875h-5.842v5.838h5.842v-5.838z" fill="#fff"/><path opacity=".64" d="M64.981 518.875H59.14v5.838h5.841v-5.838z" fill="#fff"/><path opacity=".29" d="M27.942 525.956h-5.841v5.838h5.841v-5.838z" fill="#fff"/><path opacity=".6" d="M35.4 525.956h-5.842v5.838H35.4v-5.838z" fill="#fff"/><path opacity=".2" d="M42.733 525.956h-5.842v5.838h5.842v-5.838z" fill="#fff"/><path opacity=".24" d="M50.19 525.956h-5.84v5.838h5.842v-5.838z" fill="#fff"/><path opacity=".62" d="M57.648 525.956h-5.842v5.838h5.842v-5.838zm7.333 0H59.14v5.838h5.841v-5.838z" fill="#fff"/><path opacity=".25" d="M27.942 533.036h-5.841v5.839h5.841v-5.839z" fill="#fff"/><path opacity=".36" d="M35.4 533.036h-5.842v5.839H35.4v-5.839z" fill="#fff"/><path opacity=".16" d="M42.733 533.036h-5.842v5.839h5.842v-5.839z" fill="#fff"/><path opacity=".1" d="M50.19 533.036h-5.84v5.839h5.842v-5.839z" fill="#fff"/><path opacity=".04" d="M57.648 533.036h-5.842v5.839h5.842v-5.839z" fill="#fff"/><path opacity=".44" d="M64.981 533.036H59.14v5.839h5.841v-5.839z" fill="#fff"/><path opacity=".68" d="M27.942 540.117h-5.841v5.839h5.841v-5.839z" fill="#fff"/><path opacity=".01" d="M35.4 540.117h-5.842v5.839H35.4v-5.839z" fill="#fff"/><path opacity=".29" d="M42.733 540.117h-5.842v5.839h5.842v-5.839z" fill="#fff"/><path opacity=".66" d="M50.19 540.117h-5.84v5.839h5.842v-5.839z" fill="#fff"/><path opacity=".12" d="M57.648 540.117h-5.842v5.839h5.842v-5.839z" fill="#fff"/><path opacity=".34" d="M64.981 540.117H59.14v5.839h5.841v-5.839z" fill="#fff"/><path opacity=".36" d="M27.942 547.322h-5.841v5.838h5.841v-5.838z" fill="#fff"/><path opacity=".5" d="M35.4 547.322h-5.842v5.838H35.4v-5.838z" fill="#fff"/><path opacity=".07" d="M42.733 547.322h-5.842v5.838h5.842v-5.838z" fill="#fff"/><path opacity=".64" d="M50.19 547.322h-5.84v5.838h5.842v-5.838z" fill="#fff"/><path opacity=".4" d="M57.648 547.322h-5.842v5.838h5.842v-5.838z" fill="#fff"/><path opacity=".27" d="M64.981 547.322H59.14v5.838h5.841v-5.838z" fill="#fff"/><path opacity=".09" d="M27.942 554.651h-5.841v5.839h5.841v-5.839z" fill="#fff"/><path opacity=".47" d="M35.4 554.651h-5.842v5.839H35.4v-5.839z" fill="#fff"/><path opacity=".57" d="M42.733 554.651h-5.842v5.839h5.842v-5.839z" fill="#fff"/><path opacity=".12" d="M50.19 554.651h-5.84v5.839h5.842v-5.839z" fill="#fff"/><path opacity=".23" d="M57.648 554.651h-5.842v5.839h5.842v-5.839z" fill="#fff"/><path opacity=".36" d="M64.981 554.651H59.14v5.839h5.841v-5.839z" fill="#fff"/><path d="M189.645 572.291h-77.309l77.309-67.329v67.329zM23.84 573.657H-83.297L23.84 480.49v93.167z" fill="#333"/><path d="M181.069 556.887h-22.621v6.957h22.621v-6.957z" fill="#4D4D4D"/><path d="M178.459 558.999h-17.525l6.09-10.186h5.345l6.09 10.186z" fill="#4D4D4D"/><path d="M84.37 566.701c0 4.844-3.852 8.819-8.575 8.819-4.724 0-8.577-3.975-8.577-8.819 0-4.845 3.853-8.82 8.577-8.82 4.723-.124 8.576 3.851 8.576 8.82zm230.809-3.851c0 3.23-2.61 5.963-5.717 5.963-3.107 0-5.717-2.609-5.717-5.963 0-3.23 2.61-5.963 5.717-5.963 3.107 0 5.717 2.733 5.717 5.963zm-200.233.372c0 3.354-2.61 6.087-5.966 6.087-3.231 0-5.966-2.733-5.966-6.087 0-3.354 2.61-6.087 5.966-6.087 3.356 0 5.966 2.733 5.966 6.087z" fill="#333"/></g><defs><clipPath id="clip0"><path fill="#fff" d="M-174.776-.001h811v559h-811z"/></clipPath></defs></svg>