<svg width="779" height="637" fill="none" xmlns="http://www.w3.org/2000/svg"><path d="M-52.61 551.488A316.562 316.562 0 01347.386 62.026" stroke="url(#paint0_linear)" stroke-width="3" stroke-linecap="round" stroke-linejoin="round"/><path d="M380.543 546.184A316.564 316.564 0 01-4.55 587.848" stroke="url(#paint1_linear)" stroke-width="3" stroke-linecap="round" stroke-linejoin="round"/><path d="M399.385 109.657a316.52 316.52 0 0139.107 55.792" stroke="url(#paint2_linear)" stroke-width="3" stroke-linecap="round" stroke-linejoin="round"/><path d="M463.453 224.544a316.547 316.547 0 0114.161 96.152" stroke="url(#paint3_linear)" stroke-width="3" stroke-linecap="round" stroke-linejoin="round"/><path d="M469.183 390.817a316.583 316.583 0 01-38.978 94.037" stroke="url(#paint4_linear)" stroke-width="3" stroke-linecap="round"/><path d="M418.276 63.132v4.68h5.148v-4.68h1.836v12.006h-1.836V69.54h-5.148v5.598h-1.836V63.132h1.836zm15.091 5.31v-.882h1.764v7.578h-1.764v-.792c-.588.684-1.344 1.026-2.268 1.026-1.116 0-2.01-.396-2.682-1.188-.66-.792-.99-1.74-.99-2.844 0-1.2.354-2.16 1.062-2.88.72-.732 1.596-1.098 2.628-1.098.948 0 1.698.36 2.25 1.08zm-2.034.504c-.624 0-1.134.234-1.53.702-.384.468-.576 1.044-.576 1.728 0 .672.192 1.242.576 1.71.396.468.906.702 1.53.702.6 0 1.104-.21 1.512-.63.42-.42.63-1.008.63-1.764 0-.78-.21-1.38-.63-1.8a1.997 1.997 0 00-1.512-.648zm6.035 6.192V67.56h1.764v5.958h2.52V67.56h1.764v5.958h2.52V67.56h1.764v7.578h-10.332zm22.637-7.236v2.322c-.492-.852-1.224-1.278-2.196-1.278-.612 0-1.146.216-1.602.648-.444.432-.666 1.02-.666 1.764 0 .684.204 1.26.612 1.728.42.468.966.702 1.638.702.444 0 .864-.114 1.26-.342.396-.228.714-.546.954-.954v2.322a4.125 4.125 0 01-2.088.558c-1.308 0-2.34-.384-3.096-1.152-.72-.744-1.08-1.692-1.08-2.844 0-1.212.408-2.208 1.224-2.988.72-.684 1.686-1.026 2.898-1.026.828 0 1.542.18 2.142.54zm1.691-.342h6.588v7.578h-1.764V69.18h-3.06v5.958h-1.764V67.56zm14.26 4.77l1.476.828c-.276.528-.606.96-.99 1.296-.696.612-1.542.918-2.538.918-1.032 0-1.92-.342-2.664-1.026-.744-.684-1.116-1.668-1.116-2.952 0-1.2.336-2.172 1.008-2.916.672-.744 1.566-1.116 2.682-1.116 1.248 0 2.196.462 2.844 1.386.468.672.702 1.59.702 2.754v.27h-5.436c.024.648.24 1.146.648 1.494.42.348.888.522 1.404.522.468 0 .87-.138 1.206-.414.336-.252.594-.6.774-1.044zm-3.906-1.998h3.51a1.72 1.72 0 00-.63-1.008 1.72 1.72 0 00-1.116-.378 1.72 1.72 0 00-1.116.378 1.943 1.943 0 00-.648 1.008zm7.224 4.806V67.56h1.764v5.958h2.988V67.56h1.764v5.958h1.26v3.78h-1.62v-2.16h-6.156zm9.035-7.578h1.764v4.302l5.184-4.986v8.262h-1.764v-4.41l-5.184 4.986V67.56zm14.72.882v-.882h1.764v7.578h-1.764v-.792c-.588.684-1.344 1.026-2.268 1.026-1.116 0-2.01-.396-2.682-1.188-.66-.792-.99-1.74-.99-2.844 0-1.2.354-2.16 1.062-2.88.72-.732 1.596-1.098 2.628-1.098.948 0 1.698.36 2.25 1.08zm-2.034.504c-.624 0-1.134.234-1.53.702-.384.468-.576 1.044-.576 1.728 0 .672.192 1.242.576 1.71.396.468.906.702 1.53.702.6 0 1.104-.21 1.512-.63.42-.42.63-1.008.63-1.764 0-.78-.21-1.38-.63-1.8a1.997 1.997 0 00-1.512-.648zm12.263-1.386v7.578h-1.764V69.18h-2.232v3.006c0 .936-.24 1.662-.72 2.178-.612.684-1.44.942-2.484.774v-1.62c.516.12.93.006 1.242-.342.18-.216.27-.546.27-.99V67.56h5.688zm2.227 0h1.764v4.302l5.184-4.986v8.262h-1.764v-4.41l-5.184 4.986V67.56zm15.044.342v2.322c-.492-.852-1.224-1.278-2.196-1.278-.612 0-1.146.216-1.602.648-.444.432-.666 1.02-.666 1.764 0 .684.204 1.26.612 1.728.42.468.966.702 1.638.702.444 0 .864-.114 1.26-.342.396-.228.714-.546.954-.954v2.322a4.125 4.125 0 01-2.088.558c-1.308 0-2.34-.384-3.096-1.152-.72-.744-1.08-1.692-1.08-2.844 0-1.212.408-2.208 1.224-2.988.72-.684 1.686-1.026 2.898-1.026.828 0 1.542.18 2.142.54zm6.911 1.278h-2.214v5.958h-1.764V69.18h-2.214v-1.62h6.192v1.62zm5.467-1.62h6.588v7.578h-1.764V69.18h-3.06v5.958h-1.764V67.56zm10.588 6.696v5.004h-1.764v-11.7h1.764v.828c.576-.684 1.326-1.026 2.25-1.026 1.032 0 1.902.366 2.61 1.098.72.72 1.08 1.668 1.08 2.844 0 1.212-.372 2.196-1.116 2.952-.744.744-1.596 1.116-2.556 1.116-.9 0-1.656-.372-2.268-1.116zm2.034-5.31c-.6 0-1.11.216-1.53.648-.408.42-.612 1.02-.612 1.8 0 .756.204 1.344.612 1.764.42.42.93.63 1.53.63.624 0 1.128-.234 1.512-.702.396-.468.594-1.038.594-1.71 0-.684-.198-1.26-.594-1.728-.384-.468-.888-.702-1.512-.702zm5.747-1.386h1.764v4.302l5.184-4.986v8.262h-1.764v-4.41l-5.184 4.986V67.56zm14.612 4.77l1.476.828c-.276.528-.606.96-.99 1.296-.696.612-1.542.918-2.538.918-1.032 0-1.92-.342-2.664-1.026-.744-.684-1.116-1.668-1.116-2.952 0-1.2.336-2.172 1.008-2.916.672-.744 1.566-1.116 2.682-1.116 1.248 0 2.196.462 2.844 1.386.468.672.702 1.59.702 2.754v.27h-5.436c.024.648.24 1.146.648 1.494.42.348.888.522 1.404.522.468 0 .87-.138 1.206-.414.336-.252.594-.6.774-1.044zm-3.906-1.998h3.51a1.72 1.72 0 00-.63-1.008 1.72 1.72 0 00-1.116-.378 1.72 1.72 0 00-1.116.378 1.943 1.943 0 00-.648 1.008zm7.872-2.772h5.688v5.958h1.152v3.78h-1.62v-2.16h-5.292v2.16h-1.62v-3.78c.612-.036 1.074-.366 1.386-.99.204-.444.306-1.11.306-1.998v-2.97zm3.924 5.958V69.18h-2.232v2.016c0 1.092-.294 1.866-.882 2.322h3.114zm9.618-1.188l1.476.828c-.276.528-.606.96-.99 1.296-.696.612-1.542.918-2.538.918-1.032 0-1.92-.342-2.664-1.026-.744-.684-1.116-1.668-1.116-2.952 0-1.2.336-2.172 1.008-2.916.672-.744 1.566-1.116 2.682-1.116 1.248 0 2.196.462 2.844 1.386.468.672.702 1.59.702 2.754v.27h-5.436c.024.648.24 1.146.648 1.494.42.348.888.522 1.404.522.468 0 .87-.138 1.206-.414.336-.252.594-.6.774-1.044zm-3.906-1.998H593a1.72 1.72 0 00-.63-1.008 1.72 1.72 0 00-1.116-.378 1.72 1.72 0 00-1.116.378 1.943 1.943 0 00-.648 1.008zm12.444-1.152h-2.214v5.958h-1.764V69.18h-2.214v-1.62h6.192v1.62zm6.115-1.62h5.688v5.958h1.152v3.78h-1.62v-2.16h-5.292v2.16h-1.62v-3.78c.612-.036 1.074-.366 1.386-.99.204-.444.306-1.11.306-1.998v-2.97zm3.924 5.958V69.18h-2.232v2.016c0 1.092-.294 1.866-.882 2.322h3.114zm10.41-5.958v7.578h-1.764V69.18h-2.232v3.006c0 .936-.24 1.662-.72 2.178-.612.684-1.44.942-2.484.774v-1.62c.516.12.93.006 1.242-.342.18-.216.27-.546.27-.99V67.56h5.688zm1.255 7.578l2.376-3.006a2.228 2.228 0 01-1.206-.576c-.42-.408-.63-.93-.63-1.566 0-.72.234-1.302.702-1.746.48-.456 1.212-.684 2.196-.684h2.826v7.578h-1.764v-2.79h-.36l-2.07 2.79h-2.07zm4.5-4.23v-1.836h-1.026c-.42 0-.726.054-.918.162-.288.18-.432.432-.432.756s.12.57.36.738c.18.12.504.18.972.18h1.044zm9.367-1.386l-1.134-.99c.276-.312.6-.564.972-.756a3.897 3.897 0 011.8-.414c.828 0 1.482.18 1.962.54.516.396.774.876.774 1.44 0 .756-.348 1.29-1.044 1.602.36.06.69.222.99.486.396.372.594.816.594 1.332 0 .408-.096.792-.288 1.152-.192.36-.45.648-.774.864-.588.396-1.332.594-2.232.594-.852 0-1.578-.21-2.178-.63-.396-.276-.732-.666-1.008-1.17l1.404-.72c.132.312.33.564.594.756.3.216.666.324 1.098.324.492 0 .87-.084 1.134-.252.3-.204.45-.492.45-.864 0-.336-.12-.582-.36-.738-.204-.132-.54-.198-1.008-.198h-.918v-1.44h.792c.336 0 .588-.06.756-.18a.705.705 0 00.306-.612.755.755 0 00-.324-.648c-.18-.132-.45-.198-.81-.198-.372 0-.696.078-.972.234-.216.108-.408.27-.576.486zm12.301-1.08v-.882h1.764v7.578h-1.764v-.792c-.588.684-1.344 1.026-2.268 1.026-1.116 0-2.01-.396-2.682-1.188-.66-.792-.99-1.74-.99-2.844 0-1.2.354-2.16 1.062-2.88.72-.732 1.596-1.098 2.628-1.098.948 0 1.698.36 2.25 1.08zm-2.034.504c-.624 0-1.134.234-1.53.702-.384.468-.576 1.044-.576 1.728 0 .672.192 1.242.576 1.71.396.468.906.702 1.53.702.6 0 1.104-.21 1.512-.63.42-.42.63-1.008.63-1.764 0-.78-.21-1.38-.63-1.8a1.997 1.997 0 00-1.512-.648zm5.171 6.192l1.836-8.262 3.132 5.778 3.132-5.778 1.836 8.262h-1.8l-.756-3.798-2.412 4.374-2.412-4.374-.756 3.798h-1.8zm16.742-2.808l1.476.828c-.276.528-.606.96-.99 1.296-.696.612-1.542.918-2.538.918-1.032 0-1.92-.342-2.664-1.026-.744-.684-1.116-1.668-1.116-2.952 0-1.2.336-2.172 1.008-2.916.672-.744 1.566-1.116 2.682-1.116 1.248 0 2.196.462 2.844 1.386.468.672.702 1.59.702 2.754v.27h-5.436c.024.648.24 1.146.648 1.494.42.348.888.522 1.404.522.468 0 .87-.138 1.206-.414.336-.252.594-.6.774-1.044zm-3.906-1.998h3.51a1.72 1.72 0 00-.63-1.008 1.72 1.72 0 00-1.116-.378 1.72 1.72 0 00-1.116.378 1.943 1.943 0 00-.648 1.008zm8.988 3.924v5.004h-1.764v-11.7h1.764v.828c.576-.684 1.326-1.026 2.25-1.026 1.032 0 1.902.366 2.61 1.098.72.72 1.08 1.668 1.08 2.844 0 1.212-.372 2.196-1.116 2.952-.744.744-1.596 1.116-2.556 1.116-.9 0-1.656-.372-2.268-1.116zm2.034-5.31c-.6 0-1.11.216-1.53.648-.408.42-.612 1.02-.612 1.8 0 .756.204 1.344.612 1.764.42.42.93.63 1.53.63.624 0 1.128-.234 1.512-.702.396-.468.594-1.038.594-1.71 0-.684-.198-1.26-.594-1.728-.384-.468-.888-.702-1.512-.702zm6.503-.45c.78-.756 1.746-1.134 2.898-1.134 1.152 0 2.112.378 2.88 1.134.78.744 1.17 1.698 1.17 2.862 0 1.152-.39 2.112-1.17 2.88-.768.756-1.728 1.134-2.88 1.134s-2.118-.378-2.898-1.134c-.768-.768-1.152-1.728-1.152-2.88 0-1.164.384-2.118 1.152-2.862zm1.26 4.644c.408.432.954.648 1.638.648.684 0 1.23-.216 1.638-.648.408-.444.612-1.032.612-1.764 0-.804-.222-1.41-.666-1.818-.432-.408-.96-.612-1.584-.612-.624 0-1.158.204-1.602.612-.432.408-.648 1.014-.648 1.818 0 .732.204 1.32.612 1.764zm7.529-5.58h2.97c.756 0 1.332.15 1.728.45.468.372.702.858.702 1.458 0 .684-.3 1.176-.9 1.476.384.072.726.24 1.026.504.396.36.594.846.594 1.458 0 .732-.276 1.308-.828 1.728-.456.336-1.038.504-1.746.504h-3.546V67.56zm1.764 2.952h.9c.312 0 .546-.054.702-.162a.684.684 0 00.342-.612.688.688 0 00-.306-.594c-.144-.096-.402-.144-.774-.144h-.864v1.512zm0 3.186h1.314c.396 0 .702-.072.918-.216a.749.749 0 00.36-.666c0-.312-.114-.534-.342-.666-.204-.132-.498-.198-.882-.198h-1.368v1.746zm10.4-6.138h2.97c.756 0 1.332.15 1.728.45.468.372.702.858.702 1.458 0 .684-.3 1.176-.9 1.476.384.072.726.24 1.026.504.396.36.594.846.594 1.458 0 .732-.276 1.308-.828 1.728-.456.336-1.038.504-1.746.504h-3.546V67.56zm1.764 2.952h.9c.312 0 .546-.054.702-.162a.684.684 0 00.342-.612.688.688 0 00-.306-.594c-.144-.096-.402-.144-.774-.144h-.864v1.512zm0 3.186h1.314c.396 0 .702-.072.918-.216a.749.749 0 00.36-.666c0-.312-.114-.534-.342-.666-.204-.132-.498-.198-.882-.198h-1.368v1.746zm11.048-6.138h5.688v5.958h1.152v3.78h-1.62v-2.16h-5.292v2.16h-1.62v-3.78c.612-.036 1.074-.366 1.386-.99.204-.444.306-1.11.306-1.998v-2.97zm3.924 5.958V69.18h-2.232v2.016c0 1.092-.294 1.866-.882 2.322h3.114zm9.618-1.188l1.476.828c-.276.528-.606.96-.99 1.296-.696.612-1.542.918-2.538.918-1.032 0-1.92-.342-2.664-1.026-.744-.684-1.116-1.668-1.116-2.952 0-1.2.336-2.172 1.008-2.916.672-.744 1.566-1.116 2.682-1.116 1.248 0 2.196.462 2.844 1.386.468.672.702 1.59.702 2.754v.27h-5.436c.024.648.24 1.146.648 1.494.42.348.888.522 1.404.522.468 0 .87-.138 1.206-.414.336-.252.594-.6.774-1.044zm-3.906-1.998h3.51a1.72 1.72 0 00-.63-1.008 1.72 1.72 0 00-1.116-.378 1.72 1.72 0 00-1.116.378 1.943 1.943 0 00-.648 1.008zm7.224 4.806V67.56h1.764v2.808h3.132V67.56h1.764v7.578h-1.764v-3.15h-3.132v3.15h-1.764zm8.894 0V67.56h1.764v2.682h1.008c.324 0 .588.012.792.036.204.012.45.078.738.198.288.12.54.3.756.54.396.444.594.996.594 1.656 0 .756-.228 1.362-.684 1.818-.204.204-.45.36-.738.468a2.73 2.73 0 01-.702.162 12.5 12.5 0 01-.774.018h-2.754zm1.764-1.512h.81c.432 0 .738-.054.918-.162a.909.909 0 00.396-.774c0-.336-.126-.588-.378-.756-.192-.12-.498-.18-.918-.18h-.828v1.872zM416.116 88.56h1.764v2.7l2.52-2.7h2.34l-3.312 3.312 3.492 4.266h-2.232l-2.52-3.114-.288.288v2.826h-1.764V88.56zm8.719.936c.78-.756 1.746-1.134 2.898-1.134 1.152 0 2.112.378 2.88 1.134.78.744 1.17 1.698 1.17 2.862 0 1.152-.39 2.112-1.17 2.88-.768.756-1.728 1.134-2.88 1.134s-2.118-.378-2.898-1.134c-.768-.768-1.152-1.728-1.152-2.88 0-1.164.384-2.118 1.152-2.862zm1.26 4.644c.408.432.954.648 1.638.648.684 0 1.23-.216 1.638-.648.408-.444.612-1.032.612-1.764 0-.804-.222-1.41-.666-1.818-.432-.408-.96-.612-1.584-.612-.624 0-1.158.204-1.602.612-.432.408-.648 1.014-.648 1.818 0 .732.204 1.32.612 1.764zm7.529 1.998V88.56h1.764v2.808h3.132V88.56h1.764v7.578h-1.764v-3.15h-3.132v3.15h-1.764zm14.114-5.958h-2.214v5.958h-1.764V90.18h-2.214v-1.62h6.192v1.62zm6.811-.738v-.882h1.764v7.578h-1.764v-.792c-.588.684-1.344 1.026-2.268 1.026-1.116 0-2.01-.396-2.682-1.188-.66-.792-.99-1.74-.99-2.844 0-1.2.354-2.16 1.062-2.88.72-.732 1.596-1.098 2.628-1.098.948 0 1.698.36 2.25 1.08zm-2.034.504c-.624 0-1.134.234-1.53.702-.384.468-.576 1.044-.576 1.728 0 .672.192 1.242.576 1.71.396.468.906.702 1.53.702.6 0 1.104-.21 1.512-.63.42-.42.63-1.008.63-1.764 0-.78-.21-1.38-.63-1.8a1.997 1.997 0 00-1.512-.648zm6.035-1.386h1.764v2.7l2.52-2.7h2.34l-3.312 3.312 3.492 4.266h-2.232l-2.52-3.114-.288.288v2.826h-1.764V88.56zm13.182 1.62h-2.214v5.958h-1.764V90.18h-2.214v-1.62h6.192v1.62zm6.811-.738v-.882h1.764v7.578h-1.764v-.792c-.588.684-1.344 1.026-2.268 1.026-1.116 0-2.01-.396-2.682-1.188-.66-.792-.99-1.74-.99-2.844 0-1.2.354-2.16 1.062-2.88.72-.732 1.596-1.098 2.628-1.098.948 0 1.698.36 2.25 1.08zm-2.034.504c-.624 0-1.134.234-1.53.702-.384.468-.576 1.044-.576 1.728 0 .672.192 1.242.576 1.71.396.468.906.702 1.53.702.6 0 1.104-.21 1.512-.63.42-.42.63-1.008.63-1.764 0-.78-.21-1.38-.63-1.8a1.997 1.997 0 00-1.512-.648zm10.236-1.386h1.764v4.302l5.184-4.986v8.262h-1.764v-4.41l-5.184 4.986V88.56zm15.404 0v7.578h-1.764V90.18h-2.232v3.006c0 .936-.24 1.662-.72 2.178-.612.684-1.44.942-2.484.774v-1.62c.516.12.93.006 1.242-.342.18-.216.27-.546.27-.99V88.56h5.688zm2.227 0h1.764v4.302l5.184-4.986v8.262h-1.764v-4.41l-5.184 4.986V88.56zm13.377 7.578V88.56h1.764v2.808h3.132V88.56h1.764v7.578h-1.764v-3.15h-3.132v3.15h-1.764zm14.438-6.696v-.882h1.764v7.578h-1.764v-.792c-.588.684-1.344 1.026-2.268 1.026-1.116 0-2.01-.396-2.682-1.188-.66-.792-.99-1.74-.99-2.844 0-1.2.354-2.16 1.062-2.88.72-.732 1.596-1.098 2.628-1.098.948 0 1.698.36 2.25 1.08zm-2.034.504c-.624 0-1.134.234-1.53.702-.384.468-.576 1.044-.576 1.728 0 .672.192 1.242.576 1.71.396.468.906.702 1.53.702.6 0 1.104-.21 1.512-.63.42-.42.63-1.008.63-1.764 0-.78-.21-1.38-.63-1.8a1.997 1.997 0 00-1.512-.648zm7.205.576l-1.134-.99c.276-.312.6-.564.972-.756a3.897 3.897 0 011.8-.414c.828 0 1.482.18 1.962.54.516.396.774.876.774 1.44 0 .756-.348 1.29-1.044 1.602.36.06.69.222.99.486.396.372.594.816.594 1.332 0 .408-.096.792-.288 1.152-.192.36-.45.648-.774.864-.588.396-1.332.594-2.232.594-.852 0-1.578-.21-2.178-.63-.396-.276-.732-.666-1.008-1.17l1.404-.72c.132.312.33.564.594.756.3.216.666.324 1.098.324.492 0 .87-.084 1.134-.252.3-.204.45-.492.45-.864 0-.336-.12-.582-.36-.738-.204-.132-.54-.198-1.008-.198h-.918v-1.44h.792c.336 0 .588-.06.756-.18a.705.705 0 00.306-.612.755.755 0 00-.324-.648c-.18-.132-.45-.198-.81-.198-.372 0-.696.078-.972.234-.216.108-.408.27-.576.486zm6.758 5.616V88.56h1.764v2.808h3.132V88.56h1.764v7.578h-1.764v-3.15h-3.132v3.15h-1.764zm14.438-6.696v-.882h1.764v7.578h-1.764v-.792c-.588.684-1.344 1.026-2.268 1.026-1.116 0-2.01-.396-2.682-1.188-.66-.792-.99-1.74-.99-2.844 0-1.2.354-2.16 1.062-2.88.72-.732 1.596-1.098 2.628-1.098.948 0 1.698.36 2.25 1.08zm-2.034.504c-.624 0-1.134.234-1.53.702-.384.468-.576 1.044-.576 1.728 0 .672.192 1.242.576 1.71.396.468.906.702 1.53.702.6 0 1.104-.21 1.512-.63.42-.42.63-1.008.63-1.764 0-.78-.21-1.38-.63-1.8a1.997 1.997 0 00-1.512-.648zm10.139 6.192v-2.934a7.897 7.897 0 01-1.548.162c-.864 0-1.53-.186-1.998-.558-.492-.396-.738-1.002-.738-1.818v-2.43h1.764v2.07c0 .516.15.864.45 1.044.204.12.498.18.882.18.432 0 .828-.066 1.188-.198V88.56h1.764v7.578h-1.764zm4-7.578h1.764v4.302l5.184-4.986v8.262h-1.764v-4.41l-5.184 4.986V88.56zm14.396 1.62h-2.214v5.958h-1.764V90.18h-2.214v-1.62h6.192v1.62zm4.909 10.08l2.916-5.526-3.366-6.174h2.124l2.232 4.266 2.124-4.266h1.98l-6.03 11.7h-1.98zm9.89-11.7h5.688v5.958h1.152v3.78h-1.62v-2.16h-5.292v2.16h-1.62v-3.78c.612-.036 1.074-.366 1.386-.99.204-.444.306-1.11.306-1.998v-2.97zm3.924 5.958V90.18h-2.232v2.016c0 1.092-.294 1.866-.882 2.322h3.114zm4.938-5.022c.78-.756 1.746-1.134 2.898-1.134 1.152 0 2.112.378 2.88 1.134.78.744 1.17 1.698 1.17 2.862 0 1.152-.39 2.112-1.17 2.88-.768.756-1.728 1.134-2.88 1.134s-2.118-.378-2.898-1.134c-.768-.768-1.152-1.728-1.152-2.88 0-1.164.384-2.118 1.152-2.862zm1.26 4.644c.408.432.954.648 1.638.648.684 0 1.23-.216 1.638-.648.408-.444.612-1.032.612-1.764 0-.804-.222-1.41-.666-1.818-.432-.408-.96-.612-1.584-.612-.624 0-1.158.204-1.602.612-.432.408-.648 1.014-.648 1.818 0 .732.204 1.32.612 1.764zm13.253-10.782h1.8a3.376 3.376 0 01-.828 1.62 3.22 3.22 0 01-1.548.936l-1.188.324c-.312.084-.552.156-.72.216a3.08 3.08 0 00-.63.342c-.24.156-.444.348-.612.576-.396.528-.606 1.212-.63 2.052h.018c.528-.708 1.386-1.062 2.574-1.062 1.068 0 1.95.36 2.646 1.08.732.756 1.098 1.716 1.098 2.88 0 1.176-.39 2.148-1.17 2.916-.768.756-1.728 1.134-2.88 1.134s-2.076-.336-2.772-1.008a3.548 3.548 0 01-.882-1.332c-.204-.528-.324-.96-.36-1.296a18.715 18.715 0 01-.036-1.26c0-2.352.384-4.086 1.152-5.202.576-.852 1.332-1.392 2.268-1.62l1.26-.306c.828-.204 1.308-.534 1.44-.99zm-3.708 10.782c.408.432.954.648 1.638.648.684 0 1.23-.216 1.638-.648.408-.444.612-1.032.612-1.764 0-.804-.222-1.41-.666-1.818-.432-.408-.96-.612-1.584-.612-.624 0-1.158.204-1.602.612-.432.408-.648 1.014-.648 1.818 0 .732.204 1.32.612 1.764zm7.529 1.998V88.56h1.764v2.808h3.132V88.56h1.764v7.578h-1.764v-3.15h-3.132v3.15h-1.764zm8.336 4.122l2.916-5.526-3.366-6.174h2.124l2.232 4.266 2.124-4.266h1.98l-6.03 11.7h-1.98zm11.006-8.892h1.206c.12-.708.45-1.338.99-1.89.744-.744 1.686-1.116 2.826-1.116 1.128 0 2.07.378 2.826 1.134.768.744 1.152 1.698 1.152 2.862 0 1.152-.384 2.112-1.152 2.88-.756.756-1.698 1.134-2.826 1.134-1.2 0-2.172-.402-2.916-1.206-.552-.6-.864-1.326-.936-2.178h-1.17v3.15h-1.764V88.56h1.764v2.808zm6.57-.81c-.42-.408-.936-.612-1.548-.612s-1.128.204-1.548.612c-.42.408-.63 1.014-.63 1.818s.21 1.41.63 1.818c.42.396.936.594 1.548.594s1.128-.198 1.548-.594c.42-.408.63-1.014.63-1.818s-.21-1.41-.63-1.818zm9.118-1.998h5.688v5.958h1.152v3.78h-1.62v-2.16h-5.292v2.16h-1.62v-3.78c.612-.036 1.074-.366 1.386-.99.204-.444.306-1.11.306-1.998v-2.97zm3.924 5.958V90.18h-2.232v2.016c0 1.092-.294 1.866-.882 2.322h3.114zm10.41-5.958v7.578h-1.764V90.18h-2.232v3.006c0 .936-.24 1.662-.72 2.178-.612.684-1.44.942-2.484.774v-1.62c.516.12.93.006 1.242-.342.18-.216.27-.546.27-.99V88.56h5.688zm1.255 7.578l2.376-3.006a2.228 2.228 0 01-1.206-.576c-.42-.408-.63-.93-.63-1.566 0-.72.234-1.302.702-1.746.48-.456 1.212-.684 2.196-.684h2.826v7.578h-1.764v-2.79h-.36l-2.07 2.79h-2.07zm4.5-4.23v-1.836h-1.026c-.42 0-.726.054-.918.162-.288.18-.432.432-.432.756s.12.57.36.738c.18.12.504.18.972.18h1.044zm8.197-3.348h2.97c.756 0 1.332.15 1.728.45.468.372.702.858.702 1.458 0 .684-.3 1.176-.9 1.476.384.072.726.24 1.026.504.396.36.594.846.594 1.458 0 .732-.276 1.308-.828 1.728-.456.336-1.038.504-1.746.504h-3.546V88.56zm1.764 2.952h.9c.312 0 .546-.054.702-.162a.684.684 0 00.342-.612.688.688 0 00-.306-.594c-.144-.096-.402-.144-.774-.144h-.864v1.512zm0 3.186h1.314c.396 0 .702-.072.918-.216a.749.749 0 00.36-.666c0-.312-.114-.534-.342-.666-.204-.132-.498-.198-.882-.198h-1.368v1.746zm11.743-5.256v-.882h1.764v7.578h-1.764v-.792c-.588.684-1.344 1.026-2.268 1.026-1.116 0-2.01-.396-2.682-1.188-.66-.792-.99-1.74-.99-2.844 0-1.2.354-2.16 1.062-2.88.72-.732 1.596-1.098 2.628-1.098.948 0 1.698.36 2.25 1.08zm-2.034.504c-.624 0-1.134.234-1.53.702-.384.468-.576 1.044-.576 1.728 0 .672.192 1.242.576 1.71.396.468.906.702 1.53.702.6 0 1.104-.21 1.512-.63.42-.42.63-1.008.63-1.764 0-.78-.21-1.38-.63-1.8a1.997 1.997 0 00-1.512-.648zm11.903-1.044v2.322c-.492-.852-1.224-1.278-2.196-1.278-.612 0-1.146.216-1.602.648-.444.432-.666 1.02-.666 1.764 0 .684.204 1.26.612 1.728.42.468.966.702 1.638.702.444 0 .864-.114 1.26-.342.396-.228.714-.546.954-.954v2.322a4.125 4.125 0 01-2.088.558c-1.308 0-2.34-.384-3.096-1.152-.72-.744-1.08-1.692-1.08-2.844 0-1.212.408-2.208 1.224-2.988.72-.684 1.686-1.026 2.898-1.026.828 0 1.542.18 2.142.54zm6.539-.342h5.688v5.958h1.152v3.78h-1.62v-2.16h-5.292v2.16h-1.62v-3.78c.612-.036 1.074-.366 1.386-.99.204-.444.306-1.11.306-1.998v-2.97zm3.924 5.958V90.18h-2.232v2.016c0 1.092-.294 1.866-.882 2.322h3.114zm9.726-5.076v-.882h1.764v7.578h-1.764v-.792c-.588.684-1.344 1.026-2.268 1.026-1.116 0-2.01-.396-2.682-1.188-.66-.792-.99-1.74-.99-2.844 0-1.2.354-2.16 1.062-2.88.72-.732 1.596-1.098 2.628-1.098.948 0 1.698.36 2.25 1.08zm-2.034.504c-.624 0-1.134.234-1.53.702-.384.468-.576 1.044-.576 1.728 0 .672.192 1.242.576 1.71.396.468.906.702 1.53.702.6 0 1.104-.21 1.512-.63.42-.42.63-1.008.63-1.764 0-.78-.21-1.38-.63-1.8a1.997 1.997 0 00-1.512-.648zm11.255.234h-2.214v5.958h-1.764V90.18h-2.214v-1.62h6.192v1.62zm.709 10.08l2.916-5.526-3.366-6.174h2.124l2.232 4.266 2.124-4.266h1.98l-6.03 11.7h-1.98z" fill="#363636"/><g filter="url(#filter0_d)"><rect x="356.193" y="62.216" width="41.757" height="41.757" rx="20.878" fill="#E3B873"/></g><path d="M373.765 89.27a4.744 4.744 0 01-2.646-.774c-.792-.516-1.422-1.266-1.89-2.25-.456-.996-.684-2.178-.684-3.546 0-1.368.228-2.544.684-3.528.468-.996 1.098-1.752 1.89-2.268a4.744 4.744 0 012.646-.774c.972 0 1.854.258 2.646.774.792.516 1.416 1.272 1.872 2.268.468.984.702 2.16.702 3.528 0 1.368-.234 2.55-.702 3.546-.456.984-1.08 1.734-1.872 2.25a4.744 4.744 0 01-2.646.774zm0-.36c1.38 0 2.07-2.07 2.07-6.21 0-4.14-.69-6.21-2.07-6.21s-2.07 2.07-2.07 6.21c0 4.14.69 6.21 2.07 6.21zm7.289.09v-.27l1.26-.36v-9.882l-1.89 1.332-.36-.45 3.276-2.97h1.944v11.97l1.26.36V89h-5.49z" fill="#fff"/><g filter="url(#filter1_d)"><rect x="430.853" y="173.518" width="41.757" height="41.757" rx="20.878" fill="#E3B873"/></g><path d="M446.324 200.27a4.744 4.744 0 01-2.646-.774c-.792-.516-1.422-1.266-1.89-2.25-.456-.996-.684-2.178-.684-3.546 0-1.368.228-2.544.684-3.528.468-.996 1.098-1.752 1.89-2.268a4.744 4.744 0 012.646-.774c.972 0 1.854.258 2.646.774.792.516 1.416 1.272 1.872 2.268.468.984.702 2.16.702 3.528 0 1.368-.234 2.55-.702 3.546-.456.984-1.08 1.734-1.872 2.25a4.744 4.744 0 01-2.646.774zm0-.36c1.38 0 2.07-2.07 2.07-6.21 0-4.14-.69-6.21-2.07-6.21s-2.07 2.07-2.07 6.21c0 4.14.69 6.21 2.07 6.21zm6.569-.72c0-.708.138-1.35.414-1.926a6.145 6.145 0 011.044-1.53c.408-.432.942-.942 1.602-1.53.612-.54 1.092-.99 1.44-1.35.348-.372.642-.786.882-1.242.24-.468.36-.972.36-1.512 0-.792-.192-1.41-.576-1.854-.384-.444-.882-.666-1.494-.666a4.11 4.11 0 00-1.062.144l-.378.126v2.88l-.234.054a4.026 4.026 0 01-.486.036c-.408 0-.738-.12-.99-.36-.24-.252-.36-.582-.36-.99 0-.384.144-.756.432-1.116.3-.36.738-.654 1.314-.882.588-.228 1.296-.342 2.124-.342 1.62 0 2.82.324 3.6.972.78.648 1.17 1.554 1.17 2.718 0 .732-.192 1.362-.576 1.89a4.826 4.826 0 01-1.386 1.314c-.54.348-1.266.744-2.178 1.188-.768.372-1.392.702-1.872.99a6.964 6.964 0 00-1.314 1.008 3.423 3.423 0 00-.846 1.35h6.66c.084-.648.288-1.188.612-1.62.132-.204.288-.384.468-.54h.54v3.6h-8.91v-.81z" fill="#fff"/><path d="M490.44 196.138v-12.006h6.012v1.728h-4.176v3.114h1.188c1.284 0 2.286.318 3.006.954.756.66 1.134 1.542 1.134 2.646 0 .576-.132 1.128-.396 1.656a3.18 3.18 0 01-1.098 1.26c-.648.432-1.524.648-2.628.648h-3.042zm1.836-5.436v3.708h1.116c1.608 0 2.412-.606 2.412-1.818 0-.528-.18-.972-.54-1.332-.348-.372-.96-.558-1.836-.558h-1.152zm12.751 2.628l1.476.828c-.276.528-.606.96-.99 1.296-.696.612-1.542.918-2.538.918-1.032 0-1.92-.342-2.664-1.026-.744-.684-1.116-1.668-1.116-2.952 0-1.2.336-2.172 1.008-2.916.672-.744 1.566-1.116 2.682-1.116 1.248 0 2.196.462 2.844 1.386.468.672.702 1.59.702 2.754v.27h-5.436c.024.648.24 1.146.648 1.494.42.348.888.522 1.404.522.468 0 .87-.138 1.206-.414.336-.252.594-.6.774-1.044zm-3.906-1.998h3.51a1.72 1.72 0 00-.63-1.008 1.72 1.72 0 00-1.116-.378 1.72 1.72 0 00-1.116.378 1.943 1.943 0 00-.648 1.008zm13.092-2.43v2.322c-.492-.852-1.224-1.278-2.196-1.278-.612 0-1.146.216-1.602.648-.444.432-.666 1.02-.666 1.764 0 .684.204 1.26.612 1.728.42.468.966.702 1.638.702.444 0 .864-.114 1.26-.342.396-.228.714-.546.954-.954v2.322a4.125 4.125 0 01-2.088.558c-1.308 0-2.34-.384-3.096-1.152-.72-.744-1.08-1.692-1.08-2.844 0-1.212.408-2.208 1.224-2.988.72-.684 1.686-1.026 2.898-1.026.828 0 1.542.18 2.142.54zm1.69-.342h6.588v7.578h-1.764v-5.958h-3.06v5.958h-1.764v-7.578zm15.052 0v7.578h-1.764v-5.958h-2.232v3.006c0 .936-.24 1.662-.72 2.178-.612.684-1.44.942-2.484.774v-1.62c.516.12.93.006 1.242-.342.18-.216.27-.546.27-.99v-4.626h5.688zm7.771.882v-.882h1.764v7.578h-1.764v-.792c-.588.684-1.344 1.026-2.268 1.026-1.116 0-2.01-.396-2.682-1.188-.66-.792-.99-1.74-.99-2.844 0-1.2.354-2.16 1.062-2.88.72-.732 1.596-1.098 2.628-1.098.948 0 1.698.36 2.25 1.08zm-2.034.504c-.624 0-1.134.234-1.53.702-.384.468-.576 1.044-.576 1.728 0 .672.192 1.242.576 1.71.396.468.906.702 1.53.702.6 0 1.104-.21 1.512-.63.42-.42.63-1.008.63-1.764 0-.78-.21-1.38-.63-1.8a1.997 1.997 0 00-1.512-.648zm11.255.234h-2.214v5.958h-1.764v-5.958h-2.214v-1.62h6.192v1.62zm1.267 5.958v-7.578h1.764v2.808h3.132v-2.808h1.764v7.578h-1.764v-3.15h-3.132v3.15h-1.764zm8.894 0v-7.578h1.764v2.682h1.008c.324 0 .588.012.792.036.204.012.45.078.738.198.288.12.54.3.756.54.396.444.594.996.594 1.656 0 .756-.228 1.362-.684 1.818-.204.204-.45.36-.738.468a2.73 2.73 0 01-.702.162 12.5 12.5 0 01-.774.018h-2.754zm1.764-1.512h.81c.432 0 .738-.054.918-.162a.909.909 0 00.396-.774c0-.336-.126-.588-.378-.756-.192-.12-.498-.18-.918-.18h-.828v1.872zm4.68 1.512v-7.578h1.764v7.578h-1.764zm3.998-7.578h1.764v4.302l5.184-4.986v8.262h-1.764v-4.41l-5.184 4.986v-8.154zm.576-3.276l1.44-.414c.228.78.72 1.17 1.476 1.17.744 0 1.236-.39 1.476-1.17l1.44.414a2.66 2.66 0 01-1.17 1.584c-.576.36-1.158.54-1.746.54-.588 0-1.176-.18-1.764-.54-.576-.372-.96-.9-1.152-1.584zm13.971 5.238l-1.134-.99c.276-.312.6-.564.972-.756a3.897 3.897 0 011.8-.414c.828 0 1.482.18 1.962.54.516.396.774.876.774 1.44 0 .756-.348 1.29-1.044 1.602.36.06.69.222.99.486.396.372.594.816.594 1.332 0 .408-.096.792-.288 1.152-.192.36-.45.648-.774.864-.588.396-1.332.594-2.232.594-.852 0-1.578-.21-2.178-.63-.396-.276-.732-.666-1.008-1.17l1.404-.72c.132.312.33.564.594.756.3.216.666.324 1.098.324.492 0 .87-.084 1.134-.252.3-.204.45-.492.45-.864 0-.336-.12-.582-.36-.738-.204-.132-.54-.198-1.008-.198h-.918v-1.44h.792c.336 0 .588-.06.756-.18a.705.705 0 00.306-.612.755.755 0 00-.324-.648c-.18-.132-.45-.198-.81-.198-.372 0-.696.078-.972.234-.216.108-.408.27-.576.486zm12.301-1.08v-.882h1.764v7.578h-1.764v-.792c-.588.684-1.344 1.026-2.268 1.026-1.116 0-2.01-.396-2.682-1.188-.66-.792-.99-1.74-.99-2.844 0-1.2.354-2.16 1.062-2.88.72-.732 1.596-1.098 2.628-1.098.948 0 1.698.36 2.25 1.08zm-2.034.504c-.624 0-1.134.234-1.53.702-.384.468-.576 1.044-.576 1.728 0 .672.192 1.242.576 1.71.396.468.906.702 1.53.702.6 0 1.104-.21 1.512-.63.42-.42.63-1.008.63-1.764 0-.78-.21-1.38-.63-1.8a1.997 1.997 0 00-1.512-.648zm5.171 6.192l1.836-8.262 3.132 5.778 3.132-5.778 1.836 8.262h-1.8l-.756-3.798-2.412 4.374-2.412-4.374-.756 3.798h-1.8zm16.742-2.808l1.476.828c-.276.528-.606.96-.99 1.296-.696.612-1.542.918-2.538.918-1.032 0-1.92-.342-2.664-1.026-.744-.684-1.116-1.668-1.116-2.952 0-1.2.336-2.172 1.008-2.916.672-.744 1.566-1.116 2.682-1.116 1.248 0 2.196.462 2.844 1.386.468.672.702 1.59.702 2.754v.27h-5.436c.024.648.24 1.146.648 1.494.42.348.888.522 1.404.522.468 0 .87-.138 1.206-.414.336-.252.594-.6.774-1.044zm-3.906-1.998h3.51a1.72 1.72 0 00-.63-1.008 1.72 1.72 0 00-1.116-.378 1.72 1.72 0 00-1.116.378 1.943 1.943 0 00-.648 1.008zm8.988 3.924v5.004h-1.764v-11.7h1.764v.828c.576-.684 1.326-1.026 2.25-1.026 1.032 0 1.902.366 2.61 1.098.72.72 1.08 1.668 1.08 2.844 0 1.212-.372 2.196-1.116 2.952-.744.744-1.596 1.116-2.556 1.116-.9 0-1.656-.372-2.268-1.116zm2.034-5.31c-.6 0-1.11.216-1.53.648-.408.42-.612 1.02-.612 1.8 0 .756.204 1.344.612 1.764.42.42.93.63 1.53.63.624 0 1.128-.234 1.512-.702.396-.468.594-1.038.594-1.71 0-.684-.198-1.26-.594-1.728-.384-.468-.888-.702-1.512-.702z" fill="#363636"/><g filter="url(#filter2_d)"><rect x="456" y="334.138" width="41.757" height="41.757" rx="20.878" fill="#E3B873"/></g><path d="M471.236 360.27a4.744 4.744 0 01-2.646-.774c-.792-.516-1.422-1.266-1.89-2.25-.456-.996-.684-2.178-.684-3.546 0-1.368.228-2.544.684-3.528.468-.996 1.098-1.752 1.89-2.268a4.744 4.744 0 012.646-.774c.972 0 1.854.258 2.646.774.792.516 1.416 1.272 1.872 2.268.468.984.702 2.16.702 3.528 0 1.368-.234 2.55-.702 3.546-.456.984-1.08 1.734-1.872 2.25a4.744 4.744 0 01-2.646.774zm0-.36c1.38 0 2.07-2.07 2.07-6.21 0-4.14-.69-6.21-2.07-6.21s-2.07 2.07-2.07 6.21c0 4.14.69 6.21 2.07 6.21zm10.349.36c-.828 0-1.536-.114-2.124-.342-.576-.228-1.014-.522-1.314-.882-.288-.36-.432-.732-.432-1.116 0-.408.12-.732.36-.972.252-.252.582-.378.99-.378.096 0 .192.012.288.036.096.012.162.018.198.018l.234.036v2.88c.012 0 .138.048.378.144.312.084.666.126 1.062.126.84 0 1.482-.252 1.926-.756.456-.516.684-1.284.684-2.304 0-1.044-.222-1.83-.666-2.358-.432-.528-1.02-.792-1.764-.792h-.9v-.45h.9c.54 0 .99-.24 1.35-.72.36-.48.54-1.17.54-2.07 0-.9-.186-1.59-.558-2.07-.372-.48-.846-.72-1.422-.72-.312 0-.612.048-.9.144l-.36.126v2.88l-.234.054a4.026 4.026 0 01-.486.036c-.408 0-.738-.12-.99-.36-.24-.252-.36-.582-.36-.99 0-.372.144-.738.432-1.098.288-.36.708-.654 1.26-.882.564-.24 1.23-.36 1.998-.36 1.008 0 1.86.15 2.556.45.708.288 1.236.678 1.584 1.17.36.492.54 1.032.54 1.62 0 .684-.174 1.23-.522 1.638-.348.396-.804.714-1.368.954-.552.216-1.182.342-1.89.378v.09a7.122 7.122 0 012.16.414c1.44.576 2.16 1.548 2.16 2.916 0 1.056-.438 1.908-1.314 2.556-.864.636-2.196.954-3.996.954z" fill="#fff"/><path d="M513.44 361.138v-12.006h6.012v1.728h-4.176v3.114h1.188c1.284 0 2.286.318 3.006.954.756.66 1.134 1.542 1.134 2.646 0 .576-.132 1.128-.396 1.656a3.18 3.18 0 01-1.098 1.26c-.648.432-1.524.648-2.628.648h-3.042zm1.836-5.436v3.708h1.116c1.608 0 2.412-.606 2.412-1.818 0-.528-.18-.972-.54-1.332-.348-.372-.96-.558-1.836-.558h-1.152zm12.751 2.628l1.476.828c-.276.528-.606.96-.99 1.296-.696.612-1.542.918-2.538.918-1.032 0-1.92-.342-2.664-1.026-.744-.684-1.116-1.668-1.116-2.952 0-1.2.336-2.172 1.008-2.916.672-.744 1.566-1.116 2.682-1.116 1.248 0 2.196.462 2.844 1.386.468.672.702 1.59.702 2.754v.27h-5.436c.024.648.24 1.146.648 1.494.42.348.888.522 1.404.522.468 0 .87-.138 1.206-.414.336-.252.594-.6.774-1.044zm-3.906-1.998h3.51a1.72 1.72 0 00-.63-1.008 1.72 1.72 0 00-1.116-.378 1.72 1.72 0 00-1.116.378 1.943 1.943 0 00-.648 1.008zm13.092-2.43v2.322c-.492-.852-1.224-1.278-2.196-1.278-.612 0-1.146.216-1.602.648-.444.432-.666 1.02-.666 1.764 0 .684.204 1.26.612 1.728.42.468.966.702 1.638.702.444 0 .864-.114 1.26-.342.396-.228.714-.546.954-.954v2.322a4.125 4.125 0 01-2.088.558c-1.308 0-2.34-.384-3.096-1.152-.72-.744-1.08-1.692-1.08-2.844 0-1.212.408-2.208 1.224-2.988.72-.684 1.686-1.026 2.898-1.026.828 0 1.542.18 2.142.54zm1.69-.342h6.588v7.578h-1.764v-5.958h-3.06v5.958h-1.764v-7.578zm15.052 0v7.578h-1.764v-5.958h-2.232v3.006c0 .936-.24 1.662-.72 2.178-.612.684-1.44.942-2.484.774v-1.62c.516.12.93.006 1.242-.342.18-.216.27-.546.27-.99v-4.626h5.688zm7.771.882v-.882h1.764v7.578h-1.764v-.792c-.588.684-1.344 1.026-2.268 1.026-1.116 0-2.01-.396-2.682-1.188-.66-.792-.99-1.74-.99-2.844 0-1.2.354-2.16 1.062-2.88.72-.732 1.596-1.098 2.628-1.098.948 0 1.698.36 2.25 1.08zm-2.034.504c-.624 0-1.134.234-1.53.702-.384.468-.576 1.044-.576 1.728 0 .672.192 1.242.576 1.71.396.468.906.702 1.53.702.6 0 1.104-.21 1.512-.63.42-.42.63-1.008.63-1.764 0-.78-.21-1.38-.63-1.8a1.997 1.997 0 00-1.512-.648zm11.255.234h-2.214v5.958h-1.764v-5.958h-2.214v-1.62h6.192v1.62zm1.267 5.958v-7.578h1.764v2.808h3.132v-2.808h1.764v7.578h-1.764v-3.15h-3.132v3.15h-1.764zm14.438-6.696v-.882h1.764v7.578h-1.764v-.792c-.588.684-1.344 1.026-2.268 1.026-1.116 0-2.01-.396-2.682-1.188-.66-.792-.99-1.74-.99-2.844 0-1.2.354-2.16 1.062-2.88.72-.732 1.596-1.098 2.628-1.098.948 0 1.698.36 2.25 1.08zm-2.034.504c-.624 0-1.134.234-1.53.702-.384.468-.576 1.044-.576 1.728 0 .672.192 1.242.576 1.71.396.468.906.702 1.53.702.6 0 1.104-.21 1.512-.63.42-.42.63-1.008.63-1.764 0-.78-.21-1.38-.63-1.8a1.997 1.997 0 00-1.512-.648zm5.063 6.192l2.376-3.006a2.228 2.228 0 01-1.206-.576c-.42-.408-.63-.93-.63-1.566 0-.72.234-1.302.702-1.746.48-.456 1.212-.684 2.196-.684h2.826v7.578h-1.764v-2.79h-.36l-2.07 2.79h-2.07zm4.5-4.23v-1.836h-1.026c-.42 0-.726.054-.918.162-.288.18-.432.432-.432.756s.12.57.36.738c.18.12.504.18.972.18h1.044zm8.197-3.348h1.764v2.7l2.52-2.7h2.34l-3.312 3.312 3.492 4.266h-2.232l-2.52-3.114-.288.288v2.826h-1.764v-7.578zm8.719.936c.78-.756 1.746-1.134 2.898-1.134 1.152 0 2.112.378 2.88 1.134.78.744 1.17 1.698 1.17 2.862 0 1.152-.39 2.112-1.17 2.88-.768.756-1.728 1.134-2.88 1.134s-2.118-.378-2.898-1.134c-.768-.768-1.152-1.728-1.152-2.88 0-1.164.384-2.118 1.152-2.862zm1.26 4.644c.408.432.954.648 1.638.648.684 0 1.23-.216 1.638-.648.408-.444.612-1.032.612-1.764 0-.804-.222-1.41-.666-1.818-.432-.408-.96-.612-1.584-.612-.624 0-1.158.204-1.602.612-.432.408-.648 1.014-.648 1.818 0 .732.204 1.32.612 1.764zm7.529 1.998v-7.578h1.764v2.808h3.132v-2.808h1.764v7.578h-1.764v-3.15h-3.132v3.15h-1.764zm14.762-7.236v2.322c-.492-.852-1.224-1.278-2.196-1.278-.612 0-1.146.216-1.602.648-.444.432-.666 1.02-.666 1.764 0 .684.204 1.26.612 1.728.42.468.966.702 1.638.702.444 0 .864-.114 1.26-.342.396-.228.714-.546.954-.954v2.322a4.125 4.125 0 01-2.088.558c-1.308 0-2.34-.384-3.096-1.152-.72-.744-1.08-1.692-1.08-2.844 0-1.212.408-2.208 1.224-2.988.72-.684 1.686-1.026 2.898-1.026.828 0 1.542.18 2.142.54zm1.133 11.358l2.916-5.526-3.366-6.174h2.124l2.232 4.266 2.124-4.266h1.98l-6.03 11.7h-1.98zm15.469-11.7v7.578h-1.764v-5.958h-2.232v3.006c0 .936-.24 1.662-.72 2.178-.612.684-1.44.942-2.484.774v-1.62c.516.12.93.006 1.242-.342.18-.216.27-.546.27-.99v-4.626h5.688zm2.227 7.578v-7.578h1.764v2.682h1.008c.324 0 .588.012.792.036.204.012.45.078.738.198.288.12.54.3.756.54.396.444.594.996.594 1.656 0 .756-.228 1.362-.684 1.818-.204.204-.45.36-.738.468a2.73 2.73 0 01-.702.162 12.5 12.5 0 01-.774.018h-2.754zm1.764-1.512h.81c.432 0 .738-.054.918-.162a.909.909 0 00.396-.774c0-.336-.126-.588-.378-.756-.192-.12-.498-.18-.918-.18h-.828v1.872zm10.663-4.446h-2.214v5.958h-1.764v-5.958h-2.214v-1.62h6.192v1.62zm6.811-.738v-.882h1.764v7.578h-1.764v-.792c-.588.684-1.344 1.026-2.268 1.026-1.116 0-2.01-.396-2.682-1.188-.66-.792-.99-1.74-.99-2.844 0-1.2.354-2.16 1.062-2.88.72-.732 1.596-1.098 2.628-1.098.948 0 1.698.36 2.25 1.08zm-2.034.504c-.624 0-1.134.234-1.53.702-.384.468-.576 1.044-.576 1.728 0 .672.192 1.242.576 1.71.396.468.906.702 1.53.702.6 0 1.104-.21 1.512-.63.42-.42.63-1.008.63-1.764 0-.78-.21-1.38-.63-1.8a1.997 1.997 0 00-1.512-.648zm6.035 6.192v-7.578h1.764v5.958h2.988v-5.958h1.764v5.958h1.26v3.78h-1.62v-2.16h-6.156zm9.035-7.578h1.764v4.302l5.184-4.986v8.262h-1.764v-4.41l-5.184 4.986v-8.154zm8.204 7.578l2.376-3.006a2.228 2.228 0 01-1.206-.576c-.42-.408-.63-.93-.63-1.566 0-.72.234-1.302.702-1.746.48-.456 1.212-.684 2.196-.684h2.826v7.578h-1.764v-2.79h-.36l-2.07 2.79h-2.07zm4.5-4.23v-1.836h-1.026c-.42 0-.726.054-.918.162-.288.18-.432.432-.432.756s.12.57.36.738c.18.12.504.18.972.18h1.044z" fill="#363636"/><g filter="url(#filter3_d)"><rect x="391" y="494.138" width="41.757" height="41.757" rx="20.878" fill="#E3B873"/></g><path d="M406.104 521.27a4.744 4.744 0 01-2.646-.774c-.792-.516-1.422-1.266-1.89-2.25-.456-.996-.684-2.178-.684-3.546 0-1.368.228-2.544.684-3.528.468-.996 1.098-1.752 1.89-2.268a4.744 4.744 0 012.646-.774c.972 0 1.854.258 2.646.774.792.516 1.416 1.272 1.872 2.268.468.984.702 2.16.702 3.528 0 1.368-.234 2.55-.702 3.546-.456.984-1.08 1.734-1.872 2.25a4.744 4.744 0 01-2.646.774zm0-.36c1.38 0 2.07-2.07 2.07-6.21 0-4.14-.69-6.21-2.07-6.21s-2.07 2.07-2.07 6.21c0 4.14.69 6.21 2.07 6.21zm10.259.09v-.27l1.26-.36v-2.7h-5.13l-.36-.54 6.75-8.91h1.71v8.64h1.89v.81h-1.89v2.7l1.26.36v.27h-5.49zm-3.24-4.14h4.5v-5.94l-4.5 5.94z" fill="#fff"/><path d="M447.44 497.994h8.82V510h-1.836v-10.278h-5.148V510h-1.836v-12.006zm12.139 5.364c.78-.756 1.746-1.134 2.898-1.134 1.152 0 2.112.378 2.88 1.134.78.744 1.17 1.698 1.17 2.862 0 1.152-.39 2.112-1.17 2.88-.768.756-1.728 1.134-2.88 1.134s-2.118-.378-2.898-1.134c-.768-.768-1.152-1.728-1.152-2.88 0-1.164.384-2.118 1.152-2.862zm1.26 4.644c.408.432.954.648 1.638.648.684 0 1.23-.216 1.638-.648.408-.444.612-1.032.612-1.764 0-.804-.222-1.41-.666-1.818-.432-.408-.96-.612-1.584-.612-.624 0-1.158.204-1.602.612-.432.408-.648 1.014-.648 1.818 0 .732.204 1.32.612 1.764zm13.757-5.58V510h-1.764v-5.958H470.6v3.006c0 .936-.24 1.662-.72 2.178-.612.684-1.44.942-2.484.774v-1.62c.516.12.93.006 1.242-.342.18-.216.27-.546.27-.99v-4.626h5.688zm1.669 11.7l2.916-5.526-3.366-6.174h2.124l2.232 4.266 2.124-4.266h1.98l-6.03 11.7h-1.98zM489.611 510v-2.934a7.897 7.897 0 01-1.548.162c-.864 0-1.53-.186-1.998-.558-.492-.396-.738-1.002-.738-1.818v-2.43h1.764v2.07c0 .516.15.864.45 1.044.204.12.498.18.882.18.432 0 .828-.066 1.188-.198v-3.096h1.764V510h-1.764zm3.999-7.578h1.764v4.302l5.184-4.986V510h-1.764v-4.41l-5.184 4.986v-8.154zm14.396 1.62h-2.214V510h-1.764v-5.958h-2.214v-1.62h6.192v1.62zm6.702 3.15l1.476.828c-.276.528-.606.96-.99 1.296-.696.612-1.542.918-2.538.918-1.032 0-1.92-.342-2.664-1.026-.744-.684-1.116-1.668-1.116-2.952 0-1.2.336-2.172 1.008-2.916.672-.744 1.566-1.116 2.682-1.116 1.248 0 2.196.462 2.844 1.386.468.672.702 1.59.702 2.754v.27h-5.436c.024.648.24 1.146.648 1.494.42.348.888.522 1.404.522.468 0 .87-.138 1.206-.414.336-.252.594-.6.774-1.044zm-3.906-1.998h3.51a1.72 1.72 0 00-.63-1.008 1.72 1.72 0 00-1.116-.378 1.72 1.72 0 00-1.116.378 1.943 1.943 0 00-.648 1.008zm17.293-2.43v2.322c-.492-.852-1.224-1.278-2.196-1.278-.612 0-1.146.216-1.602.648-.444.432-.666 1.02-.666 1.764 0 .684.204 1.26.612 1.728.42.468.966.702 1.638.702.444 0 .864-.114 1.26-.342.396-.228.714-.546.954-.954v2.322a4.125 4.125 0 01-2.088.558c-1.308 0-2.34-.384-3.096-1.152-.72-.744-1.08-1.692-1.08-2.844 0-1.212.408-2.208 1.224-2.988.72-.684 1.686-1.026 2.898-1.026.828 0 1.542.18 2.142.54zm.827 7.236l1.836-8.262 3.132 5.778 3.132-5.778 1.836 8.262h-1.8l-.756-3.798-2.412 4.374-2.412-4.374-.756 3.798h-1.8zm16.741-2.808l1.476.828c-.276.528-.606.96-.99 1.296-.696.612-1.542.918-2.538.918-1.032 0-1.92-.342-2.664-1.026-.744-.684-1.116-1.668-1.116-2.952 0-1.2.336-2.172 1.008-2.916.672-.744 1.566-1.116 2.682-1.116 1.248 0 2.196.462 2.844 1.386.468.672.702 1.59.702 2.754v.27h-5.436c.024.648.24 1.146.648 1.494.42.348.888.522 1.404.522.468 0 .87-.138 1.206-.414.336-.252.594-.6.774-1.044zm-3.906-1.998h3.51a1.72 1.72 0 00-.63-1.008 1.72 1.72 0 00-1.116-.378 1.72 1.72 0 00-1.116.378 1.943 1.943 0 00-.648 1.008zm12.444-1.152h-2.214V510h-1.764v-5.958h-2.214v-1.62h6.192v1.62zm.709 10.08l2.916-5.526-3.366-6.174h2.124l2.232 4.266 2.124-4.266h1.98l-6.03 11.7h-1.98zm15.206-5.004v5.004h-1.764v-11.7h1.764v.828c.576-.684 1.326-1.026 2.25-1.026 1.032 0 1.902.366 2.61 1.098.72.72 1.08 1.668 1.08 2.844 0 1.212-.372 2.196-1.116 2.952-.744.744-1.596 1.116-2.556 1.116-.9 0-1.656-.372-2.268-1.116zm2.034-5.31c-.6 0-1.11.216-1.53.648-.408.42-.612 1.02-.612 1.8 0 .756.204 1.344.612 1.764.42.42.93.63 1.53.63.624 0 1.128-.234 1.512-.702.396-.468.594-1.038.594-1.71 0-.684-.198-1.26-.594-1.728-.384-.468-.888-.702-1.512-.702zm11.291-.504v-.882h1.764V510h-1.764v-.792c-.588.684-1.344 1.026-2.268 1.026-1.116 0-2.01-.396-2.682-1.188-.66-.792-.99-1.74-.99-2.844 0-1.2.354-2.16 1.062-2.88.72-.732 1.596-1.098 2.628-1.098.948 0 1.698.36 2.25 1.08zm-2.034.504c-.624 0-1.134.234-1.53.702-.384.468-.576 1.044-.576 1.728 0 .672.192 1.242.576 1.71.396.468.906.702 1.53.702.6 0 1.104-.21 1.512-.63.42-.42.63-1.008.63-1.764 0-.78-.21-1.38-.63-1.8a1.997 1.997 0 00-1.512-.648zm11.903-1.044v2.322c-.492-.852-1.224-1.278-2.196-1.278-.612 0-1.146.216-1.602.648-.444.432-.666 1.02-.666 1.764 0 .684.204 1.26.612 1.728.42.468.966.702 1.638.702.444 0 .864-.114 1.26-.342.396-.228.714-.546.954-.954v2.322a4.125 4.125 0 01-2.088.558c-1.308 0-2.34-.384-3.096-1.152-.72-.744-1.08-1.692-1.08-2.844 0-1.212.408-2.208 1.224-2.988.72-.684 1.686-1.026 2.898-1.026.828 0 1.542.18 2.142.54zm.683 7.236l3.348-4.104-2.7-3.474h2.088l1.674 2.214 1.692-2.214h2.16l-2.79 3.474 3.24 4.104h-2.124l-2.178-2.826-2.25 2.826h-2.16zm10.693-6.642c.78-.756 1.746-1.134 2.898-1.134 1.152 0 2.112.378 2.88 1.134.78.744 1.17 1.698 1.17 2.862 0 1.152-.39 2.112-1.17 2.88-.768.756-1.728 1.134-2.88 1.134s-2.118-.378-2.898-1.134c-.768-.768-1.152-1.728-1.152-2.88 0-1.164.384-2.118 1.152-2.862zm1.26 4.644c.408.432.954.648 1.638.648.684 0 1.23-.216 1.638-.648.408-.444.612-1.032.612-1.764 0-.804-.222-1.41-.666-1.818-.432-.408-.96-.612-1.584-.612-.624 0-1.158.204-1.602.612-.432.408-.648 1.014-.648 1.818 0 .732.204 1.32.612 1.764zm8.177-5.58h5.688v5.958h1.152v3.78h-1.62V510h-5.292v2.16h-1.62v-3.78c.612-.036 1.074-.366 1.386-.99.204-.444.306-1.11.306-1.998v-2.97zm3.924 5.958v-4.338h-2.232v2.016c0 1.092-.294 1.866-.882 2.322h3.114zm4.938-5.022c.78-.756 1.746-1.134 2.898-1.134 1.152 0 2.112.378 2.88 1.134.78.744 1.17 1.698 1.17 2.862 0 1.152-.39 2.112-1.17 2.88-.768.756-1.728 1.134-2.88 1.134s-2.118-.378-2.898-1.134c-.768-.768-1.152-1.728-1.152-2.88 0-1.164.384-2.118 1.152-2.862zm1.26 4.644c.408.432.954.648 1.638.648.684 0 1.23-.216 1.638-.648.408-.444.612-1.032.612-1.764 0-.804-.222-1.41-.666-1.818-.432-.408-.96-.612-1.584-.612-.624 0-1.158.204-1.602.612-.432.408-.648 1.014-.648 1.818 0 .732.204 1.32.612 1.764zm7.529-5.58h2.97c.756 0 1.332.15 1.728.45.468.372.702.858.702 1.458 0 .684-.3 1.176-.9 1.476.384.072.726.24 1.026.504.396.36.594.846.594 1.458 0 .732-.276 1.308-.828 1.728-.456.336-1.038.504-1.746.504h-3.546v-7.578zm1.764 2.952h.9c.312 0 .546-.054.702-.162a.684.684 0 00.342-.612.688.688 0 00-.306-.594c-.144-.096-.402-.144-.774-.144h-.864v1.512zm0 3.186h1.314c.396 0 .702-.072.918-.216a.749.749 0 00.36-.666c0-.312-.114-.534-.342-.666-.204-.132-.498-.198-.882-.198h-1.368v1.746zm10.4-6.138h1.764v4.302l5.184-4.986V510h-1.764v-4.41l-5.184 4.986v-8.154zm19.245.342v2.322c-.492-.852-1.224-1.278-2.196-1.278-.612 0-1.146.216-1.602.648-.444.432-.666 1.02-.666 1.764 0 .684.204 1.26.612 1.728.42.468.966.702 1.638.702.444 0 .864-.114 1.26-.342.396-.228.714-.546.954-.954v2.322a4.125 4.125 0 01-2.088.558c-1.308 0-2.34-.384-3.096-1.152-.72-.744-1.08-1.692-1.08-2.844 0-1.212.408-2.208 1.224-2.988.72-.684 1.686-1.026 2.898-1.026.828 0 1.542.18 2.142.54zm3.455 6.354v5.004h-1.764v-11.7h1.764v.828c.576-.684 1.326-1.026 2.25-1.026 1.032 0 1.902.366 2.61 1.098.72.72 1.08 1.668 1.08 2.844 0 1.212-.372 2.196-1.116 2.952-.744.744-1.596 1.116-2.556 1.116-.9 0-1.656-.372-2.268-1.116zm2.034-5.31c-.6 0-1.11.216-1.53.648-.408.42-.612 1.02-.612 1.8 0 .756.204 1.344.612 1.764.42.42.93.63 1.53.63.624 0 1.128-.234 1.512-.702.396-.468.594-1.038.594-1.71 0-.684-.198-1.26-.594-1.728-.384-.468-.888-.702-1.512-.702zm6.503-.45c.78-.756 1.746-1.134 2.898-1.134 1.152 0 2.112.378 2.88 1.134.78.744 1.17 1.698 1.17 2.862 0 1.152-.39 2.112-1.17 2.88-.768.756-1.728 1.134-2.88 1.134s-2.118-.378-2.898-1.134c-.768-.768-1.152-1.728-1.152-2.88 0-1.164.384-2.118 1.152-2.862zm1.26 4.644c.408.432.954.648 1.638.648.684 0 1.23-.216 1.638-.648.408-.444.612-1.032.612-1.764 0-.804-.222-1.41-.666-1.818-.432-.408-.96-.612-1.584-.612-.624 0-1.158.204-1.602.612-.432.408-.648 1.014-.648 1.818 0 .732.204 1.32.612 1.764zm7.529-5.58h1.764v2.7l2.52-2.7h2.34l-3.312 3.312 3.492 4.266h-2.232l-2.52-3.114-.288.288V510h-1.764v-7.578zm7.963 0h1.764v4.302l5.184-4.986V510h-1.764v-4.41l-5.184 4.986v-8.154zm-244.811 21h2.97c.756 0 1.332.15 1.728.45.468.372.702.858.702 1.458 0 .684-.3 1.176-.9 1.476.384.072.726.24 1.026.504.396.36.594.846.594 1.458 0 .732-.276 1.308-.828 1.728-.456.336-1.038.504-1.746.504h-3.546v-7.578zm1.764 2.952h.9c.312 0 .546-.054.702-.162a.684.684 0 00.342-.612.688.688 0 00-.306-.594c-.144-.096-.402-.144-.774-.144h-.864v1.512zm0 3.186h1.314c.396 0 .702-.072.918-.216a.749.749 0 00.36-.666c0-.312-.114-.534-.342-.666-.204-.132-.498-.198-.882-.198h-1.368v1.746zm11.743-5.256v-.882h1.764V531h-1.764v-.792c-.588.684-1.344 1.026-2.268 1.026-1.116 0-2.01-.396-2.682-1.188-.66-.792-.99-1.74-.99-2.844 0-1.2.354-2.16 1.062-2.88.72-.732 1.596-1.098 2.628-1.098.948 0 1.698.36 2.25 1.08zm-2.034.504c-.624 0-1.134.234-1.53.702-.384.468-.576 1.044-.576 1.728 0 .672.192 1.242.576 1.71.396.468.906.702 1.53.702.6 0 1.104-.21 1.512-.63.42-.42.63-1.008.63-1.764 0-.78-.21-1.38-.63-1.8a1.997 1.997 0 00-1.512-.648zm6.035 6.192v-7.578h1.764v5.958h2.52v-5.958h1.764v5.958h2.52v-5.958h1.764V531h-10.332zm18.004-2.808l1.476.828c-.276.528-.606.96-.99 1.296-.696.612-1.542.918-2.538.918-1.032 0-1.92-.342-2.664-1.026-.744-.684-1.116-1.668-1.116-2.952 0-1.2.336-2.172 1.008-2.916.672-.744 1.566-1.116 2.682-1.116 1.248 0 2.196.462 2.844 1.386.468.672.702 1.59.702 2.754v.27h-5.436c.024.648.24 1.146.648 1.494.42.348.888.522 1.404.522.468 0 .87-.138 1.206-.414.336-.252.594-.6.774-1.044zm-3.906-1.998h3.51a1.72 1.72 0 00-.63-1.008 1.72 1.72 0 00-1.116-.378 1.72 1.72 0 00-1.116.378 1.943 1.943 0 00-.648 1.008zm7.224 4.806v-7.578h4.644v1.62h-2.88V531h-1.764zm6.662-6.642c.78-.756 1.746-1.134 2.898-1.134 1.152 0 2.112.378 2.88 1.134.78.744 1.17 1.698 1.17 2.862 0 1.152-.39 2.112-1.17 2.88-.768.756-1.728 1.134-2.88 1.134s-2.118-.378-2.898-1.134c-.768-.768-1.152-1.728-1.152-2.88 0-1.164.384-2.118 1.152-2.862zm1.26 4.644c.408.432.954.648 1.638.648.684 0 1.23-.216 1.638-.648.408-.444.612-1.032.612-1.764 0-.804-.222-1.41-.666-1.818-.432-.408-.96-.612-1.584-.612-.624 0-1.158.204-1.602.612-.432.408-.648 1.014-.648 1.818 0 .732.204 1.32.612 1.764zm17.454-10.782h1.8a3.376 3.376 0 01-.828 1.62 3.22 3.22 0 01-1.548.936l-1.188.324c-.312.084-.552.156-.72.216a3.08 3.08 0 00-.63.342c-.24.156-.444.348-.612.576-.396.528-.606 1.212-.63 2.052h.018c.528-.708 1.386-1.062 2.574-1.062 1.068 0 1.95.36 2.646 1.08.732.756 1.098 1.716 1.098 2.88 0 1.176-.39 2.148-1.17 2.916-.768.756-1.728 1.134-2.88 1.134s-2.076-.336-2.772-1.008a3.548 3.548 0 01-.882-1.332c-.204-.528-.324-.96-.36-1.296a18.715 18.715 0 01-.036-1.26c0-2.352.384-4.086 1.152-5.202.576-.852 1.332-1.392 2.268-1.62l1.26-.306c.828-.204 1.308-.534 1.44-.99zm-3.708 10.782c.408.432.954.648 1.638.648.684 0 1.23-.216 1.638-.648.408-.444.612-1.032.612-1.764 0-.804-.222-1.41-.666-1.818-.432-.408-.96-.612-1.584-.612-.624 0-1.158.204-1.602.612-.432.408-.648 1.014-.648 1.818 0 .732.204 1.32.612 1.764zm6.971 6.12l2.916-5.526-3.366-6.174h2.124l2.232 4.266 2.124-4.266h1.98l-6.03 11.7h-1.98zm9.89-11.7h5.688v5.958h1.152v3.78h-1.62V531h-5.292v2.16h-1.62v-3.78c.612-.036 1.074-.366 1.386-.99.204-.444.306-1.11.306-1.998v-2.97zm3.924 5.958v-4.338h-2.232v2.016c0 1.092-.294 1.866-.882 2.322h3.114zm3.624 5.742l2.916-5.526-3.366-6.174h2.124l2.232 4.266 2.124-4.266h1.98l-6.03 11.7h-1.98zm9.241-4.122v-7.578h1.764v5.958h2.52v-5.958h1.764v5.958h2.52v-5.958h1.764v5.958h1.26v3.78h-1.62V531h-9.972zm18.286-2.808l1.476.828c-.276.528-.606.96-.99 1.296-.696.612-1.542.918-2.538.918-1.032 0-1.92-.342-2.664-1.026-.744-.684-1.116-1.668-1.116-2.952 0-1.2.336-2.172 1.008-2.916.672-.744 1.566-1.116 2.682-1.116 1.248 0 2.196.462 2.844 1.386.468.672.702 1.59.702 2.754v.27h-5.436c.024.648.24 1.146.648 1.494.42.348.888.522 1.404.522.468 0 .87-.138 1.206-.414.336-.252.594-.6.774-1.044zm-3.906-1.998h3.51a1.72 1.72 0 00-.63-1.008 1.72 1.72 0 00-1.116-.378 1.72 1.72 0 00-1.116.378 1.943 1.943 0 00-.648 1.008zm7.224 4.806v-7.578h4.644v1.62h-2.88V531h-1.764zm6.662-6.642c.78-.756 1.746-1.134 2.898-1.134 1.152 0 2.112.378 2.88 1.134.78.744 1.17 1.698 1.17 2.862 0 1.152-.39 2.112-1.17 2.88-.768.756-1.728 1.134-2.88 1.134s-2.118-.378-2.898-1.134c-.768-.768-1.152-1.728-1.152-2.88 0-1.164.384-2.118 1.152-2.862zm1.26 4.644c.408.432.954.648 1.638.648.684 0 1.23-.216 1.638-.648.408-.444.612-1.032.612-1.764 0-.804-.222-1.41-.666-1.818-.432-.408-.96-.612-1.584-.612-.624 0-1.158.204-1.602.612-.432.408-.648 1.014-.648 1.818 0 .732.204 1.32.612 1.764zm13.494 1.116v5.004h-1.764v-11.7h1.764v.828c.576-.684 1.326-1.026 2.25-1.026 1.032 0 1.902.366 2.61 1.098.72.72 1.08 1.668 1.08 2.844 0 1.212-.372 2.196-1.116 2.952-.744.744-1.596 1.116-2.556 1.116-.9 0-1.656-.372-2.268-1.116zm2.034-5.31c-.6 0-1.11.216-1.53.648-.408.42-.612 1.02-.612 1.8 0 .756.204 1.344.612 1.764.42.42.93.63 1.53.63.624 0 1.128-.234 1.512-.702.396-.468.594-1.038.594-1.71 0-.684-.198-1.26-.594-1.728-.384-.468-.888-.702-1.512-.702zm11.183 3.384l1.476.828c-.276.528-.606.96-.99 1.296-.696.612-1.542.918-2.538.918-1.032 0-1.92-.342-2.664-1.026-.744-.684-1.116-1.668-1.116-2.952 0-1.2.336-2.172 1.008-2.916.672-.744 1.566-1.116 2.682-1.116 1.248 0 2.196.462 2.844 1.386.468.672.702 1.59.702 2.754v.27h-5.436c.024.648.24 1.146.648 1.494.42.348.888.522 1.404.522.468 0 .87-.138 1.206-.414.336-.252.594-.6.774-1.044zm-3.906-1.998h3.51a1.72 1.72 0 00-.63-1.008 1.72 1.72 0 00-1.116-.378 1.72 1.72 0 00-1.116.378 1.943 1.943 0 00-.648 1.008zm6.36 4.806l1.836-8.262 3.132 5.778 3.132-5.778 1.836 8.262h-1.8l-.756-3.798-2.412 4.374-2.412-4.374-.756 3.798h-1.8zm12.062-6.642c.78-.756 1.746-1.134 2.898-1.134 1.152 0 2.112.378 2.88 1.134.78.744 1.17 1.698 1.17 2.862 0 1.152-.39 2.112-1.17 2.88-.768.756-1.728 1.134-2.88 1.134s-2.118-.378-2.898-1.134c-.768-.768-1.152-1.728-1.152-2.88 0-1.164.384-2.118 1.152-2.862zm1.26 4.644c.408.432.954.648 1.638.648.684 0 1.23-.216 1.638-.648.408-.444.612-1.032.612-1.764 0-.804-.222-1.41-.666-1.818-.432-.408-.96-.612-1.584-.612-.624 0-1.158.204-1.602.612-.432.408-.648 1.014-.648 1.818 0 .732.204 1.32.612 1.764zm7.528 1.998v-7.578h1.764v2.808h3.132v-2.808h1.764V531h-1.764v-3.15h-3.132V531h-1.764zm14.115-5.958h-2.214V531h-1.764v-5.958h-2.214v-1.62h6.192v1.62zm6.81-.738v-.882h1.764V531h-1.764v-.792c-.588.684-1.344 1.026-2.268 1.026-1.116 0-2.01-.396-2.682-1.188-.66-.792-.99-1.74-.99-2.844 0-1.2.354-2.16 1.062-2.88.72-.732 1.596-1.098 2.628-1.098.948 0 1.698.36 2.25 1.08zm-2.034.504c-.624 0-1.134.234-1.53.702-.384.468-.576 1.044-.576 1.728 0 .672.192 1.242.576 1.71.396.468.906.702 1.53.702.6 0 1.104-.21 1.512-.63.42-.42.63-1.008.63-1.764 0-.78-.21-1.38-.63-1.8a1.997 1.997 0 00-1.512-.648z" fill="#363636"/><defs><linearGradient id="paint0_linear" x1="489.625" y1="283.859" x2="-1.451" y2="283.859" gradientUnits="userSpaceOnUse"><stop stop-color="#E3B873"/><stop offset="1" stop-color="#E3B873" stop-opacity="0"/></linearGradient><linearGradient id="paint1_linear" x1="489.465" y1="283.859" x2="-1.611" y2="283.859" gradientUnits="userSpaceOnUse"><stop stop-color="#E3B873"/><stop offset="1" stop-color="#E3B873" stop-opacity="0"/></linearGradient><linearGradient id="paint2_linear" x1="489.625" y1="283.996" x2="-1.451" y2="283.996" gradientUnits="userSpaceOnUse"><stop stop-color="#E3B873"/><stop offset="1" stop-color="#E3B873" stop-opacity="0"/></linearGradient><linearGradient id="paint3_linear" x1="489.465" y1="283.996" x2="-1.611" y2="283.996" gradientUnits="userSpaceOnUse"><stop stop-color="#E3B873"/><stop offset="1" stop-color="#E3B873" stop-opacity="0"/></linearGradient><linearGradient id="paint4_linear" x1="489.465" y1="283.996" x2="-1.611" y2="283.996" gradientUnits="userSpaceOnUse"><stop stop-color="#E3B873"/><stop offset="1" stop-color="#E3B873" stop-opacity="0"/></linearGradient><filter id="filter0_d" x="341.193" y="52.216" width="71.757" height="71.757" filterUnits="userSpaceOnUse" color-interpolation-filters="sRGB"><feFlood flood-opacity="0" result="BackgroundImageFix"/><feColorMatrix in="SourceAlpha" values="0 0 0 0 0 0 0 0 0 0 0 0 0 0 0 0 0 0 127 0"/><feOffset dy="5"/><feGaussianBlur stdDeviation="7.5"/><feColorMatrix values="0 0 0 0 0.890196 0 0 0 0 0.721569 0 0 0 0 0.45098 0 0 0 0.15 0"/><feBlend in2="BackgroundImageFix" result="effect1_dropShadow"/><feBlend in="SourceGraphic" in2="effect1_dropShadow" result="shape"/></filter><filter id="filter1_d" x="415.853" y="163.518" width="71.757" height="71.757" filterUnits="userSpaceOnUse" color-interpolation-filters="sRGB"><feFlood flood-opacity="0" result="BackgroundImageFix"/><feColorMatrix in="SourceAlpha" values="0 0 0 0 0 0 0 0 0 0 0 0 0 0 0 0 0 0 127 0"/><feOffset dy="5"/><feGaussianBlur stdDeviation="7.5"/><feColorMatrix values="0 0 0 0 0.890196 0 0 0 0 0.721569 0 0 0 0 0.45098 0 0 0 0.15 0"/><feBlend in2="BackgroundImageFix" result="effect1_dropShadow"/><feBlend in="SourceGraphic" in2="effect1_dropShadow" result="shape"/></filter><filter id="filter2_d" x="441" y="324.138" width="71.757" height="71.757" filterUnits="userSpaceOnUse" color-interpolation-filters="sRGB"><feFlood flood-opacity="0" result="BackgroundImageFix"/><feColorMatrix in="SourceAlpha" values="0 0 0 0 0 0 0 0 0 0 0 0 0 0 0 0 0 0 127 0"/><feOffset dy="5"/><feGaussianBlur stdDeviation="7.5"/><feColorMatrix values="0 0 0 0 0.890196 0 0 0 0 0.721569 0 0 0 0 0.45098 0 0 0 0.15 0"/><feBlend in2="BackgroundImageFix" result="effect1_dropShadow"/><feBlend in="SourceGraphic" in2="effect1_dropShadow" result="shape"/></filter><filter id="filter3_d" x="376" y="484.138" width="71.757" height="71.757" filterUnits="userSpaceOnUse" color-interpolation-filters="sRGB"><feFlood flood-opacity="0" result="BackgroundImageFix"/><feColorMatrix in="SourceAlpha" values="0 0 0 0 0 0 0 0 0 0 0 0 0 0 0 0 0 0 127 0"/><feOffset dy="5"/><feGaussianBlur stdDeviation="7.5"/><feColorMatrix values="0 0 0 0 0.890196 0 0 0 0 0.721569 0 0 0 0 0.45098 0 0 0 0.15 0"/><feBlend in2="BackgroundImageFix" result="effect1_dropShadow"/><feBlend in="SourceGraphic" in2="effect1_dropShadow" result="shape"/></filter></defs></svg>