<svg width="110" height="110" fill="none" xmlns="http://www.w3.org/2000/svg"><g filter="url(#filter0_d)"><path fill="#E3B873" d="M20 14.999h70v70H20z"/></g><path d="M62.63 30.923l-.175.969a20.082 20.082 0 017.885 5.354 20.033 20.033 0 015.183 13.465.144.144 0 11-.289 0c0-9.896-7.23-18.188-16.936-19.582l-.57-.082v1.868c0 .08-.065.144-.145.144h-4.271a.144.144 0 01-.145-.144v-1.868l-.571.082C42.89 32.523 35.66 40.815 35.66 50.71a.145.145 0 01-.29 0c0-4.988 1.842-9.769 5.185-13.465a20.078 20.078 0 017.884-5.354l-.174-.968h-8.299l-.114.343a1.571 1.571 0 01-1.49 1.08 1.57 1.57 0 01-1.568-1.568 1.57 1.57 0 011.569-1.568c.692 0 1.283.453 1.49 1.08l.112.344h13.202v-1.991c0-.08.065-.145.145-.145h4.27c.08 0 .145.065.145.145v1.99H70.93l.113-.343a1.571 1.571 0 011.49-1.08 1.57 1.57 0 011.568 1.568 1.57 1.57 0 01-1.569 1.568 1.571 1.571 0 01-1.49-1.08l-.112-.344h-8.301zm-9.174 1.347v.5h3.982v-3.982h-3.982v3.482zm20.355-1.491a1.28 1.28 0 10-2.56.002 1.28 1.28 0 002.56-.002zm-36.728 0a1.28 1.28 0 102.56-.002 1.28 1.28 0 00-2.56.002z" fill="#fff" stroke="#fff"/><mask id="a" fill="#fff"><path d="M57.434 35.448a.644.644 0 00-.563-.33h-2.848a.644.644 0 00-.562.33l-8.543 15.304a.646.646 0 00-.081.315v.712c0 .122.034.24.1.344l3.646 5.773h-2.39a.644.644 0 100 1.29h.067v2.202c0 .357.289.645.645.645h.779v2.203c0 .356.288.644.644.644h.78v6.474c0 .357.288.645.644.645h11.39a.644.644 0 00.645-.645V64.88h.779a.645.645 0 00.644-.644v-2.203h.78a.644.644 0 00.644-.645v-2.203h.067a.645.645 0 000-1.289h-2.39l3.647-5.773a.644.644 0 00.1-.344v-.712a.643.643 0 00-.082-.315l-8.542-15.304zM55.447 49.22a.78.78 0 11-.001 1.56.78.78 0 01.001-1.56zm6.474 14.371H54.85a.645.645 0 000 1.29h5.649v1.558h-.78a.644.644 0 100 1.289h.78v2.982H50.396v-2.982h.779a.644.644 0 100-1.29h-.78V64.88h1.7a.644.644 0 100-1.289h-3.123v-1.558H61.92v1.558zm1.424-2.847H47.549v-1.559h15.796v1.559zm1.424-9.152l-1.285 2.033h-1.63a.644.644 0 100 1.29h.816l-1.884 2.981h-4.694v-1.49a.644.644 0 10-1.29 0v1.49h-4.695l-1.883-2.982h.816a.644.644 0 100-1.289h-1.63l-1.284-2.033v-.358l8.276-14.828h.4v11.628a2.072 2.072 0 00-1.423 1.965 2.07 2.07 0 002.068 2.068 2.07 2.07 0 002.069-2.069c0-.915-.599-1.693-1.424-1.964V36.406h.4l8.277 14.828v.358z"/></mask><path d="M57.434 35.448a.644.644 0 00-.563-.33h-2.848a.644.644 0 00-.562.33l-8.543 15.304a.646.646 0 00-.081.315v.712c0 .122.034.24.1.344l3.646 5.773h-2.39a.644.644 0 100 1.29h.067v2.202c0 .357.289.645.645.645h.779v2.203c0 .356.288.644.644.644h.78v6.474c0 .357.288.645.644.645h11.39a.644.644 0 00.645-.645V64.88h.779a.645.645 0 00.644-.644v-2.203h.78a.644.644 0 00.644-.645v-2.203h.067a.645.645 0 000-1.289h-2.39l3.647-5.773a.644.644 0 00.1-.344v-.712a.643.643 0 00-.082-.315l-8.542-15.304zM55.447 49.22a.78.78 0 11-.001 1.56.78.78 0 01.001-1.56zm6.474 14.371H54.85a.645.645 0 000 1.29h5.649v1.558h-.78a.644.644 0 100 1.289h.78v2.982H50.396v-2.982h.779a.644.644 0 100-1.29h-.78V64.88h1.7a.644.644 0 100-1.289h-3.123v-1.558H61.92v1.558zm1.424-2.847H47.549v-1.559h15.796v1.559zm1.424-9.152l-1.285 2.033h-1.63a.644.644 0 100 1.29h.816l-1.884 2.981h-4.694v-1.49a.644.644 0 10-1.29 0v1.49h-4.695l-1.883-2.982h.816a.644.644 0 100-1.289h-1.63l-1.284-2.033v-.358l8.276-14.828h.4v11.628a2.072 2.072 0 00-1.423 1.965 2.07 2.07 0 002.068 2.068 2.07 2.07 0 002.069-2.069c0-.915-.599-1.693-1.424-1.964V36.406h.4l8.277 14.828v.358z" fill="#fff" stroke="#fff" stroke-width="2" mask="url(#a)"/><defs><filter id="filter0_d" x="0" y="-.001" width="110" height="110" filterUnits="userSpaceOnUse" color-interpolation-filters="sRGB"><feFlood flood-opacity="0" result="BackgroundImageFix"/><feColorMatrix in="SourceAlpha" values="0 0 0 0 0 0 0 0 0 0 0 0 0 0 0 0 0 0 127 0"/><feOffset dy="5"/><feGaussianBlur stdDeviation="10"/><feColorMatrix values="0 0 0 0 0.890196 0 0 0 0 0.721569 0 0 0 0 0.45098 0 0 0 0.5 0"/><feBlend in2="BackgroundImageFix" result="effect1_dropShadow"/><feBlend in="SourceGraphic" in2="effect1_dropShadow" result="shape"/></filter></defs></svg>