<!DOCTYPE svg PUBLIC "-//W3C//DTD SVG 20010904//EN" "http://www.w3.org/TR/2001/REC-SVG-20010904/DTD/svg10.dtd">
<svg version="1.0" xmlns="http://www.w3.org/2000/svg" width="1426px" height="2341px" viewBox="0 0 7310 12000" preserveAspectRatio="xMidYMid meet">
<g id="layer101" stroke="#181818" fill="#181818" fill-opacity="0.015" stroke-opacity="0.1">
 <path d="M6894 11963 c-35 -86 -126 -350 -153 -450 -46 -166 -93 -375 -227 -1008 -107 -508 -225 -872 -370 -1138 -198 -364 -403 -580 -779 -822 -312 -201 -390 -259 -544 -409 -387 -378 -605 -882 -796 -1846 -50 -254 -128 -596 -176 -780 -94 -355 -214 -639 -372 -883 -178 -272 -325 -413 -662 -631 -327 -212 -428 -290 -576 -443 -205 -211 -353 -453 -492 -803 -111 -280 -189 -571 -317 -1189 -89 -433 -100 -478 -161 -689 -108 -372 -215 -620 -363 -844 -10 -16 -14 -28 -9 -28 15 0 111 162 176 300 86 180 145 341 211 573 65 227 85 315 166 712 119 586 214 929 339 1229 78 187 137 296 256 476 161 243 332 399 717 653 361 238 514 372 657 572 288 406 408 745 606 1707 99 479 119 561 217 873 142 455 328 778 599 1039 127 123 227 200 471 359 243 159 357 245 471 356 359 348 585 855 753 1685 21 104 39 185 41 179 5 -14 -93 -487 -137 -659 -119 -468 -293 -854 -506 -1124 -158 -201 -300 -321 -693 -585 -436 -294 -666 -584 -870 -1100 -101 -254 -181 -570 -305 -1207 -129 -659 -217 -968 -365 -1285 -133 -285 -242 -445 -425 -629 -149 -148 -230 -212 -541 -423 -262 -178 -451 -353 -581 -536 -265 -374 -409 -788 -570 -1640 -129 -681 -246 -1098 -400 -1424 -48 -103 -48 -101 -35 -101 11 0 87 172 152 345 106 278 181 580 300 1190 78 401 109 538 176 770 134 469 320 813 572 1064 124 124 220 200 466 368 257 177 365 264 501 406 173 180 302 382 432 677 71 162 123 318 192 579 61 232 62 235 155 711 110 557 197 900 282 1115 201 508 442 815 864 1100 299 203 415 292 540 415 139 138 221 241 308 388 216 367 336 721 470 1397 150 753 208 993 301 1250 34 94 64 182 67 198 8 40 -14 33 -33 -10z m-290 -1147 c-9 -48 -19 -84 -22 -82 -2 3 3 44 13 91 10 47 20 83 22 81 3 -2 -3 -43 -13 -90z"/>
 <path d="M1511 11968 c-13 -36 -77 -262 -105 -373 -26 -105 -65 -274 -147 -645 -82 -371 -125 -536 -188 -720 -102 -302 -184 -475 -323 -682 -76 -112 -252 -313 -267 -303 -4 2 -30 -19 -57 -48 -56 -60 -161 -136 -314 -227 -119 -71 -115 -68 -108 -75 4 -5 86 44 273 161 37 23 35 21 -15 -26 -30 -28 -101 -87 -157 -132 -57 -45 -103 -85 -103 -91 0 -5 11 0 24 10 13 10 59 45 102 78 121 92 498 457 566 549 166 220 275 435 383 756 80 239 124 404 205 775 74 342 123 550 174 740 62 230 71 258 84 263 7 2 10 -2 7 -10 -34 -99 -85 -314 -130 -546 -31 -158 -81 -415 -111 -572 -108 -551 -154 -726 -286 -1065 -68 -174 -235 -473 -330 -589 -158 -192 -273 -298 -523 -481 -186 -136 -170 -124 -163 -130 3 -3 32 14 64 38 33 24 102 74 154 113 303 222 485 423 664 736 109 190 221 472 297 748 39 143 130 580 229 1105 52 273 93 456 130 575 11 36 20 71 20 78 0 21 -40 13 -49 -10z"/>
 <path d="M2177 11970 c-29 -23 -171 -302 -223 -440 -103 -273 -200 -634 -304 -1130 -77 -367 -116 -526 -176 -725 -76 -248 -114 -347 -194 -510 -82 -167 -156 -286 -258 -415 -153 -193 -291 -303 -687 -550 -163 -101 -335 -225 -335 -240 0 -6 42 21 93 59 50 37 169 116 262 175 337 213 427 279 550 401 211 209 398 525 522 880 82 238 145 482 239 928 106 506 202 863 299 1112 53 137 175 388 206 425 12 14 -4 -22 -34 -80 -68 -131 -121 -262 -185 -455 -88 -262 -111 -363 -257 -1106 -95 -487 -135 -657 -202 -869 -157 -497 -352 -834 -650 -1120 -101 -97 -201 -175 -458 -357 -193 -136 -385 -297 -385 -323 0 -7 30 16 68 51 91 86 192 166 346 274 310 218 486 370 623 540 282 349 477 824 612 1490 16 83 58 292 91 465 121 620 186 873 302 1165 43 108 128 283 159 327 34 47 21 63 -24 28z"/>
 <path d="M2526 11923 c-32 -38 -95 -124 -141 -193 -240 -364 -387 -790 -559 -1630 -124 -604 -231 -965 -373 -1260 -81 -169 -116 -227 -219 -365 -149 -200 -328 -354 -629 -543 -187 -117 -324 -211 -395 -271 -85 -71 -210 -193 -210 -203 0 -6 39 27 86 72 148 139 262 222 576 420 565 356 829 752 1047 1575 50 189 81 326 166 735 140 673 300 1128 507 1439 121 182 207 285 234 279 13 -2 2 -21 -48 -84 -150 -187 -286 -428 -373 -658 -119 -316 -175 -542 -329 -1336 -99 -507 -135 -648 -249 -975 -67 -192 -230 -509 -330 -641 -194 -258 -325 -376 -727 -654 -143 -99 -241 -176 -336 -262 -70 -65 -224 -247 -224 -266 0 -7 27 20 59 61 133 167 284 298 591 512 445 310 645 529 839 920 173 348 260 634 376 1231 31 159 64 327 75 374 10 47 28 135 40 195 30 149 84 385 115 498 36 126 128 381 184 502 65 143 199 364 292 479 43 55 79 104 79 108 0 4 -15 8 -34 8 -29 0 -41 -9 -90 -67z"/>
 <path d="M4310 11949 c-19 -24 -61 -75 -95 -112 -33 -38 -59 -72 -58 -76 1 -5 -17 -26 -40 -47 l-42 -39 40 43 c55 59 35 52 -38 -13 -65 -59 -267 -201 -427 -299 -588 -362 -882 -775 -1104 -1554 -56 -195 -80 -295 -151 -637 -126 -611 -209 -921 -313 -1181 -82 -204 -139 -315 -241 -469 -172 -259 -354 -426 -686 -632 -201 -124 -350 -230 -449 -319 -201 -179 -319 -331 -464 -599 -97 -179 -242 -543 -242 -606 0 -13 20 35 44 107 106 314 275 641 436 844 133 166 303 314 530 461 330 214 401 263 491 338 352 294 591 723 748 1346 44 175 117 495 157 690 127 617 237 982 389 1284 115 230 255 422 427 585 124 118 206 177 578 422 113 75 216 145 230 157 14 13 19 15 11 5 -16 -22 -222 -178 -311 -238 -143 -95 -331 -235 -431 -323 -86 -75 -200 -203 -273 -306 -91 -129 -219 -367 -267 -496 -12 -33 -25 -64 -29 -70 -19 -24 -102 -296 -144 -465 -78 -321 -84 -348 -141 -655 -74 -396 -97 -500 -155 -724 -130 -498 -268 -807 -505 -1126 -122 -165 -317 -340 -580 -520 -516 -353 -685 -541 -904 -1004 -35 -74 -79 -180 -98 -235 -78 -232 -205 -750 -202 -828 1 -28 3 -26 11 17 89 454 194 814 307 1051 213 445 400 653 872 970 473 317 718 611 933 1117 115 269 215 648 332 1257 144 750 234 1062 408 1407 183 365 376 573 811 876 315 218 510 387 629 545 55 73 61 120 6 51z"/>
 <path d="M4685 11933 c-75 -144 -228 -347 -351 -465 -123 -118 -286 -235 -629 -453 -313 -198 -561 -478 -739 -833 -148 -295 -265 -672 -375 -1212 -49 -242 -153 -703 -187 -830 -141 -529 -336 -905 -613 -1180 -141 -140 -200 -184 -611 -452 -220 -143 -444 -343 -557 -499 -166 -228 -300 -495 -406 -809 -81 -241 -219 -797 -216 -873 2 -37 -1 -46 45 173 99 471 221 843 377 1155 179 360 425 625 802 865 457 291 629 442 810 715 243 365 361 722 561 1690 129 624 240 977 409 1296 82 155 119 211 234 359 143 184 351 351 756 605 193 121 448 352 544 494 23 33 44 61 47 61 23 0 -154 -220 -268 -333 -125 -124 -202 -184 -469 -368 -270 -186 -390 -286 -513 -427 -159 -183 -265 -359 -385 -639 -113 -265 -203 -609 -321 -1218 -142 -741 -256 -1129 -437 -1489 -79 -157 -229 -371 -360 -513 -96 -105 -273 -244 -548 -433 -290 -199 -416 -316 -581 -537 -75 -102 -199 -329 -255 -471 -122 -305 -193 -576 -304 -1157 -45 -237 -117 -581 -135 -644 -5 -20 -10 -47 -9 -61 1 -23 1 -23 10 5 18 60 112 506 165 785 121 628 231 991 394 1292 93 172 139 240 248 368 121 143 248 252 457 395 363 249 513 373 648 538 307 373 490 811 647 1547 12 52 52 257 91 455 161 823 296 1218 536 1573 167 245 324 390 688 637 350 236 525 402 692 650 64 95 163 268 163 285 0 28 -28 3 -55 -47z"/>
 <path d="M5309 11948 c-56 -213 -176 -508 -280 -691 -117 -206 -293 -416 -464 -554 -80 -64 -287 -205 -442 -301 -382 -235 -675 -579 -857 -1005 -106 -249 -216 -623 -295 -1002 -166 -797 -211 -975 -325 -1286 -124 -341 -289 -614 -491 -815 -128 -127 -224 -198 -580 -429 -189 -123 -291 -204 -421 -337 -387 -394 -591 -877 -798 -1893 -135 -657 -215 -951 -335 -1228 -27 -63 -27 -96 0 -37 122 263 201 549 350 1265 74 357 115 531 169 710 170 569 357 913 652 1201 128 126 234 207 459 351 493 316 683 512 883 910 142 284 252 640 365 1178 28 132 71 335 96 450 171 788 359 1224 684 1584 134 148 272 255 604 467 124 79 298 206 372 271 147 130 311 346 417 548 32 61 58 106 58 101 0 -5 -33 -74 -74 -153 -182 -350 -394 -578 -792 -849 -502 -341 -711 -572 -908 -999 -141 -307 -237 -651 -351 -1255 -115 -609 -207 -969 -321 -1251 -124 -309 -196 -434 -415 -721 -96 -125 -288 -287 -564 -476 -214 -145 -231 -158 -321 -234 -176 -147 -322 -325 -441 -537 -193 -341 -280 -629 -453 -1495 -50 -252 -109 -531 -131 -620 -74 -299 -199 -650 -304 -849 -31 -59 -55 -113 -52 -120 5 -17 119 212 176 354 68 172 153 443 200 639 22 91 84 381 136 645 111 551 155 732 230 955 194 577 435 891 945 1236 295 199 518 388 608 514 18 25 55 74 83 110 95 122 215 338 289 520 150 373 205 585 385 1510 50 257 79 381 131 557 217 744 464 1088 1069 1492 202 135 299 213 440 355 233 234 394 493 527 851 35 94 103 316 113 368 10 53 -11 48 -26 -5z m-143 -465 c-8 -15 -15 -25 -16 -21 0 12 23 58 27 54 3 -2 -2 -17 -11 -33z"/>
 <path d="M6022 11788 c-177 -864 -286 -1200 -510 -1572 -160 -267 -369 -480 -632 -646 -312 -196 -541 -365 -635 -465 -223 -239 -340 -424 -479 -753 -110 -263 -207 -620 -326 -1207 -214 -1052 -400 -1494 -793 -1874 -116 -113 -202 -177 -447 -334 -174 -112 -210 -137 -342 -236 -88 -66 -249 -230 -328 -336 -184 -243 -327 -539 -449 -930 -62 -201 -118 -437 -245 -1040 -97 -461 -167 -708 -277 -980 -123 -304 -320 -593 -511 -749 -47 -39 -65 -66 -30 -47 34 18 212 202 270 278 85 112 120 170 201 330 152 301 251 624 371 1208 183 887 286 1232 472 1582 102 193 174 303 274 418 157 180 264 268 584 476 271 176 364 246 490 371 199 196 318 376 455 693 100 231 207 615 304 1092 139 688 225 1008 348 1298 75 176 113 250 196 380 88 138 133 197 238 309 147 156 210 204 689 519 292 192 481 395 659 710 134 237 241 521 325 862 46 187 146 640 167 758 7 37 16 67 20 67 4 0 5 -8 3 -17 -2 -10 -24 -124 -49 -253 -100 -526 -186 -862 -290 -1128 -146 -374 -274 -580 -510 -818 -144 -146 -249 -230 -465 -374 -370 -248 -579 -454 -743 -733 -115 -194 -177 -339 -266 -610 -69 -209 -102 -350 -227 -964 -121 -596 -153 -728 -230 -960 -80 -239 -125 -348 -211 -508 -97 -180 -126 -224 -233 -359 -153 -193 -321 -339 -618 -538 -217 -145 -348 -252 -482 -393 -261 -275 -456 -667 -579 -1165 -67 -267 -88 -366 -151 -690 -104 -541 -133 -662 -232 -980 -108 -349 -256 -642 -453 -895 -64 -82 -268 -287 -317 -319 -26 -17 -40 -42 -19 -34 13 5 141 117 196 173 250 251 442 577 582 990 96 284 157 539 258 1065 101 528 208 944 292 1135 125 284 166 361 292 540 111 160 329 363 542 505 272 183 436 310 550 427 280 286 444 575 602 1058 73 223 112 381 192 780 108 537 154 751 195 910 102 389 250 727 428 976 128 179 339 374 587 540 378 255 569 424 726 644 186 260 347 631 448 1033 64 251 201 910 201 965 0 10 -8 17 -18 17 -16 0 -24 -28 -60 -202z"/>
 <path d="M7207 11886 c-74 -133 -131 -263 -200 -456 -92 -258 -154 -505 -282 -1120 -74 -355 -114 -526 -156 -665 -121 -401 -261 -702 -432 -930 -161 -214 -340 -366 -699 -595 -418 -266 -639 -503 -837 -897 -157 -313 -258 -632 -371 -1168 -67 -319 -94 -446 -141 -655 -174 -769 -419 -1236 -820 -1561 -54 -43 -212 -155 -351 -248 -290 -194 -415 -295 -553 -447 -163 -181 -291 -392 -419 -691 -119 -279 -211 -611 -331 -1203 -113 -556 -207 -902 -310 -1142 -24 -57 -42 -105 -39 -107 7 -7 9 -2 62 124 92 220 182 543 272 981 28 137 65 314 82 394 39 189 128 529 180 689 153 475 396 868 689 1117 123 104 164 134 409 295 113 75 250 172 305 216 436 348 685 844 874 1738 16 77 54 257 85 401 153 724 273 1080 486 1434 89 149 173 255 304 385 125 123 212 188 550 411 274 181 439 325 572 504 287 384 417 735 612 1650 6 25 10 37 11 28 1 -23 -82 -427 -124 -603 -38 -161 -129 -443 -187 -584 -138 -335 -340 -628 -568 -825 -120 -104 -167 -139 -420 -316 -113 -78 -240 -172 -282 -207 -125 -104 -281 -275 -362 -398 -255 -384 -389 -783 -561 -1675 -168 -872 -323 -1326 -578 -1700 -166 -243 -345 -411 -672 -632 -268 -182 -355 -248 -474 -366 -173 -171 -281 -327 -407 -587 -137 -284 -222 -567 -329 -1105 -35 -179 -69 -345 -74 -370 -6 -25 -27 -121 -46 -215 -56 -262 -133 -559 -176 -674 -22 -57 -37 -106 -34 -109 8 -8 10 -4 63 153 76 227 138 490 268 1150 88 446 152 693 246 944 129 344 323 647 542 845 111 100 183 154 401 301 516 348 727 598 952 1125 127 296 223 665 358 1365 92 478 194 854 295 1090 144 337 283 550 481 740 131 126 195 175 521 399 285 197 440 343 594 560 135 190 244 404 330 644 92 259 134 423 223 864 178 880 201 977 303 1268 61 172 127 324 191 437 26 45 47 87 47 93 0 27 -20 1 -73 -94z m-403 -1312 c-16 -81 -32 -120 -20 -49 15 83 28 136 32 132 3 -2 -3 -40 -12 -83z"/>
 <path d="M3172 11961 c-47 -18 -205 -131 -296 -213 -153 -136 -328 -368 -434 -575 -179 -351 -285 -697 -437 -1431 -165 -794 -301 -1190 -524 -1527 -175 -265 -340 -415 -712 -650 -373 -236 -522 -365 -738 -642 -18 -24 -31 -48 -29 -53 2 -6 32 29 68 77 82 110 281 311 383 387 84 63 197 138 383 256 396 252 624 498 799 865 157 327 249 637 385 1285 137 656 220 950 350 1246 174 394 362 640 663 870 48 36 90 65 92 62 3 -2 -31 -32 -74 -67 -104 -82 -302 -287 -373 -386 -163 -230 -305 -537 -404 -872 -30 -103 -52 -196 -144 -618 -11 -49 -45 -220 -75 -380 -119 -621 -217 -961 -366 -1275 -201 -421 -420 -666 -875 -976 -254 -173 -475 -361 -570 -486 -116 -153 -249 -367 -242 -388 2 -6 21 22 42 62 39 73 123 197 213 316 96 127 265 273 507 441 398 275 557 421 748 686 33 46 138 221 138 230 0 3 20 45 44 94 155 316 260 685 390 1366 153 802 239 1108 411 1460 112 229 253 424 426 592 105 101 261 223 286 223 16 0 23 6 23 20 0 23 -1 23 -58 1z"/>
 <path d="M3775 11954 c-16 -14 -88 -64 -160 -111 -71 -47 -200 -132 -285 -189 -374 -247 -588 -500 -783 -926 -137 -302 -229 -617 -347 -1193 -108 -533 -211 -928 -297 -1145 -151 -382 -353 -684 -594 -886 -97 -81 -128 -103 -424 -297 -256 -167 -406 -287 -525 -418 -128 -141 -247 -313 -329 -476 -51 -102 -35 -96 20 7 84 156 210 339 314 453 129 142 278 260 578 456 291 189 404 277 527 410 145 157 251 316 354 533 152 319 222 563 391 1364 77 368 95 441 151 641 76 270 129 412 236 629 199 404 397 619 828 897 180 117 283 185 335 222 27 19 54 35 60 35 19 -1 -72 -72 -309 -238 -428 -300 -590 -461 -771 -768 -136 -228 -259 -549 -336 -874 -56 -233 -107 -474 -149 -695 -98 -520 -167 -804 -260 -1063 -116 -323 -256 -585 -427 -793 -88 -107 -263 -274 -373 -355 -124 -92 -284 -205 -337 -238 -23 -14 -99 -72 -169 -127 -228 -184 -414 -423 -555 -714 -80 -165 -140 -320 -138 -358 0 -18 3 -16 11 8 91 268 208 505 332 670 187 251 286 341 646 590 363 252 533 411 700 656 155 227 296 537 384 839 89 310 99 352 196 855 128 665 197 936 311 1223 152 381 344 662 599 876 88 74 237 183 426 311 110 75 264 196 264 208 0 18 -67 5 -95 -19z"/>
 <path d="M5004 11908 c-60 -161 -190 -398 -293 -538 -163 -220 -327 -362 -676 -585 -217 -139 -370 -254 -486 -367 -249 -242 -427 -550 -584 -1008 -77 -226 -120 -404 -286 -1180 -88 -412 -152 -634 -265 -919 -164 -412 -424 -733 -784 -966 -478 -310 -565 -375 -722 -548 -219 -240 -411 -594 -532 -982 -88 -282 -142 -503 -246 -1010 -34 -161 -81 -373 -111 -488 -11 -44 -19 -89 -17 -101 5 -33 60 202 178 759 90 421 107 491 174 715 71 240 121 370 212 560 122 254 240 425 404 591 142 142 313 270 592 441 327 200 572 451 740 760 167 306 283 663 403 1238 133 636 193 884 269 1106 73 217 127 350 193 474 215 409 423 628 843 890 257 160 386 258 523 393 107 107 158 169 247 302 29 44 58 85 63 90 18 18 -55 -109 -92 -160 -20 -27 -49 -69 -64 -91 -45 -67 -205 -231 -312 -321 -55 -46 -160 -125 -232 -176 -269 -187 -296 -206 -373 -266 -114 -90 -316 -302 -392 -412 -261 -378 -400 -783 -563 -1639 -180 -944 -317 -1357 -583 -1755 -165 -247 -338 -413 -677 -650 -355 -247 -468 -344 -609 -520 -101 -127 -149 -201 -229 -356 -80 -153 -122 -253 -182 -434 -73 -223 -108 -369 -214 -895 -145 -721 -178 -859 -268 -1124 -29 -88 -52 -167 -51 -175 6 -25 124 347 172 539 24 96 92 414 151 705 112 559 159 757 224 945 81 236 127 342 226 516 179 314 351 485 785 784 515 354 748 649 973 1230 73 191 117 348 211 755 14 61 46 220 71 355 134 711 227 1049 371 1353 129 269 231 416 428 613 130 129 225 203 515 403 386 266 608 512 786 876 69 141 145 317 145 336 0 5 -6 9 -14 9 -8 0 -25 -30 -42 -72z"/>
 <path d="M5825 11958 c-3 -13 -14 -63 -24 -113 -151 -724 -314 -1143 -583 -1498 -144 -190 -360 -371 -673 -566 -304 -188 -489 -350 -660 -577 -138 -183 -316 -558 -409 -866 -31 -104 -53 -188 -130 -508 -14 -58 -53 -240 -86 -405 -94 -461 -136 -625 -239 -926 -52 -152 -181 -432 -246 -534 -160 -250 -369 -453 -660 -641 -252 -162 -297 -192 -384 -258 -346 -260 -607 -646 -776 -1146 -93 -275 -135 -434 -220 -835 -106 -503 -128 -603 -166 -754 -117 -477 -282 -851 -482 -1098 -81 -99 -91 -113 -85 -118 7 -8 123 136 186 232 212 323 345 701 486 1378 220 1056 315 1354 560 1765 183 307 402 513 830 783 429 270 642 500 836 902 162 335 249 629 390 1321 108 531 204 885 310 1143 217 529 458 817 930 1116 187 118 345 229 438 308 264 224 455 513 622 947 66 172 78 187 26 34 -199 -589 -473 -957 -951 -1277 -487 -326 -701 -546 -884 -906 -180 -355 -261 -620 -401 -1321 -148 -739 -193 -927 -284 -1182 -150 -422 -315 -700 -560 -943 -101 -100 -262 -229 -406 -325 -157 -105 -300 -209 -387 -282 -274 -232 -473 -525 -616 -913 -106 -286 -148 -458 -287 -1160 -88 -439 -110 -535 -176 -767 -143 -501 -331 -867 -592 -1156 -41 -45 -72 -85 -69 -88 11 -11 193 206 280 336 148 221 294 547 380 850 84 295 115 431 197 860 47 244 126 607 165 755 134 507 311 852 587 1140 103 108 230 209 468 372 250 170 340 242 470 373 259 259 418 532 571 980 91 265 109 338 250 1034 119 587 154 733 220 936 153 464 318 750 579 1006 126 123 238 210 487 377 326 219 541 437 719 727 97 161 213 429 283 659 41 134 135 524 170 706 12 61 23 118 25 128 6 26 -23 21 -29 -5z m-161 -762 c-3 -15 -8 -25 -11 -23 -2 3 -1 17 3 31 3 15 8 25 11 23 2 -3 1 -17 -3 -31z"/>
 <path d="M6325 11968 c-12 -35 -48 -194 -85 -373 -126 -615 -208 -952 -287 -1175 -136 -383 -289 -648 -507 -877 -122 -128 -218 -206 -406 -330 -443 -292 -528 -358 -668 -513 -155 -173 -294 -399 -408 -665 -71 -168 -123 -327 -194 -600 -51 -194 -59 -227 -116 -505 -140 -678 -229 -1012 -339 -1265 -172 -396 -326 -612 -598 -838 -37 -31 -147 -109 -245 -173 -97 -64 -208 -138 -247 -163 -288 -190 -505 -421 -670 -710 -216 -380 -325 -725 -505 -1592 -129 -620 -217 -928 -335 -1174 -56 -118 -170 -316 -216 -375 -100 -131 -155 -194 -230 -264 -74 -69 -216 -182 -259 -206 -8 -5 -12 -12 -8 -15 12 -13 202 138 309 244 109 109 212 241 291 371 200 328 308 661 467 1440 118 575 202 891 307 1158 163 413 351 696 613 923 94 81 368 274 561 394 184 115 421 345 541 526 249 375 374 738 554 1604 89 433 99 472 156 680 69 252 122 408 191 565 131 298 250 482 437 674 123 126 238 215 469 366 407 266 528 370 703 600 136 179 261 420 354 684 88 248 128 402 215 811 44 206 58 263 59 245 2 -31 -97 -503 -155 -740 -118 -481 -309 -888 -546 -1165 -129 -151 -267 -268 -525 -445 -287 -198 -354 -251 -503 -400 -152 -151 -225 -245 -320 -413 -82 -146 -132 -255 -201 -447 -92 -251 -151 -494 -299 -1239 -92 -460 -150 -681 -256 -971 -50 -135 -195 -430 -262 -530 -177 -266 -332 -415 -692 -665 -102 -71 -210 -146 -240 -169 -330 -241 -539 -516 -718 -941 -108 -257 -193 -587 -312 -1210 -130 -678 -239 -1048 -415 -1410 -114 -234 -303 -494 -469 -647 -28 -26 -46 -47 -39 -48 27 -1 254 249 336 370 275 406 430 853 601 1730 88 454 98 496 156 720 147 566 334 929 629 1219 110 109 235 206 456 356 443 302 657 533 849 921 169 339 272 672 381 1224 164 835 232 1105 364 1432 64 160 185 381 271 495 173 228 320 355 777 668 450 309 698 655 906 1265 71 208 141 509 257 1112 27 141 59 295 70 343 11 47 20 95 20 105 0 22 -18 27 -25 8z"/>
 <path d="M6582 11878 c-52 -171 -72 -257 -248 -1087 -125 -593 -255 -952 -466 -1291 -166 -267 -352 -438 -768 -703 -365 -234 -550 -410 -743 -708 -161 -249 -276 -529 -386 -944 -59 -224 -74 -288 -151 -670 -66 -328 -161 -712 -218 -890 -22 -66 -65 -180 -96 -253 -207 -480 -432 -739 -906 -1042 -431 -275 -638 -471 -827 -785 -79 -132 -110 -194 -176 -355 -138 -338 -205 -585 -352 -1295 -80 -390 -110 -516 -175 -735 -86 -288 -184 -517 -304 -710 -75 -121 -205 -284 -290 -362 -28 -26 -46 -47 -40 -48 7 0 56 46 110 103 211 221 376 512 492 867 90 274 131 437 221 880 127 622 204 918 314 1200 137 352 275 580 484 800 138 145 273 252 508 399 380 239 565 407 740 671 89 136 139 230 204 385 23 55 48 114 56 130 62 138 172 568 280 1091 42 203 85 403 95 444 169 697 385 1142 714 1465 126 123 243 211 553 415 286 188 427 311 584 510 83 104 235 378 299 537 19 46 35 81 37 79 8 -8 -80 -220 -137 -331 -196 -380 -390 -596 -776 -860 -363 -249 -502 -363 -629 -516 -99 -119 -117 -144 -187 -265 -176 -305 -297 -635 -392 -1074 -20 -91 -45 -203 -55 -250 -11 -47 -47 -224 -80 -395 -85 -434 -125 -591 -220 -880 -58 -179 -94 -263 -185 -441 -185 -360 -412 -607 -801 -870 -250 -168 -364 -256 -481 -370 -186 -183 -292 -337 -416 -607 -88 -191 -162 -411 -232 -687 -54 -213 -72 -299 -161 -765 -54 -282 -147 -666 -206 -850 -89 -280 -248 -615 -366 -773 -14 -18 -22 -36 -19 -39 8 -8 4 -13 76 97 119 183 269 521 345 777 60 205 142 561 210 913 97 508 155 748 246 1020 78 235 202 490 313 645 76 106 89 121 204 238 112 114 240 215 457 362 380 257 595 471 772 765 132 220 268 569 362 930 49 190 67 272 142 655 147 759 245 1097 408 1424 201 399 387 596 871 921 328 221 564 452 705 692 128 217 190 354 285 633 77 225 119 398 245 1020 102 500 142 676 185 800 22 63 25 85 12 85 -5 0 -23 -46 -40 -102z m-402 -1763 c-23 -69 -44 -125 -46 -123 -2 3 15 61 38 131 23 69 44 124 46 122 2 -2 -15 -61 -38 -130z"/>
 <path d="M1780 11863 c-23 -60 -49 -128 -60 -153 -52 -126 -155 -535 -275 -1095 -148 -684 -286 -1071 -491 -1380 -198 -298 -358 -442 -754 -677 -149 -88 -205 -127 -196 -135 2 -3 20 6 38 20 18 14 85 55 148 92 274 162 499 333 610 466 318 378 485 794 669 1659 28 129 57 262 65 295 8 33 31 130 51 215 58 248 120 459 187 630 34 88 63 159 65 157 2 -2 -8 -34 -22 -71 -75 -199 -169 -560 -230 -881 -20 -104 -54 -284 -76 -400 -102 -541 -157 -760 -263 -1049 -123 -336 -294 -623 -503 -847 -95 -101 -269 -247 -434 -364 -212 -151 -309 -225 -309 -235 0 -5 42 21 93 60 50 38 144 106 209 152 397 283 584 483 774 825 89 160 144 288 219 504 85 247 131 443 235 989 125 659 169 848 259 1118 32 97 62 185 66 195 5 13 2 17 -13 17 -17 0 -28 -20 -62 -107z"/>
 <path d="M5570 11944 c-6 -14 -10 -30 -10 -36 0 -21 -91 -353 -127 -463 -115 -353 -292 -679 -485 -892 -142 -157 -222 -220 -588 -464 -146 -98 -313 -218 -371 -267 -259 -221 -485 -567 -621 -952 -63 -176 -79 -228 -113 -353 -39 -144 -134 -564 -194 -860 -59 -289 -96 -439 -157 -645 -71 -238 -118 -362 -200 -524 -91 -183 -149 -274 -257 -407 -148 -184 -314 -316 -735 -585 -215 -137 -411 -317 -556 -510 -196 -262 -301 -487 -446 -951 -41 -131 -98 -369 -154 -640 -131 -629 -199 -903 -286 -1145 -84 -231 -129 -329 -220 -485 -28 -47 -50 -91 -48 -96 2 -6 32 38 66 99 211 371 307 684 507 1647 119 571 223 904 377 1210 106 209 172 308 318 475 155 177 317 303 715 555 300 190 537 446 698 755 173 330 269 641 412 1340 130 630 201 900 312 1180 81 205 114 272 214 430 191 306 335 443 769 732 146 97 312 214 370 261 171 138 301 293 444 532 36 60 66 105 66 100 0 -17 -74 -146 -143 -250 -184 -279 -329 -415 -749 -703 -225 -154 -308 -220 -438 -352 -135 -136 -243 -292 -354 -510 -168 -330 -256 -623 -386 -1285 -201 -1030 -312 -1382 -565 -1785 -170 -270 -344 -439 -731 -709 -137 -96 -288 -208 -336 -248 -280 -237 -475 -529 -628 -938 -98 -265 -139 -431 -294 -1205 -137 -684 -232 -1001 -399 -1337 -79 -157 -112 -215 -189 -321 -33 -45 -58 -87 -56 -93 2 -5 31 30 65 79 272 393 441 863 589 1644 97 513 192 926 256 1113 43 126 143 366 181 435 216 390 409 589 862 887 166 109 371 282 479 403 145 163 238 305 356 545 162 328 240 604 405 1430 105 523 128 623 190 830 76 255 108 338 201 525 198 396 365 577 824 896 123 86 242 170 265 187 360 283 592 629 771 1152 24 72 69 227 98 345 30 118 57 223 61 233 5 12 2 17 -9 17 -9 0 -21 -12 -26 -26z m-176 -678 c-14 -37 -28 -65 -30 -63 -2 2 8 33 23 70 14 37 28 65 30 63 2 -2 -8 -34 -23 -70z m-48 -113 c-8 -15 -15 -25 -16 -21 0 12 23 58 27 54 3 -2 -2 -17 -11 -33z m-35 -80 c-11 -21 -20 -35 -21 -31 0 12 33 78 38 74 2 -2 -6 -21 -17 -43z"/>
 <path d="M225 11758 c-51 -149 -107 -293 -160 -403 -36 -76 -64 -143 -62 -148 8 -25 207 431 224 513 5 29 33 43 33 18 0 -25 -59 -244 -95 -358 -35 -108 -79 -219 -139 -354 -15 -32 -26 -65 -24 -73 4 -18 126 269 169 394 31 92 109 383 109 408 0 18 -49 21 -55 3z"/>
 <path d="M744 11743 c-14 -69 -108 -438 -135 -533 -138 -485 -320 -840 -558 -1093 -30 -31 -52 -60 -49 -63 12 -11 164 168 242 286 110 167 153 247 235 447 76 183 148 417 232 752 29 118 55 209 56 204 9 -27 -72 -434 -142 -713 -128 -511 -316 -904 -573 -1198 -30 -34 -52 -65 -49 -68 10 -10 147 158 227 279 158 237 290 543 389 902 52 188 171 760 171 820 0 3 -9 5 -20 5 -13 0 -21 -9 -26 -27z"/>
 <path d="M508 11748 c-9 -7 -33 -71 -53 -142 -106 -380 -238 -691 -385 -910 -40 -58 -70 -109 -67 -112 9 -10 120 160 185 285 118 225 200 439 273 705 61 224 80 218 27 -9 -90 -391 -143 -563 -237 -782 -70 -165 -134 -287 -204 -391 -26 -40 -47 -78 -44 -85 9 -27 199 311 262 468 20 50 43 104 51 121 42 94 111 338 173 609 61 271 61 275 19 243z"/>
 <path d="M990 11756 c0 -17 -92 -411 -149 -641 -142 -570 -261 -856 -481 -1165 -76 -107 -241 -280 -312 -329 -47 -31 -68 -63 -29 -42 39 21 199 170 263 246 194 228 371 574 480 935 49 163 175 673 224 908 10 45 22 82 27 82 5 0 7 -10 4 -22 -3 -13 -26 -142 -52 -287 -114 -653 -228 -1064 -385 -1386 -143 -292 -299 -507 -502 -690 -78 -70 -103 -104 -48 -65 47 33 203 193 271 277 238 296 426 708 544 1198 56 233 185 906 185 966 0 12 -7 19 -20 19 -11 0 -20 -2 -20 -4z"/>
 <path d="M1237 11698 c-9 -35 -41 -175 -71 -313 -184 -826 -258 -1085 -399 -1390 -59 -127 -179 -333 -244 -417 -114 -149 -276 -298 -440 -405 -46 -30 -83 -59 -83 -64 0 -5 33 12 73 38 222 145 416 339 544 543 246 394 335 665 594 1827 24 106 44 191 46 189 2 -2 -12 -86 -31 -187 -20 -101 -51 -274 -71 -384 -62 -344 -150 -741 -212 -945 -33 -112 -139 -381 -197 -500 -59 -123 -112 -212 -197 -333 -38 -54 -69 -101 -69 -104 0 -18 49 43 114 141 266 403 419 866 576 1745 41 229 107 572 116 604 4 12 0 17 -14 17 -16 0 -23 -13 -35 -62z"/>
 <path d="M7257 11288 c-74 -177 -120 -320 -181 -568 -74 -297 -94 -385 -157 -695 -76 -377 -95 -458 -159 -675 -29 -96 -57 -191 -62 -210 -41 -141 -180 -443 -278 -601 -105 -169 -258 -341 -420 -472 -76 -61 -298 -212 -449 -306 -203 -126 -428 -327 -540 -484 -31 -43 -68 -96 -83 -117 -41 -56 -165 -290 -215 -405 -103 -235 -202 -573 -297 -1020 -158 -744 -194 -899 -252 -1079 -141 -438 -294 -722 -519 -964 -112 -119 -233 -216 -445 -356 -358 -236 -447 -302 -581 -436 -105 -104 -180 -201 -283 -359 -222 -343 -368 -776 -526 -1556 -72 -356 -155 -711 -208 -888 -16 -53 -26 -97 -21 -97 21 0 143 491 240 964 85 415 87 426 150 656 130 474 257 753 488 1073 130 180 340 364 622 545 167 107 322 214 384 265 145 119 303 295 397 442 203 317 331 677 467 1315 184 860 200 926 286 1185 75 225 122 339 214 512 141 268 275 437 486 612 99 83 130 105 385 271 257 167 349 238 473 364 166 169 263 310 382 551 46 94 104 231 130 305 51 150 159 521 170 588 4 24 9 41 12 38 17 -16 -115 -500 -197 -722 -89 -242 -216 -483 -345 -655 -147 -196 -336 -365 -625 -558 -398 -267 -591 -456 -784 -771 -65 -106 -185 -380 -239 -545 -71 -218 -150 -546 -227 -945 -155 -802 -250 -1130 -436 -1502 -179 -359 -420 -614 -844 -898 -451 -302 -663 -534 -856 -935 -145 -304 -238 -630 -363 -1285 -56 -290 -141 -677 -187 -850 -5 -17 -4 -22 4 -15 21 20 104 392 231 1033 117 589 217 905 386 1222 167 314 370 528 730 773 66 45 170 117 230 160 380 274 600 560 792 1032 122 298 174 499 328 1265 156 778 241 1060 430 1417 84 159 205 324 335 454 121 122 229 208 445 353 458 310 667 530 863 913 87 170 157 345 211 528 23 77 48 160 56 185 30 100 57 222 125 565 39 198 77 387 85 420 8 33 33 145 55 249 63 287 135 529 209 699 22 52 26 77 13 77 -5 0 -21 -28 -35 -62z"/>
 <path d="M7217 10263 c-31 -126 -86 -374 -122 -553 -92 -455 -164 -735 -256 -1000 -57 -164 -192 -434 -290 -579 -139 -207 -351 -410 -579 -556 -448 -288 -587 -398 -745 -595 -295 -365 -468 -788 -625 -1525 -23 -104 -68 -318 -101 -475 -74 -346 -115 -511 -175 -695 -113 -344 -249 -617 -407 -815 -150 -187 -277 -295 -597 -506 -140 -92 -306 -207 -367 -256 -186 -148 -348 -333 -477 -545 -79 -132 -224 -457 -265 -596 -122 -418 -137 -479 -226 -916 -30 -147 -75 -353 -100 -456 -39 -162 -47 -212 -31 -194 6 8 77 323 147 659 84 406 105 495 170 718 178 615 408 1006 763 1296 112 92 133 106 427 299 287 188 416 299 558 477 95 119 123 163 202 311 172 326 271 634 398 1244 147 702 196 900 277 1132 100 287 142 377 277 603 86 142 186 268 308 387 121 117 219 190 549 404 360 235 571 456 754 792 168 307 287 697 432 1416 38 184 69 330 71 325 7 -20 -168 -870 -211 -1029 -116 -425 -229 -693 -400 -955 -161 -245 -328 -402 -701 -660 -239 -164 -333 -238 -449 -350 -258 -249 -461 -608 -589 -1045 -83 -281 -112 -403 -191 -805 -173 -871 -267 -1202 -437 -1541 -196 -391 -396 -612 -814 -899 -271 -186 -292 -201 -398 -290 -182 -153 -322 -327 -446 -557 -85 -159 -126 -256 -198 -468 -71 -211 -118 -402 -209 -855 -42 -206 -86 -426 -100 -489 -21 -99 -24 -136 -10 -120 2 2 24 112 50 244 26 132 49 249 52 260 2 11 27 130 55 265 63 311 109 490 165 659 129 382 265 639 455 857 121 139 241 239 507 421 264 182 276 190 405 301 209 181 413 461 534 733 159 361 249 688 393 1429 75 385 107 525 169 741 78 270 115 369 215 575 134 271 243 425 424 595 106 99 176 153 442 339 261 182 382 282 504 415 156 171 283 376 408 660 109 246 211 628 322 1197 41 210 95 470 120 576 42 178 47 222 26 222 -4 0 -33 -102 -63 -227z m-2 -108 c-10 -42 -19 -74 -22 -71 -3 2 3 39 13 80 10 42 19 74 22 72 2 -3 -4 -39 -13 -81z"/>
 <path d="M7251 9222 c-42 -200 -130 -538 -182 -701 -137 -423 -327 -750 -570 -987 -125 -121 -214 -189 -436 -334 -342 -222 -478 -331 -631 -504 -257 -291 -461 -746 -597 -1331 -25 -104 -54 -228 -65 -275 -11 -47 -45 -209 -75 -360 -74 -362 -104 -484 -180 -730 -148 -477 -313 -770 -577 -1026 -124 -120 -186 -166 -476 -358 -438 -290 -580 -428 -794 -771 -132 -212 -217 -416 -337 -810 -46 -151 -139 -562 -229 -1015 -3 -17 -1 -22 5 -15 6 6 15 33 20 60 136 664 172 817 243 1049 94 305 181 508 304 711 63 105 202 296 258 355 132 138 309 276 578 450 308 199 481 348 623 538 180 242 298 497 422 912 58 194 81 292 155 655 146 716 245 1074 390 1397 181 408 437 707 812 950 524 340 662 461 844 740 96 146 170 290 247 479 73 179 107 288 183 584 62 243 86 312 43 123 -70 -306 -176 -666 -235 -796 -13 -29 -36 -80 -50 -115 -43 -102 -128 -256 -209 -375 -156 -230 -323 -385 -660 -616 -399 -272 -536 -398 -722 -664 -105 -150 -226 -398 -295 -607 -110 -332 -148 -485 -233 -935 -133 -703 -240 -1097 -389 -1433 -197 -441 -432 -715 -866 -1006 -116 -78 -211 -146 -320 -228 -25 -19 -87 -73 -138 -120 -233 -214 -403 -484 -542 -858 -84 -226 -126 -382 -206 -765 -82 -391 -101 -490 -93 -490 5 0 9 2 9 3 0 23 126 622 165 787 61 254 146 503 244 714 44 95 153 276 221 366 138 184 336 357 650 566 529 353 777 677 998 1299 93 263 139 453 287 1188 100 497 105 521 180 766 139 462 321 779 602 1052 119 115 220 193 452 349 362 244 540 417 725 707 94 149 200 382 277 612 84 248 219 815 219 918 0 86 -18 48 -49 -105z"/>
 <path d="M7289 8265 c-4 -5 -17 -41 -29 -80 -76 -234 -203 -504 -321 -680 -176 -263 -330 -406 -684 -636 -347 -225 -487 -337 -626 -499 -221 -258 -374 -551 -509 -975 -58 -184 -131 -487 -234 -985 -72 -348 -97 -448 -156 -652 -153 -516 -338 -859 -602 -1114 -143 -137 -232 -204 -496 -370 -428 -271 -678 -536 -876 -932 -151 -300 -257 -633 -366 -1140 -23 -107 -39 -196 -36 -199 8 -8 10 0 51 197 148 706 324 1151 594 1504 88 115 240 270 326 334 180 131 257 184 420 291 398 260 587 465 780 851 159 317 251 621 390 1295 59 285 74 353 137 610 78 317 177 603 281 812 53 104 169 291 234 375 119 155 306 326 489 448 58 39 117 79 132 89 15 10 77 50 137 88 364 230 603 496 786 878 65 134 76 147 25 28 -115 -269 -264 -493 -451 -678 -115 -115 -246 -218 -460 -365 -310 -213 -478 -363 -623 -557 -274 -368 -424 -774 -577 -1558 -30 -154 -64 -323 -76 -375 -11 -52 -38 -178 -60 -280 -161 -750 -406 -1258 -767 -1588 -102 -93 -292 -239 -427 -327 -254 -167 -484 -369 -608 -535 -105 -141 -236 -382 -302 -555 -21 -55 -46 -120 -55 -145 -42 -106 -121 -411 -174 -670 -14 -69 -29 -136 -32 -150 -5 -17 -4 -22 4 -15 6 6 27 89 47 185 113 539 224 852 418 1177 158 266 321 426 692 682 250 173 370 267 488 384 258 255 433 556 584 1002 81 242 128 439 279 1194 82 406 128 591 198 803 72 219 113 315 198 473 188 346 381 555 738 798 291 198 455 330 581 465 178 193 321 429 437 722 73 185 114 315 110 352 -2 18 -6 29 -9 23z m-85 -299 c-14 -37 -28 -65 -31 -63 -2 3 8 35 23 71 14 37 28 65 31 63 2 -3 -8 -35 -23 -71z"/>
 <path d="M7255 7380 c-134 -266 -329 -500 -563 -675 -57 -43 -174 -122 -260 -177 -302 -193 -406 -272 -537 -404 -246 -248 -435 -582 -580 -1024 -60 -183 -156 -582 -240 -990 -175 -849 -318 -1235 -598 -1605 -138 -181 -296 -314 -652 -545 -243 -158 -259 -169 -394 -285 -300 -257 -524 -628 -695 -1152 -42 -128 -136 -484 -136 -514 0 -36 17 20 65 208 152 602 373 1050 660 1338 145 146 283 250 575 435 444 282 666 534 868 985 124 276 211 592 347 1255 55 267 149 658 199 822 70 230 198 520 309 700 174 283 406 506 747 718 145 90 318 209 393 270 71 58 218 203 291 290 l38 45 -42 -61 c-56 -83 -199 -234 -315 -334 -52 -44 -184 -142 -292 -217 -253 -175 -328 -232 -436 -333 -266 -250 -452 -553 -590 -965 -101 -300 -114 -353 -298 -1270 -116 -579 -228 -936 -391 -1245 -186 -353 -398 -584 -773 -842 -224 -154 -299 -209 -402 -294 -61 -52 -133 -120 -160 -151 -26 -32 -51 -60 -54 -63 -49 -43 -206 -283 -274 -419 -95 -190 -192 -466 -254 -726 -18 -72 -34 -136 -36 -142 -2 -7 -1 -13 4 -13 5 0 25 66 45 148 51 202 102 371 144 472 155 377 271 562 491 781 132 131 220 201 461 364 440 299 651 533 856 950 145 297 255 657 358 1180 186 935 231 1115 361 1445 117 297 295 566 501 760 129 121 221 191 520 395 280 191 477 389 631 636 58 93 163 290 163 306 0 31 -22 8 -55 -57z"/>
 <path d="M7245 6732 c-57 -81 -276 -299 -370 -368 -78 -57 -125 -88 -425 -283 -277 -179 -457 -352 -610 -584 -260 -393 -395 -793 -591 -1755 -149 -735 -308 -1171 -551 -1511 -146 -204 -354 -385 -668 -580 -608 -378 -858 -702 -1098 -1416 -67 -201 -76 -235 -63 -235 5 0 12 15 15 34 10 55 84 271 143 421 132 334 266 553 469 765 150 156 225 213 629 475 437 284 633 514 839 988 113 260 202 582 326 1182 179 868 312 1249 570 1635 151 226 346 410 616 581 357 227 427 277 585 423 36 34 15 11 -45 -49 -111 -110 -256 -225 -436 -345 -505 -335 -760 -660 -965 -1227 -96 -263 -135 -425 -274 -1119 -98 -494 -142 -686 -197 -862 -154 -497 -352 -854 -618 -1116 -94 -93 -295 -255 -396 -321 -450 -293 -693 -547 -873 -911 -35 -71 -74 -156 -87 -189 -13 -33 -27 -64 -30 -70 -4 -5 -26 -68 -49 -140 -23 -72 -44 -136 -46 -142 -2 -7 -1 -13 4 -13 4 0 25 53 46 118 20 64 64 180 97 257 199 468 418 723 898 1045 493 331 742 632 956 1159 103 252 182 542 264 956 173 876 217 1063 320 1347 71 194 129 321 210 458 192 323 384 516 779 779 295 196 484 371 649 601 31 43 40 70 25 70 -5 0 -26 -26 -48 -58z"/>
 <path d="M7265 6210 c-80 -83 -248 -213 -412 -319 -93 -59 -206 -133 -253 -163 -353 -228 -601 -528 -789 -953 -133 -299 -219 -599 -342 -1194 -110 -531 -203 -891 -286 -1106 -99 -257 -254 -526 -403 -703 -127 -150 -378 -344 -690 -531 -115 -70 -289 -209 -400 -320 -173 -174 -288 -338 -415 -591 -42 -83 -135 -309 -135 -327 0 -20 22 22 51 97 146 386 369 708 649 939 100 83 139 110 380 266 199 129 284 188 361 252 292 241 521 610 674 1084 56 174 150 555 210 849 66 324 113 534 135 609 10 36 37 131 59 211 113 405 304 788 518 1035 116 135 263 258 470 394 259 170 356 231 360 227 2 -2 -70 -54 -159 -116 -252 -176 -295 -207 -418 -311 -109 -92 -235 -226 -308 -328 -64 -88 -176 -286 -228 -400 -154 -344 -224 -601 -375 -1371 -102 -524 -145 -706 -231 -970 -75 -235 -204 -513 -316 -685 -174 -267 -355 -436 -787 -735 -317 -219 -514 -422 -689 -712 -51 -84 -169 -338 -157 -338 4 0 35 60 70 134 112 239 228 411 391 580 110 114 225 206 488 390 356 249 511 397 677 646 238 354 387 774 526 1480 169 859 227 1097 335 1378 90 234 216 471 333 627 24 33 106 121 180 195 135 135 244 220 506 398 217 147 471 369 464 405 -3 15 -11 11 -44 -23z m-215 -215 c-13 -14 -28 -25 -34 -25 -6 1 3 12 19 25 39 32 45 32 15 0z"/>
 <path d="M7170 5663 c-69 -47 -165 -110 -213 -140 -250 -152 -393 -261 -533 -404 -156 -162 -264 -315 -364 -518 -181 -368 -266 -645 -406 -1320 -129 -623 -206 -907 -320 -1191 -195 -480 -440 -768 -904 -1062 -394 -250 -551 -383 -742 -630 -80 -103 -246 -383 -234 -395 8 -8 9 -7 46 67 41 81 155 262 213 338 71 91 215 240 310 319 91 76 214 161 409 284 471 296 714 581 912 1069 118 290 197 578 316 1159 135 654 227 967 379 1285 86 180 135 264 229 390 161 216 348 379 656 571 88 54 206 132 263 172 57 40 101 68 98 63 -9 -14 -189 -149 -324 -242 -69 -48 -153 -106 -186 -129 -141 -99 -350 -296 -443 -419 -109 -146 -219 -349 -310 -575 -128 -319 -174 -499 -318 -1235 -93 -478 -110 -552 -174 -776 -134 -465 -288 -790 -503 -1059 -109 -136 -328 -332 -497 -445 -384 -257 -571 -420 -730 -635 -62 -84 -130 -189 -130 -200 0 -18 19 3 44 48 16 28 70 105 119 170 145 190 312 336 658 572 234 159 454 356 571 510 204 269 353 586 475 1009 70 243 99 372 178 791 120 628 199 942 304 1203 153 380 292 604 502 807 104 101 290 245 469 365 121 81 300 219 307 236 14 37 -13 26 -127 -53z"/>
 <path d="M7265 5271 c-6 -5 -93 -63 -196 -129 -233 -150 -340 -232 -456 -349 -93 -93 -228 -266 -295 -378 -103 -172 -210 -413 -276 -625 -87 -276 -114 -382 -198 -780 -103 -491 -155 -713 -220 -935 -35 -118 -47 -152 -125 -348 -108 -270 -262 -512 -439 -687 -146 -145 -183 -172 -656 -479 -209 -136 -375 -285 -508 -456 -73 -93 -80 -105 -68 -105 5 0 29 28 52 63 57 82 295 319 390 389 41 30 132 91 200 135 532 339 684 478 879 805 117 196 234 480 309 748 45 158 140 572 203 880 159 774 322 1204 593 1565 180 239 303 341 771 640 115 73 33 6 -123 -101 -364 -249 -529 -415 -717 -719 -199 -322 -337 -739 -465 -1405 -23 -118 -59 -307 -81 -420 -149 -761 -338 -1250 -624 -1615 -130 -166 -297 -311 -593 -517 -81 -56 -190 -135 -242 -176 -95 -73 -294 -262 -285 -271 3 -2 51 40 108 95 112 110 210 189 392 314 401 278 591 459 755 719 84 133 127 218 208 406 129 300 218 636 343 1289 114 598 210 966 316 1216 189 445 449 772 806 1011 189 127 286 201 280 215 -6 16 -24 18 -38 5z"/>
 <path d="M7184 4767 c-274 -174 -450 -337 -607 -563 -72 -103 -213 -370 -271 -510 -96 -235 -189 -570 -275 -984 -168 -813 -261 -1133 -420 -1455 -189 -381 -411 -624 -786 -860 -239 -151 -367 -238 -462 -315 -51 -41 -88 -76 -83 -78 5 -2 42 24 82 58 67 57 324 231 500 340 235 144 457 352 598 560 166 245 319 611 419 1000 38 148 61 253 172 775 118 553 230 908 372 1175 224 423 404 616 816 874 76 48 33 9 -72 -66 -324 -230 -530 -475 -706 -840 -98 -203 -138 -305 -189 -483 -83 -288 -120 -457 -222 -1000 -100 -531 -191 -872 -303 -1140 -168 -402 -351 -665 -629 -902 -94 -80 -274 -212 -402 -295 -44 -29 -74 -54 -68 -56 13 -4 309 199 412 284 352 286 548 566 738 1054 83 213 183 607 263 1034 168 899 257 1207 456 1586 163 311 363 532 705 779 58 42 85 67 81 77 -3 8 -8 14 -12 14 -4 0 -52 -28 -107 -63z"/>
 <path d="M7210 4306 c-180 -128 -381 -340 -502 -531 -198 -313 -347 -728 -473 -1320 -146 -685 -214 -964 -290 -1180 -200 -575 -432 -884 -888 -1189 -71 -47 -124 -86 -118 -86 37 0 332 213 448 323 170 162 266 289 380 499 159 294 262 612 387 1193 191 880 217 981 353 1325 134 339 325 628 541 816 61 53 58 49 -28 -41 -99 -104 -217 -259 -287 -380 -75 -129 -190 -388 -241 -545 -98 -300 -147 -502 -237 -985 -113 -608 -193 -930 -302 -1215 -149 -390 -349 -700 -595 -923 -40 -37 -68 -67 -61 -67 33 -1 288 274 380 410 174 257 331 626 428 1008 33 132 108 489 160 764 99 520 154 750 251 1038 68 203 226 526 312 637 16 21 48 65 73 97 68 92 202 229 305 312 84 67 109 95 87 94 -5 0 -42 -25 -83 -54z"/>
 <path d="M7230 3865 c-291 -266 -466 -557 -634 -1055 -87 -260 -118 -383 -256 -1030 -126 -586 -224 -907 -362 -1185 -113 -227 -187 -337 -341 -507 -43 -49 -74 -88 -69 -88 12 0 152 154 214 235 105 139 250 415 322 615 102 284 149 455 236 865 165 779 231 1020 366 1352 113 275 251 495 429 681 64 67 127 128 139 134 11 6 -18 -30 -65 -79 -215 -224 -400 -535 -516 -868 -94 -271 -155 -520 -242 -983 -140 -742 -218 -1049 -348 -1367 -73 -176 -163 -346 -275 -513 -27 -39 -44 -72 -39 -72 27 0 242 373 311 540 145 349 207 588 360 1387 109 572 165 787 290 1118 39 102 156 332 225 440 57 89 218 287 278 342 45 40 53 52 47 73 -6 23 -7 23 -70 -35z"/>
 <path d="M7214 3302 c-112 -138 -249 -368 -324 -542 -124 -291 -199 -558 -341 -1210 -107 -496 -132 -598 -201 -815 -71 -227 -141 -400 -223 -550 -39 -72 -79 -142 -89 -157 -10 -16 -13 -28 -8 -28 26 0 186 314 254 495 94 250 161 493 248 900 74 346 177 781 217 920 48 165 145 419 208 545 83 166 233 405 268 427 6 4 -2 -11 -18 -32 -57 -74 -108 -159 -173 -285 -89 -173 -115 -236 -189 -460 -84 -255 -133 -459 -213 -890 -59 -321 -137 -690 -181 -861 -59 -233 -198 -614 -261 -717 -11 -18 -18 -35 -15 -38 17 -18 118 210 203 461 89 260 125 417 309 1355 99 509 193 810 346 1113 73 143 141 256 215 353 49 63 67 104 47 104 -5 0 -40 -40 -79 -88z"/>
 <path d="M7208 2687 c-205 -359 -311 -691 -488 -1517 -32 -151 -73 -333 -90 -405 -54 -226 -162 -568 -226 -712 -12 -29 -19 -53 -14 -53 18 0 105 237 180 490 65 223 78 276 155 635 125 588 213 916 312 1170 53 135 164 370 185 390 5 6 -11 -32 -36 -83 -61 -121 -96 -210 -166 -422 -87 -260 -111 -363 -230 -980 -117 -603 -163 -801 -243 -1043 -29 -86 -48 -156 -43 -154 11 4 39 84 101 297 54 181 100 382 149 640 78 410 149 763 187 916 40 165 129 440 193 598 39 95 152 312 167 321 11 7 12 52 1 59 -4 2 -47 -64 -94 -147z"/>
 <path d="M7230 2032 c-110 -260 -197 -570 -320 -1147 -38 -176 -78 -356 -88 -400 -26 -104 -110 -408 -122 -441 -13 -32 -13 -51 -1 -38 24 25 149 512 235 919 108 511 204 854 302 1082 48 112 72 149 36 57 -121 -311 -181 -545 -313 -1239 -86 -452 -149 -744 -174 -807 -4 -10 -3 -18 2 -18 20 0 85 281 168 723 140 751 205 1016 324 1315 21 54 27 107 13 116 -4 3 -32 -52 -62 -122z"/>
 <path d="M7275 1298 c-28 -76 -106 -407 -226 -958 -22 -102 -46 -205 -54 -230 -19 -63 -29 -116 -20 -108 14 13 51 166 135 553 77 350 156 674 167 685 10 9 -5 -83 -41 -255 -43 -202 -80 -391 -136 -690 -22 -121 -44 -237 -49 -257 -5 -21 -5 -38 -1 -38 11 0 18 35 95 450 35 190 83 431 106 535 44 204 59 325 40 325 -6 0 -14 -6 -16 -12z"/>
 </g>

</svg>